<svg xmlns="http://www.w3.org/2000/svg" xmlns:xlink="http://www.w3.org/1999/xlink" width="641" height="140" fill="none" xmlns:v="https://vecta.io/nano"><rect width="641" height="140" rx="70" fill="#e74d4d"/><rect x="36" y="39" width="138" height="66" rx="31" fill="#fff"/><path d="M129.035 72.258L92.99 92.748l.277-41.461 35.767 20.971z" fill="#e74d4d"/><use xlink:href="#B" fill="#000"/><rect width="641" height="140" rx="70" fill="#e74d4d"/><rect x="36" y="39" width="138" height="66" rx="31" fill="#fff"/><path d="M129.035 72.258L92.99 92.748l.277-41.461 35.767 20.971z" fill="#e74d4d"/><use xlink:href="#B" fill="#000"/><defs ><path id="B" d="M202.09 104V83.98L189.84 47.3h7.35l8.68 27.37 8.54-27.37h7.42l-12.18 36.68V104h-7.56zm33.104.56c-2.987 0-5.343-.607-7.07-1.82s-2.963-2.94-3.71-5.18c-.7-2.24-1.05-4.877-1.05-7.91V77.89c0-3.033.35-5.67 1.05-7.91.747-2.24 1.983-3.967 3.71-5.18s4.083-1.82 7.07-1.82 5.32.607 7 1.82c1.727 1.213 2.94 2.94 3.64 5.18.747 2.24 1.12 4.877 1.12 7.91v11.76c0 3.033-.373 5.67-1.12 7.91-.7 2.24-1.913 3.967-3.64 5.18-1.68 1.213-4.013 1.82-7 1.82zm0-5.53c1.447 0 2.45-.42 3.01-1.26.607-.84.957-1.937 1.05-3.29.14-1.4.21-2.847.21-4.34V77.47l-.21-4.34c-.093-1.353-.443-2.45-1.05-3.29-.56-.887-1.563-1.33-3.01-1.33s-2.473.443-3.08 1.33c-.607.84-.98 1.937-1.12 3.29l-.14 4.34v12.67l.14 4.34c.14 1.353.513 2.45 1.12 3.29s1.633 1.26 3.08 1.26zm23.366 5.53c-1.586 0-2.823-.42-3.71-1.26s-1.516-1.89-1.89-3.15a15.31 15.31 0 0 1-.49-3.85V63.54h7.49v30.52c0 1.447.21 2.59.63 3.43.42.793 1.284 1.19 2.59 1.19.84 0 1.704-.233 2.59-.7.934-.513 1.82-1.12 2.66-1.82V63.54h7.49V104h-7.49v-3.99c-1.306 1.26-2.8 2.333-4.48 3.22-1.633.887-3.43 1.33-5.39 1.33zm30.83-.56V53.18h-9.59V47.3h26.81v5.88h-9.31V104h-7.91zm26.816.56c-1.586 0-2.823-.42-3.71-1.26s-1.516-1.89-1.89-3.15a15.31 15.31 0 0 1-.49-3.85V63.54h7.49v30.52c0 1.447.21 2.59.63 3.43.42.793 1.284 1.19 2.59 1.19.84 0 1.704-.233 2.59-.7.934-.513 1.82-1.12 2.66-1.82V63.54h7.49V104h-7.49v-3.99c-1.306 1.26-2.8 2.333-4.48 3.22-1.633.887-3.43 1.33-5.39 1.33zm38.46 0c-1.446 0-2.753-.35-3.92-1.05-1.12-.747-2.1-1.563-2.94-2.45V104h-7.49V47.3h7.49v19.46c.887-1.027 1.937-1.913 3.15-2.66 1.26-.747 2.754-1.12 4.48-1.12 2.1 0 3.757.56 4.97 1.68 1.26 1.073 2.194 2.45 2.8 4.13a20.81 20.81 0 0 1 1.19 5.04l.28 4.34v9.8c0 2.847-.28 5.553-.84 8.12-.56 2.52-1.563 4.573-3.01 6.16-1.446 1.54-3.5 2.31-6.16 2.31zm-1.54-5.88c1.307 0 2.24-.467 2.8-1.4.56-.98.91-2.287 1.05-3.92l.21-5.39v-9.8c0-1.68-.093-3.22-.28-4.62-.186-1.447-.583-2.59-1.19-3.43s-1.563-1.26-2.87-1.26c-.98 0-1.913.21-2.8.63a13.11 13.11 0 0 0-2.24 1.4v25.97c.654.513 1.424.957 2.31 1.33.934.327 1.937.49 3.01.49zm28.509 5.88c-3.173 0-5.623-.607-7.35-1.82-1.727-1.26-2.94-3.08-3.64-5.46-.653-2.427-.98-5.39-.98-8.89v-9.24c0-3.593.35-6.58 1.05-8.96s1.913-4.177 3.64-5.39c1.773-1.213 4.2-1.82 7.28-1.82 3.407 0 5.903.7 7.49 2.1 1.633 1.4 2.707 3.43 3.22 6.09.513 2.613.77 5.763.77 9.45v3.29h-15.96v8.12c0 1.633.14 2.963.42 3.99.327 1.027.817 1.797 1.47 2.31.7.467 1.587.7 2.66.7 1.12 0 1.96-.257 2.52-.77.607-.56 1.003-1.33 1.19-2.31.233-1.027.35-2.217.35-3.57v-2.45h7.28v1.54c0 4.06-.863 7.257-2.59 9.59s-4.667 3.5-8.82 3.5zm-4.48-24.71h8.61v-3.64c0-1.68-.093-3.08-.28-4.2-.187-1.167-.583-2.03-1.19-2.59-.56-.607-1.47-.91-2.73-.91-1.213 0-2.147.28-2.8.84-.607.56-1.027 1.517-1.26 2.87-.233 1.307-.35 3.127-.35 5.46v2.17z"/></defs></svg>