<svg width="641" height="206" viewBox="0 0 641 206" fill="none" xmlns="http://www.w3.org/2000/svg">
<rect y="55" width="641" height="140" rx="70" fill="#E74D4D"/>
<rect x="36" y="94" width="138" height="66" rx="31" fill="white"/>
<path d="M129.035 127.258L92.9903 147.748L93.2677 106.287L129.035 127.258Z" fill="#E74D4D"/>
<path d="M202.09 159V138.98L189.84 102.3H197.19L205.87 129.67L214.41 102.3H221.83L209.65 138.98V159H202.09ZM235.194 159.56C232.207 159.56 229.851 158.953 228.124 157.74C226.397 156.527 225.161 154.8 224.414 152.56C223.714 150.32 223.364 147.683 223.364 144.65V132.89C223.364 129.857 223.714 127.22 224.414 124.98C225.161 122.74 226.397 121.013 228.124 119.8C229.851 118.587 232.207 117.98 235.194 117.98C238.181 117.98 240.514 118.587 242.194 119.8C243.921 121.013 245.134 122.74 245.834 124.98C246.581 127.22 246.954 129.857 246.954 132.89V144.65C246.954 147.683 246.581 150.32 245.834 152.56C245.134 154.8 243.921 156.527 242.194 157.74C240.514 158.953 238.181 159.56 235.194 159.56ZM235.194 154.03C236.641 154.03 237.644 153.61 238.204 152.77C238.811 151.93 239.161 150.833 239.254 149.48C239.394 148.08 239.464 146.633 239.464 145.14V132.47C239.464 130.93 239.394 129.483 239.254 128.13C239.161 126.777 238.811 125.68 238.204 124.84C237.644 123.953 236.641 123.51 235.194 123.51C233.747 123.51 232.721 123.953 232.114 124.84C231.507 125.68 231.134 126.777 230.994 128.13C230.901 129.483 230.854 130.93 230.854 132.47V145.14C230.854 146.633 230.901 148.08 230.994 149.48C231.134 150.833 231.507 151.93 232.114 152.77C232.721 153.61 233.747 154.03 235.194 154.03ZM258.56 159.56C256.974 159.56 255.737 159.14 254.85 158.3C253.964 157.46 253.334 156.41 252.96 155.15C252.634 153.89 252.47 152.607 252.47 151.3V118.54H259.96V149.06C259.96 150.507 260.17 151.65 260.59 152.49C261.01 153.283 261.874 153.68 263.18 153.68C264.02 153.68 264.884 153.447 265.77 152.98C266.704 152.467 267.59 151.86 268.43 151.16V118.54H275.92V159H268.43V155.01C267.124 156.27 265.63 157.343 263.95 158.23C262.317 159.117 260.52 159.56 258.56 159.56ZM289.39 159V108.18H279.8V102.3H306.61V108.18H297.3V159H289.39ZM316.206 159.56C314.62 159.56 313.383 159.14 312.496 158.3C311.61 157.46 310.98 156.41 310.606 155.15C310.28 153.89 310.116 152.607 310.116 151.3V118.54H317.606V149.06C317.606 150.507 317.816 151.65 318.236 152.49C318.656 153.283 319.52 153.68 320.826 153.68C321.666 153.68 322.53 153.447 323.416 152.98C324.35 152.467 325.236 151.86 326.076 151.16V118.54H333.566V159H326.076V155.01C324.77 156.27 323.276 157.343 321.596 158.23C319.963 159.117 318.166 159.56 316.206 159.56ZM354.666 159.56C353.22 159.56 351.913 159.21 350.746 158.51C349.626 157.763 348.646 156.947 347.806 156.06V159H340.316V102.3H347.806V121.76C348.693 120.733 349.743 119.847 350.956 119.1C352.216 118.353 353.71 117.98 355.436 117.98C357.536 117.98 359.193 118.54 360.406 119.66C361.666 120.733 362.6 122.11 363.206 123.79C363.813 125.423 364.21 127.103 364.396 128.83C364.583 130.51 364.676 131.957 364.676 133.17V142.97C364.676 145.817 364.396 148.523 363.836 151.09C363.276 153.61 362.273 155.663 360.826 157.25C359.38 158.79 357.326 159.56 354.666 159.56ZM353.126 153.68C354.433 153.68 355.366 153.213 355.926 152.28C356.486 151.3 356.836 149.993 356.976 148.36C357.116 146.727 357.186 144.93 357.186 142.97V133.17C357.186 131.49 357.093 129.95 356.906 128.55C356.72 127.103 356.323 125.96 355.716 125.12C355.11 124.28 354.153 123.86 352.846 123.86C351.866 123.86 350.933 124.07 350.046 124.49C349.206 124.91 348.46 125.377 347.806 125.89V151.86C348.46 152.373 349.23 152.817 350.116 153.19C351.05 153.517 352.053 153.68 353.126 153.68ZM381.635 159.56C378.462 159.56 376.012 158.953 374.285 157.74C372.558 156.48 371.345 154.66 370.645 152.28C369.992 149.853 369.665 146.89 369.665 143.39V134.15C369.665 130.557 370.015 127.57 370.715 125.19C371.415 122.81 372.628 121.013 374.355 119.8C376.128 118.587 378.555 117.98 381.635 117.98C385.042 117.98 387.538 118.68 389.125 120.08C390.758 121.48 391.832 123.51 392.345 126.17C392.858 128.783 393.115 131.933 393.115 135.62V138.91H377.155V147.03C377.155 148.663 377.295 149.993 377.575 151.02C377.902 152.047 378.392 152.817 379.045 153.33C379.745 153.797 380.632 154.03 381.705 154.03C382.825 154.03 383.665 153.773 384.225 153.26C384.832 152.7 385.228 151.93 385.415 150.95C385.648 149.923 385.765 148.733 385.765 147.38V144.93H393.045V146.47C393.045 150.53 392.182 153.727 390.455 156.06C388.728 158.393 385.788 159.56 381.635 159.56ZM377.155 134.85H385.765V131.21C385.765 129.53 385.672 128.13 385.485 127.01C385.298 125.843 384.902 124.98 384.295 124.42C383.735 123.813 382.825 123.51 381.565 123.51C380.352 123.51 379.418 123.79 378.765 124.35C378.158 124.91 377.738 125.867 377.505 127.22C377.272 128.527 377.155 130.347 377.155 132.68V134.85Z" fill="black"/>
<path d="M486.042 185.985L485.233 186.878L485.063 187.515L484.935 188.237L485.318 188.619L486.593 189.299L488.038 189.851L489.653 189.936L490.928 189.977L491.523 190.104L491.396 190.741L490.928 191.294L490.63 191.803L490.418 192.356L491.353 192.101L493.053 191.379L495.008 190.954L496.581 190.317L497.728 189.892L498.664 189.467L499.514 188.065L499.939 186.621V185.091V184.242L499.769 183.477L498.834 183.01L497.601 182.585H496.751L495.52 182.203L495.222 183.393L494.457 184.794L493.352 186.111L491.482 186.876L489.867 186.961L488.252 186.706L486.042 185.985Z" fill="#030406" stroke="black" stroke-width="0.366477"/>
<path d="M484.935 188.237L483.979 189.193L483.703 189.597L483.618 190.276L483.49 191.253V191.933L483.406 192.655L483.661 192.91L484.213 193.122L485.191 193.207H486.381L488.081 192.995L489.314 192.74L490.418 192.356L490.928 191.294L491.524 190.105L490.928 189.977L488.038 189.852L486.593 189.299L484.935 188.237Z" fill="white" stroke="black" stroke-width="0.366477"/>
<path d="M508.482 186.963L507.42 187.387L506.527 187.472L506.102 187.217L505.932 186.07V185.178L505.973 184.074V183.437L507.333 183.734H507.971L508.651 186.071V186.495L508.482 186.963Z" fill="white" stroke="black" stroke-width="0.366477"/>
<path d="M483.406 192.655L483.235 193.717L483.533 194.481L484.468 194.948L485.403 195.331L487.273 195.501L489.738 195.246L492.331 194.736L494.286 194.099L496.879 193.334L499.089 192.612L501.342 191.763L502.914 191.21L506.612 190.063L507.802 189.469L508.312 189.129L508.78 188.237L508.482 186.963L507.42 187.388L506.527 187.472L505.932 186.071L505.973 183.437L504.36 182.587L503.424 182.375L502.107 181.781L500.407 181.271H499.217L498.579 181.23L497.474 181.442L496.496 181.697L495.52 182.205L496.751 182.587H497.601L498.834 183.012L499.769 183.479L499.939 184.244V186.622L499.514 188.067L498.664 189.469L495.008 190.956L493.053 191.38L490.418 192.357L486.381 193.208L484.213 193.124L483.406 192.655Z" fill="#747369" stroke="black" stroke-width="0.366477"/>
<path d="M510.691 194.354L510.692 195.713L510.565 196.435L510.649 197.03L511.202 197.071L512.605 197.241H514.177C514.177 197.241 515.452 197.282 515.665 197.282C515.877 197.282 516.897 197.323 516.897 197.323L517.62 197.239L517.705 197.536L517.45 198.258L517.238 198.938L517.025 199.745L516.855 200.722L516.557 201.572L516.175 202.124L516.047 202.633L517.45 202.506L519.023 202.166L520.51 201.529L522.126 201.359L524.123 201.104L525.228 200.765L525.781 200.34L525.993 199.235L526.205 197.579L525.993 194.733V193.161L525.653 191.972L525.398 191.547L524.633 191.207L523.061 190.315L521.956 189.848L520.978 189.168L520.127 188.488L520.169 189.635L519.488 191.122L518.468 192.991L516.343 194.563L513.92 194.775L510.691 194.354Z" fill="#010101" stroke="black" stroke-width="0.366477"/>
<path d="M510.649 197.03L510.608 198.135L510.523 198.729L510.482 199.706C510.482 199.706 510.312 200.386 510.312 200.556C510.312 200.726 510.353 201.575 510.353 201.575C510.665 203.049 511.49 202.75 512.648 202.724H515.156L516.048 202.635L516.558 201.573L516.856 200.724L517.026 199.747L517.62 197.24L516.898 197.325L512.605 197.243L510.649 197.03Z" fill="white" stroke="black" stroke-width="0.366477"/>
<path d="M532.2 191.253L532.582 192.442C532.582 192.442 532.88 193.759 533.05 194.142C533.22 194.524 533.857 196.605 533.857 196.605L534.283 197.752L534.75 198.05L535.345 197.455L536.238 195.543L536.705 193.929V192.655L536.323 191.508L535.813 190.531L535.558 189.681L535.09 189.554L534.112 190.276L533.135 191.168L532.2 191.253Z" fill="white" stroke="black" stroke-width="0.366477"/>
<path d="M534.282 197.752L534.197 198.814L534.495 199.621L535.727 199.282L536.79 198.942L537.598 198.05L538.15 196.903L537.725 196.095L537.385 195.713L536.238 195.543L535.345 197.455L534.75 198.049L534.282 197.752Z" fill="#010101" stroke="black" stroke-width="0.366477"/>
<path d="M510.693 202.68C510.82 203.019 511.458 204.421 511.458 204.421L512.393 204.889L514.39 205.186L517.493 205.016L520.214 204.507L523.401 204.167L525.867 203.445L528.162 203.147L531.307 202.425L534.41 201.873L536.025 201.024L537.045 200.386L537.683 199.707L538.129 198.041L538.397 197.578L538.15 196.903L537.598 198.05L536.79 198.942L534.495 199.622L534.197 198.815L534.283 197.753L533.177 194.354L532.582 192.443L532.2 191.253L529.735 191.294H527.907L525.399 191.546L525.654 191.971L525.994 193.16V194.732L526.206 197.578L525.781 200.339L524.124 201.103L520.511 201.528L519.023 202.165L517.45 202.505L515.156 202.723L510.693 202.68Z" fill="#747369" stroke="black" stroke-width="0.366477"/>
<path d="M509.842 185.858L510.182 187.005L510.565 188.534V189.809V190.828L510.606 192.23V193.674L510.691 194.354L511.668 194.566L513.921 194.778L516.344 194.566L518.469 192.994L519.489 191.125L520.169 189.638L520.128 188.492L519.618 187.26L519.363 185.9L519.023 185.008L518.641 183.989V183.521L517.323 184.073L516.274 184.679L515.378 184.919L513.2 185.73L512.18 185.9L509.842 185.858Z" fill="#CD7E57" stroke="black" stroke-width="0.366477"/>
<path d="M486.295 177.787V179.189L486.21 180.633V181.738L486.295 182.842L486.168 183.947L486.083 185.093L486.042 185.986L486.764 186.283L488.252 186.708L489.867 186.963L491.482 186.878L493.353 186.113L494.458 184.796L495.223 183.395L495.52 182.205L495.436 180.931L495.138 179.487L494.84 178.17L494.799 176.895V176.173L494.332 176.555L492.079 177.235L490.124 177.702L487.871 178.042L486.295 177.787Z" fill="#CD7E57" stroke="black" stroke-width="0.366477"/>
<path d="M508.185 31.9135L508.057 35.0569L508.142 36.5861L508.312 39.8571L508.483 42.2783L508.441 46.8236L508.526 48.6927L508.441 50.2219L508.4 51.9636L508.441 53.1105L508.357 54.1301L510.864 54.3422H513.075L516.687 54.3011H520.385L524.593 54.5133L527.738 54.6408L529.013 54.5996L529.184 50.1393L529.099 44.4472L529.14 40.0718V35.3566L528.928 32.3405L528.843 31.1087L527.695 31.2787H526.378L524.507 31.3635L522.765 31.4482L522.51 32.0005L520.172 31.9594L514.434 31.6198L511.671 31.535H509.674L508.186 31.5761L508.185 31.9135Z" fill="white" stroke="black" stroke-width="0.366477"/>
<g filter="url(#filter0_f)">
<path d="M509.375 32.8906L509.63 35.7367L509.757 38.4128L509.716 39.7297L509.844 41.174L510.056 42.5758C510.056 42.5758 509.929 43.213 510.141 43.213C510.353 43.213 515.029 43.213 515.326 43.213C515.624 43.213 519.067 43.1719 519.067 43.1719L520.002 43.213L519.874 37.7331L519.577 34.08L519.364 32.7631L515.964 32.9332L512.181 32.7631L510.184 32.6783L509.375 32.8906Z" fill="#C6C7BF"/>
<path d="M509.375 32.8906L509.63 35.7367L509.757 38.4128L509.716 39.7297L509.844 41.174L510.056 42.5758C510.056 42.5758 509.929 43.213 510.141 43.213C510.353 43.213 515.029 43.213 515.326 43.213C515.624 43.213 519.067 43.1719 519.067 43.1719L520.002 43.213L519.874 37.7331L519.577 34.08L519.364 32.7631L515.964 32.9332L512.181 32.7631L510.184 32.6783L509.375 32.8906Z" stroke="black" stroke-width="0.366477"/>
</g>
<path d="M510.14 40.7491L511.713 40.7902H515.58L517.833 40.7054L518.343 40.5354V38.284L518.428 35.7777L518.088 33.6112L517.961 33.1442L515.964 32.9321L513.2 33.1442L510.99 33.1031L509.375 32.8909L509.843 35.0149L509.884 37.2663L509.756 38.4132L510.14 40.7491Z" fill="white" stroke="black" stroke-width="0.366477"/>
<path d="M506.315 31.3611V33.4001L506.4 34.7595L506.315 36.5011L506.527 39.0074L506.612 40.7915C506.612 40.7915 506.571 42.2783 506.612 42.5756C506.653 42.8731 506.739 44.0199 506.739 44.1898V45.889L506.78 47.928L506.865 50.3918V52.1335L506.917 54.0431L508.356 54.1305L508.482 52.6862V49.4365L508.546 46.3143L508.482 44.2328L508.16 37.3215L508.186 31.9139L511.707 31.8547L516.937 31.7947L520.544 31.8547L522.511 32.0007L522.766 31.4484L519.642 31.3138L515.735 31.2537L511.768 31.0734L506.315 31.3611Z" fill="#C6C7BF" stroke="black" stroke-width="0.366477"/>
<path d="M508.357 54.13C508.357 54.13 510.778 57.7407 510.948 57.9106C511.118 58.0807 512.18 59.0576 512.435 59.4399C512.69 59.8222 514.008 60.9267 514.008 60.9267C514.008 60.9267 515.411 61.8187 515.666 62.1586C515.921 62.4982 517.238 63.1781 517.748 63.5604C518.258 63.9426 518.853 64.7923 519.618 65.1746C520.383 65.5569 522.976 67.2986 523.529 67.6384C524.081 67.978 525.484 69.2101 525.909 69.4225C526.334 69.6347 527.609 70.6119 527.949 70.9093C528.289 71.2068 529.819 72.2686 529.947 72.4385C530.074 72.6086 531.307 74.0527 531.52 74.3501C531.732 74.6476 532.582 76.0068 532.582 76.0068L533.645 78.1307L534.707 79.2352C534.707 79.2352 535.43 80.1273 535.727 80.5096C536.025 80.8919 536.62 81.9114 536.833 82.2087C537.045 82.5062 538.32 83.6531 538.915 83.9504C539.51 84.2479 540.233 84.8424 540.488 85.0123C540.743 85.1824 541.933 85.4372 541.933 85.4372L543.123 85.055L544.101 84.7154L545.461 84.8429L545.886 83.8658L545.588 81.8268L545.249 80.2126L544.781 78.7258V78.1311L545.249 77.3665L545.503 76.6444L545.716 76.0496C543.732 76.4555 543.486 74.3629 543.557 72.9737C543.553 72.9993 543.421 72.3549 543.546 71.7602V71.0805L543.505 70.4434L543.08 69.7212L543.011 68.9618C543.011 68.9618 542.678 68.1319 542.678 67.9195C542.678 67.7073 542.569 67.0025 542.569 67.0025L542.739 66.2379L543.164 65.2187V65.2185V64.7088V63.9442L542.611 64.9212L542.314 65.8557C542.314 65.8557 542.016 66.7478 541.973 66.9177C541.932 67.0878 541.548 67.6824 541.548 67.6824V68.192V68.3194V68.659L541.931 69.4662L542.313 70.2733L542.398 70.7829L542.143 71.1225L541.505 71.1636L540.995 71.4184C540.995 71.4184 540.954 72.0556 540.954 72.2255C540.954 72.3956 540.913 72.6931 540.913 72.6931C540.913 72.6931 541.083 72.9905 541.126 73.1601C541.167 73.3301 541.21 73.6276 541.167 73.7973C541.126 73.9673 540.954 74.2221 540.954 74.2221L540.827 75.0292V75.9213L540.868 76.7709V77.6629V78.555C540.868 78.555 541.08 79.2347 541.08 79.4046C541.08 79.5746 541.08 80.2966 541.165 80.4666C541.25 80.6366 541.293 81.1462 541.42 81.4011C541.548 81.6559 541.675 82.1658 541.675 82.1658L541.973 82.718L542.865 83.4401L543.163 83.5675L543.035 83.9498L542.908 84.4168L542.313 84.7142L541.59 84.8843C541.59 84.8843 542.015 84.7143 541.42 84.1197C540.825 83.525 540.358 83.0153 540.358 83.0153C540.358 83.0153 540.018 82.8452 539.848 82.463C539.677 82.0807 537.977 81.0612 537.977 81.0612L537.51 79.9567L536.193 78.2575L534.96 77.1106L534.407 76.4309C534.407 76.4309 534.068 75.7088 533.77 75.4114C533.472 75.1139 532.962 74.0096 532.792 73.7547C532.622 73.4999 531.73 72.1405 531.602 71.9706C531.475 71.8005 530.242 70.9086 530.242 70.9086L528.754 70.0168L526.671 68.4875L524.801 66.6609L522.676 65.5564L521.401 64.2396L519.828 63.3051L518.341 62.2431L516.683 60.9687L515.365 60.1191C515.365 60.1191 514.175 59.2696 514.09 59.0996C514.005 58.9296 512.603 57.8677 512.603 57.8677L511.71 56.6783L510.477 55.5313L510.01 54.8942L509.458 54.257L508.357 54.13Z" fill="white" stroke="black" stroke-width="0.366477"/>
<path d="M543.166 65.2187L542.571 67.0027L543.082 69.7214L543.507 70.4436L543.548 71.7605C542.914 75.7881 544.773 76.611 546.226 76.1341L547.551 75.7791L548.443 75.2645C548.443 75.2645 548.939 74.8165 549.219 74.8165H550.306L551.639 74.0476L552.776 73.3915L553.758 72.8248L555.279 70.8239L555.577 69.8894L556.639 68.0628L556.852 67.1282L557.489 65.7689L557.872 64.7494L558.254 64.1972L558.722 63.8997L558 63.2625L557.66 62.413L557.787 61.7758L557.575 61.1811L556.087 60.841C556.087 60.841 555.492 60.6288 555.535 60.374C555.576 60.1191 555.832 58.8872 555.832 58.8872L555.067 58.2925L553.962 58.0377L552.475 56.8483L551.582 55.7438L549.839 55.5737L548.352 55.5326L547.459 55.3204L546.609 55.3615L545.886 56.296L544.951 57.1456L544.526 57.9103C544.526 57.9103 544.144 58.4199 544.058 58.6749C543.974 58.9297 543.719 59.397 543.719 59.397L543.549 60.0767L543.59 60.7139V61.2236C543.59 61.2236 543.25 60.884 543.165 61.1825C543.08 61.4799 542.91 61.9046 542.91 61.9046L542.951 62.4993L543.163 63.9453L543.166 65.2187Z" fill="#CD7E57" stroke="black" stroke-width="0.366477"/>
<path d="M547.862 63.3035L548.674 63.5136L549.455 63.4237L550.357 63.4838C550.357 63.4838 550.838 63.4838 550.988 63.5439C551.138 63.604 552.461 63.9945 552.461 63.9945L553.423 64.6553L552.431 63.4237C552.431 63.4237 551.078 62.823 550.958 62.823C550.838 62.823 549.606 62.2523 549.185 62.3427C548.764 62.4326 548.043 62.5831 548.043 62.5831L547.862 63.3035Z" fill="#0A0A08" stroke="black" stroke-width="0.366477"/>
<path d="M543.378 64.495L543.952 64.7925C543.952 64.7925 544.441 64.8773 544.526 64.8988C544.611 64.9194 545.355 64.94 545.355 64.94L545.801 64.7488L545.737 64.0054L545.184 63.4745L544.377 63.2407L543.676 63.3044L543.164 63.9431L543.399 64.3875L543.378 64.495Z" fill="#FFFFFE" stroke="black" stroke-width="0.366477"/>
<path d="M545.184 63.4744L544.568 63.9214C544.568 63.9214 544.377 64.1552 544.377 64.261C544.377 64.3673 544.717 64.8344 544.717 64.8344L545.354 64.9398C545.629 64.7204 545.683 64.3628 545.737 64.0052C545.522 63.774 545.291 63.5156 545.184 63.4744V63.4744Z" fill="#0A0A08" stroke="black" stroke-width="0.366477"/>
<path d="M548.674 65.6163L549.335 66.0669L549.996 66.2169L550.838 66.0966L551.77 65.9764H552.401C552.401 65.9764 552.311 65.5557 552.191 65.3456C552.07 65.1355 551.559 64.7749 551.559 64.7749L550.778 64.4446L549.696 64.3243L548.884 64.5047C548.884 64.5047 548.554 64.4148 548.554 64.6249C548.554 64.835 548.674 65.6161 548.674 65.6161L548.674 65.6163Z" fill="#FFFFFE" stroke="black" stroke-width="0.366477"/>
<path d="M550.391 64.7711L550.432 65.4295L550.687 65.8544L551.768 65.9767H552.399L552.133 65.2599L551.558 64.7754C550.998 64.7788 550.493 64.295 550.391 64.7711V64.7711Z" fill="#0A0A08" stroke="black" stroke-width="0.366477"/>
<path d="M545.716 65.8968L545.163 66.9164C543.67 67.9166 544.322 69.2067 545.289 69.0813C545.459 69.0813 546.267 68.7838 546.267 68.7838C548.201 69.0936 547.857 68.2906 547.457 67.5943" stroke="#513535" stroke-width="0.366477"/>
<path d="M543.549 60.0768L543.548 57.7833L543.931 56.9337L545.333 55.0222L546.651 54.1301L548.436 51.8363H549.286C549.286 51.8363 550.901 51.5815 551.284 51.5815C551.666 51.5815 554.387 51.5815 554.387 51.5815C554.387 51.5815 555.917 51.5403 556.554 51.6225C557.192 51.7073 559.105 52.1748 559.105 52.1748L561.315 53.0668C561.315 53.0668 562.675 54.1713 562.802 54.5536C562.93 54.9359 563.908 56.3802 563.993 56.5926C564.077 56.8048 564.63 57.867 564.63 58.0369C564.63 58.207 564.885 59.4388 564.885 59.4388L565.438 60.0759C565.438 60.0759 565.735 60.5856 565.777 60.7556C565.819 60.9256 565.99 62.0725 565.99 62.0725C565.99 62.0725 566.031 63.0919 565.949 63.3468C565.864 63.6016 565.354 63.8991 565.354 64.3663C565.354 64.8339 565.524 65.1734 565.524 65.4708C565.524 65.7682 565.396 66.5328 565.311 66.7027C565.227 66.8727 564.674 66.9148 564.631 67.4248C564.59 67.9345 564.59 68.7417 564.461 68.9116C564.334 69.0816 563.824 70.2709 563.824 70.4409C563.824 70.6109 563.653 71.4603 563.569 71.6728C563.484 71.8849 563.186 72.5223 563.186 72.5223L562.681 73.5449L562.26 74.3259L561.959 75.6475L561.298 76.5486L560.216 77.0593L560.035 77.9605L559.885 78.1706H559.224L558.653 78.2908L557.721 79.1019L557.511 79.7326L557.181 80.063L556.369 80.6336L555.648 80.9943L555.167 81.595C555.167 81.595 554.866 81.9557 554.776 82.0754C554.687 82.1956 554.295 82.6461 554.295 82.6461L552.883 83.9678L551.801 85.0492L551.049 85.1391L550.238 86.6409L549.907 87.2717L549.457 88.2929L549.126 88.9237L548.765 89.5545L548.044 90.6058L547.803 91.2967L547.623 92.0476L547.563 92.6183L547.382 93.4293L547.112 94.0901L547.172 95.0513L547.473 96.9137L547.112 97.3643L546.601 97.6648L546.33 98.596L546.24 99.2868L546.09 99.5874L546.03 97.5448L545.82 96.824L545.7 96.1331L546 95.5023L546.391 95.1416L546.601 93.7599L546.932 92.4083L547.112 91.2368L547.533 90.0653L547.834 88.4433L548.225 87.3619C548.225 87.3619 548.826 86.581 548.886 86.4609C548.946 86.3407 549.637 84.959 549.637 84.959L550.208 83.9077L550.93 82.8564L551.741 81.6849L552.342 80.6336L554.386 78.6211L555.468 77.75L556.37 76.879L558.083 74.6261L558.834 73.1844L559.255 72.133L559.676 71.3521L560.067 69.7301L560.848 68.7689L561.51 67.9879L561.81 67.2069L561.931 65.7952L561.6 64.4435L561.209 63.5423L560.819 63.0918L560.488 62.8215L559.887 63.212L558.725 63.8985L557.662 62.4117L557.577 61.1798L556.09 60.8397L555.589 60.4488L555.835 58.8862L555.07 58.2915L553.965 58.0366L551.584 55.7427L548.354 55.5316L546.611 55.3605L544.954 57.1446L543.549 60.0768Z" fill="#0A0A08" stroke="black" stroke-width="0.366477"/>
<path d="M542.933 85.2306L542.032 86.4021L542.092 87.2132C542.092 87.2132 542.123 88.2944 542.182 88.4447C542.242 88.5947 542.423 89.8864 542.423 90.0366C542.423 90.1866 542.302 92.0792 542.302 92.0792L542.092 93.3708L541.912 94.302C541.912 94.302 541.761 94.7525 541.731 94.9027C541.7 95.0527 541.7 95.8939 541.7 95.8939L541.61 96.9753H541.941L542.091 95.6536L542.602 94.9627L542.962 93.551L543.143 92.4096L543.473 90.8477L543.442 89.7663L543.923 88.5047L544.164 87.7838L544.795 86.9428L545.306 86.1618L545.426 85.4709L545.884 83.8659L546.749 82.0166L547.019 81.4159L547.169 80.3947L547.379 79.6137L547.5 78.5624L547.8 77.5411L548.041 76.64L548.732 75.9491L549.153 74.9879L548.442 75.2648L547.55 75.7794C546.938 75.8693 545.533 76.5473 545.736 76.5169L545.248 77.3665L544.78 78.1311L545.248 80.2126L545.885 83.8658L545.46 84.8428L544.1 84.7154L542.933 85.2306Z" fill="#0A0A08" stroke="black" stroke-width="0.366477"/>
<path d="M542.951 62.4994L542.91 61.9047L542.935 61.2909L543.591 61.2236L544.709 61.8916L545.52 62.5224L545.009 62.5826L544.228 62.3724L543.747 62.3124L542.951 62.4994Z" fill="#0A0A08" stroke="black" stroke-width="0.366477"/>
<path d="M547.242 73.0932C548.322 73.0238 548.181 72.8671 548.323 72.7572C548.439 72.6529 548.72 72.4412 548.67 72.4438L549.081 71.9804C547.519 72.1365 548.214 70.806 546.514 71.1743C546.514 71.1743 545.845 70.8249 545.808 70.8115C545.551 70.5988 544.945 70.6667 544.946 70.6826L544.504 70.6466C544.504 70.6466 544.174 70.4447 544.217 70.5793C544.258 70.7129 544.186 71.3144 544.181 71.3509C544.177 71.3868 544.16 71.7269 544.201 71.8425C545.053 73.4011 546.553 73.3868 547.239 73.0937L547.242 73.0932Z" fill="#E448BE" stroke="black" stroke-width="0.321231"/>
<path d="M544.623 71.8173L545.426 72.309C545.406 72.4687 546.114 72.5946 546.203 72.5653C546.283 72.6115 547.206 72.7678 547.206 72.7678C547.206 72.7678 547.957 72.5494 547.962 72.5129C547.967 72.4769 548.609 72.067 548.609 72.067C548.347 71.8892 547.266 71.8106 546.822 71.6092C546.348 71.8383 545.974 71.5938 545.805 71.432L545.288 71.1704C544.479 71.1396 544.92 71.2352 544.463 71.1807L544.623 71.8173Z" fill="white" stroke="black" stroke-width="0.321231"/>
<path d="M549.153 74.9879L549.335 76.1293L548.915 76.7902L548.494 77.5712C548.494 77.5712 548.344 78.3521 548.344 78.4722C548.344 78.5924 548.494 79.3433 548.494 79.4635C548.494 79.5837 548.463 80.5148 548.463 80.5148L548.403 81.2957C548.403 81.2957 548.523 81.8964 548.823 81.8364C549.124 81.7763 550.687 81.6864 550.807 81.6263C550.927 81.5662 551.74 81.6849 551.74 81.6849L552.341 80.6335L554.385 78.6211L556.369 76.8789L558.321 73.9066L557.93 72.7051L558.261 71.0531L558.591 70.4223L560.066 69.73L561.508 67.9879L561.929 65.7951L561.599 64.4435L560.818 63.0917L560.487 62.8215L558.721 63.8998C557.605 64.5211 557.412 65.9948 556.851 67.1284C556.973 67.4598 556.62 68.3022 555.577 69.8894L555.279 70.824L553.757 72.8249L550.305 74.8167L549.153 74.9879Z" fill="#CD7E57" stroke="black" stroke-width="0.366477"/>
<path d="M558.171 67.9894L558.983 67.9586L559.914 67.8686L560.455 67.5383L560.876 66.2467L560.726 65.3756L560.757 64.8952" stroke="#363636" stroke-width="0.366477"/>
<path d="M559.103 67.8992L558.742 67.3585L558.711 66.7277L558.651 66.187L558.832 65.8865L559.463 65.7966L560.725 65.3753L560.876 66.2464L560.455 67.538L559.103 67.8992Z" fill="#BB765B" stroke="black" stroke-width="0.366477"/>
<path d="M548.403 81.2958L548.464 79.7639L548.223 78.4723L548.493 77.5713L548.914 76.7903L549.335 76.1294L548.732 75.9491L548.041 76.6399L547.499 78.5624L547.169 80.3947L547.019 81.4159L545.885 83.8658L545.305 86.1618L544.163 87.7838L543.442 89.7663L543.473 90.8477L543.354 92.3495L542.961 93.5509L542.601 94.9627L542.09 95.6536L541.94 96.9753H541.609L541.911 94.3019L542.301 92.0792L542.392 90.0366L541.58 91.5385L541.159 92.9803C541.159 92.9803 540.588 94.3019 540.588 94.4521C540.588 94.6021 540.168 95.9239 540.137 96.1642C540.106 96.4046 539.656 97.6961 539.626 98.0566C539.595 98.4172 539.356 99.7688 539.356 99.7688C539.356 99.7688 539.115 100.67 539.115 100.82C539.115 100.97 538.965 102.772 538.965 102.772L538.725 105.055L538.756 107.158L538.545 110.402L538.245 112.745L538.214 114.367L538.154 115.959L538.364 117.13L538.755 118.332L539.596 119.353L540.588 118.903L542.241 118.752C542.241 118.752 544.104 118.632 544.285 118.542C544.465 118.452 546.118 117.942 546.118 117.942L547.14 117.191L548.703 116.77L550.115 116.29L551.017 115.929L551.468 115.208L551.798 114.037C551.798 114.037 551.919 113.556 552.008 113.406C552.098 113.256 552.459 112.805 552.459 112.805L552.88 112.174C552.88 112.174 553.121 111.543 553.121 111.363C553.121 111.183 553.391 110.372 553.391 110.372L553.632 109.351L553.493 106.847L553.408 105.19L553.323 103.618L553.196 102.089L553.068 100.432L553.11 98.5209V97.1616L553.237 95.7173L554.13 94.8677L556.34 94.4006H558.338L559.783 94.5281L560.718 95.0803L560.677 96.3972L560.592 98.6911L560.337 101.707V103.704L560.252 105.275L560.124 106.805L559.997 108.844L559.615 110.628L559.147 112.454L558.765 113.644H559.742L561.23 113.092L561.74 112.582L562.335 112.114C562.335 112.114 562.718 110.585 562.718 110.415C562.718 110.245 562.463 108.206 562.463 107.994V104.511L562.378 102.684L562.25 100.348L562.209 98.1386L562.25 96.0997V94.0607L562.505 91.8942L562.42 88.326L562.505 85.7347L562.464 84.0781L562.505 82.124L562.165 77.4938L561.298 76.5487L560.216 77.0594L560.036 77.9605L558.654 78.2909L557.512 79.7327L555.648 80.9944L551.801 85.0492L551.05 85.1391L549.457 88.2931L548.044 90.6059L547.563 92.6184L547.172 95.0514L547.473 96.9138L546.601 97.6649L546.091 99.5874L545.82 96.824L545.7 96.1332L546.001 95.5023L546.392 95.1417L546.932 92.4083L547.835 88.4434L548.225 87.362L550.209 83.9077L551.741 81.685C551.426 81.7878 550.83 81.7004 550.253 81.7692C549.261 81.8915 548.263 82.0483 548.403 81.2961V81.2958Z" fill="#9D6679" stroke="black" stroke-width="0.366477"/>
<path d="M558.765 113.644L559.997 108.844L560.395 104.425L560.456 100.97L560.666 97.0654L560.718 95.0803L559.783 94.5281L558.337 94.4006H556.34L554.13 94.8677L553.237 95.7172L553.068 100.432L553.632 109.351L552.88 112.174L552.01 113.316L551.468 115.208L551.017 115.929L550.447 118.572L549.906 120.525L549.426 122.297C549.426 122.297 549.035 123.769 549.005 123.919C548.974 124.069 548.434 125.421 548.434 125.421L548.013 126.412L547.532 127.463L546.961 128.394L546.45 129.506L545.668 130.497L544.887 131.338L544.286 132.149L543.745 132.9L543.174 133.591L542.513 135.003L542.332 135.844L542.152 136.384L542.062 137.045L542.122 137.706L542.091 138.217L541.881 138.727L541.85 139.298L542.03 139.659L541.941 140.41L541.971 141.13L542.092 141.581L542.453 141.911L543.144 142.032L543.775 141.251V141.611L543.835 142.212L544.496 142.603L545.338 142.633L545.789 142.183L546.119 141.492L546.3 142.333C546.3 142.333 546.871 142.302 547.111 142.302C547.352 142.302 548.073 142.032 548.073 142.032L548.313 141.131V140.47L548.614 141.041L549.426 141.072L550.207 140.861L550.838 138.879L550.718 137.437V135.755L550.838 133.833L551.109 132.691L551.409 131.069L552.822 127.765L553.724 125.542L554.505 123.74L555.527 121.938L556.459 119.385L557.51 116.291L558.292 114.278L558.765 113.644Z" fill="#CD7E57" stroke="black" stroke-width="0.366477"/>
<path d="M542.212 89.0754L540.499 89.9465L538.455 90.8476L535.42 91.2082C535.42 91.2082 534.007 91.0582 533.707 90.9678C533.406 90.8779 532.294 90.277 532.294 90.277C532.294 90.277 531.483 88.8652 531.453 88.6549C531.422 88.4448 531.332 86.9128 531.332 86.5223C531.332 86.1318 531.783 83.008 531.783 83.008L532.204 81.0556L533.046 79.043L533.645 78.1309L534.708 79.2353L535.63 80.3947L536.382 81.6563L537.193 82.7076L538.095 84.0292L538.786 83.759L539.387 84.2096L540.469 85.0206L541.933 85.4377L542.934 85.2312L542.032 86.4026L542.212 89.0754Z" fill="#CD7E57" stroke="black" stroke-width="0.366477"/>
<path d="M538.095 84.0293L538.035 85.0504L537.644 86.4021L537.283 87.6637L536.412 88.6849" stroke="#363636" stroke-width="0.366477"/>
<path d="M540.785 83.3133L541.975 82.7183L542.867 83.4405L543.165 83.5678L542.91 84.4171C542.538 84.4376 541.87 84.8219 541.827 84.4376L540.785 83.3133Z" fill="#CD7E57" stroke="black" stroke-width="0.366477"/>
<path d="M534.409 76.4312L534.879 74.9279C534.879 74.9279 535.119 74.0869 535.209 73.9066C535.299 73.7263 535.961 72.4948 535.961 72.4948L536.592 71.3234L537.584 70.3923L538.095 69.8816L538.786 69.6411L539.687 69.1005L540.108 68.4697L540.86 68.3495L541.55 68.6593L542.315 70.2735L542.4 70.7831L542.145 71.1227L541.508 71.1638L540.998 71.4187L540.915 72.6933L541.19 73.6062L540.957 74.2224L540.829 75.0294L540.77 76.1293L540.379 76.8502L539.808 77.3609L539.267 77.7215L538.636 77.8114L538.395 78.2317L538.125 79.0127L537.513 79.9567L536.195 78.2575L534.409 76.4312Z" fill="#CD7E57" stroke="black" stroke-width="0.366477"/>
<path d="M539.596 119.353L539.477 122.507L538.516 124.309C538.516 124.309 538.516 125.991 538.516 126.532C538.516 127.073 538.275 129.235 538.275 129.235L538.155 131.939L537.734 135.303L538.095 137.646L537.854 141.37V142.812L537.493 145.876L537.073 149.781L536.472 154.347V157.41L535.51 160.234L535.149 162.276L534.848 165.22L534.487 169.966L534.066 172.97L533.766 175.373L533.826 177.836L534.126 179.037L536.17 180.479L538.154 181.02L539.837 181.14L541.881 177.956L542.361 175.193L543.383 171.528L543.984 168.704L544.706 165.34L545.307 161.976L545.547 159.874L546.088 158.372L546.749 156.569L547.651 153.926L548.493 156.389L549.635 158.852L549.875 160.594L550.356 163.298L550.176 166.301L550.477 168.344L550.717 173.21L550.537 175.433V177.716L550.177 180.599L550.116 181.801L550.778 182.161L552.16 181.801L553.963 181.981H556.067H557.87L558.592 178.677L559.193 174.111L559.734 165.04C559.734 165.04 559.674 160.294 559.674 160.054C559.674 159.813 558.712 155.789 558.712 155.789C558.712 155.789 558.411 150.983 558.411 150.682C558.411 150.382 558.712 145.996 558.712 145.996L559.313 141.371L560.095 137.586L560.395 135.363L560.636 133.861L562.499 131.098L563.762 128.154L564.182 125.511L564.423 123.168L564.543 121.486L564.483 119.083L564.242 117.461L562.92 114.397L561.74 112.582L559.742 113.644H558.765L558.292 114.279L557.089 117.881L555.527 121.938L553.422 126.352L551.98 129.716L551.409 131.069L550.838 133.833L550.718 137.437L550.838 138.879L550.207 140.861L548.614 141.041L548.313 140.47V141.131L548.073 142.032L546.299 142.333L546.119 141.492L545.788 142.183L544.496 142.603L543.835 142.212L543.775 141.251L543.144 142.032L542.091 141.581L541.94 140.41L542.03 139.659L542.122 137.706L542.512 135.003L543.745 132.9L545.668 130.497L546.45 129.506L547.532 127.463L549.034 124.129L549.876 120.945L550.778 117.581L551.017 115.929L547.14 117.191L546.118 117.942L544.406 118.302L542.783 118.723L540.588 118.903L539.596 119.353Z" fill="#0A3E7D" stroke="black" stroke-width="0.366477"/>
<path d="M547.651 153.926L547.756 151.875C547.756 151.875 547.756 150.431 547.797 150.006C547.838 149.581 548.095 148.476 548.137 148.094C548.178 147.712 548.519 146.607 548.647 146.352C548.774 146.098 549.922 142.827 549.922 142.827L551.027 140.575L552.047 137.942L552.982 136.455L554.087 134.543L555.66 133.184L556.935 132.547L558.975 132.462" stroke="#1A1A1A" stroke-width="0.366477"/>
<path d="M550.116 181.801L549.876 183.483L547.953 183.783H546.751L545.248 184.264L544.707 184.804L544.827 186.607L544.887 188.168L545.609 188.349L547.472 188.889L549.997 189.67L552.521 190.812L554.926 191.533H556.428L557.931 190.932L558.592 189.61L558.953 189.07L558.352 188.108L557.871 187.568L557.571 186.186V184.444L557.751 183.303L557.871 181.981H553.964L552.161 181.801L550.778 182.161L550.116 181.801Z" fill="#CD7E57" stroke="black" stroke-width="0.366477"/>
<path d="M534.126 179.037L531.843 178.737L530.401 178.857L529.559 179.278L528.357 179.939L527.515 180.599L526.253 182.101L525.592 183.062L525.351 183.843L525.952 185.225L526.794 187.027C526.794 187.027 527.936 187.568 528.176 187.868C528.417 188.169 530.581 189.37 530.581 189.37L534.112 190.276L535.09 189.554L535.557 189.681L535.813 190.531L536.705 192.655L538.636 192.434L539.958 191.593L541.04 190.331L541.461 189.01L541.16 186.607L539.958 184.685L539.837 186.126L540.078 188.469L539.176 189.491L537.854 190.392L535.813 190.531L535.09 189.554L535.813 190.531L535.558 189.681L535.089 189.554L533.406 188.95L532.564 187.808L530.641 186.186L531.122 184.204L532.624 181.44L534.126 179.037Z" fill="#9D6679" stroke="black" stroke-width="0.366477"/>
<path d="M550.116 181.801C549.564 182.356 548.979 182.621 548.313 182.161L546.33 181.86H544.887L543.805 182.221C542.76 182.33 542.476 182.596 542.097 182.877C541.182 183.12 540.667 184.183 539.958 184.684L541.16 186.607L541.461 189.009L543.024 190.571L544.707 191.232L546.209 191.773L548.614 192.554C548.614 192.554 550.297 193.275 550.958 193.515C551.619 193.755 554.084 194.056 554.084 194.056L556.729 194.236C558.348 194.57 559.38 193.332 559.494 192.134L559.614 190.752C559.604 189.195 558.613 188.721 558.953 189.07L557.931 190.932L556.428 191.533H554.926L552.521 190.812L549.997 189.671L544.887 188.169L544.707 184.804L546.751 183.783H547.953L549.876 183.483L550.116 181.801Z" fill="#9D6679" stroke="black" stroke-width="0.366477"/>
<path d="M534.126 179.037L533.346 180.419L532.625 181.44L531.843 182.762L531.122 184.204L530.821 185.525L530.641 186.186L531.302 187.027L532.564 187.808L533.406 188.95L535.09 189.554L535.558 189.681L535.812 190.531L537.854 190.392L539.176 189.491L540.078 188.469L539.837 186.126L539.958 184.684L539.898 182.822L539.836 181.14L538.153 181.02L536.17 180.479L534.126 179.037Z" fill="#CD7E57" stroke="black" stroke-width="0.366477"/>
<path d="M487.042 27.0951L487.953 29.4011L488.682 31.6465L489.107 32.132L489.228 30.1294L488.378 27.0345L488.135 25.9422L487.892 24.3036V22.9079L488.013 21.4515L488.317 20.9053L489.471 21.3302L490.564 21.8157L491.414 21.9976L491.475 21.33V20.9051L492.264 20.4803L493.782 19.57L493.903 18.9024L494.511 18.1136L496.271 17.871L496.879 18.1742L498.275 17.6281L499.429 17.7493L500.461 18.7202L501.068 19.8732L501.554 20.1769L502.586 19.752L503.315 20.1769L503.983 21.0265V21.876L503.922 22.7864L504.226 23.6359L504.347 24.5462L504.833 25.2744L504.894 25.7599L504.772 26.4881L504.833 28.3693V29.6437C504.833 29.6437 505.076 29.8862 505.076 30.3113C505.076 30.7361 505.501 32.9207 505.501 32.9207L505.319 34.4985L504.469 36.5011L503.923 37.5934L503.194 38.9891L502.769 40.8703L502.283 41.9626L499.976 42.5695L497.729 41.8413L496.029 40.6276L493.965 38.7464L490.382 36.137L489.046 34.1343L488.378 32.4352L487.042 27.0951Z" fill="#CD7E57" stroke="black" stroke-width="0.366477"/>
<path d="M486.556 36.3801L484.606 36.3595L484.434 36.6169L484.262 37.6468L484.133 39.5777L484.219 40.1356L483.446 40.9938L482.459 41.3802C482.459 41.3802 480.87 41.8092 480.784 42.0667C480.698 42.3241 479.067 44.7701 479.067 44.7701L477.865 46.4007C477.865 46.4007 477.264 47.688 477.221 47.8597C477.179 48.0313 476.877 48.9753 476.877 49.2757C476.877 49.5762 476.576 52.3223 476.576 52.3223C476.576 52.3223 476.448 54.5537 476.362 54.7253C476.276 54.8969 476.19 56.4418 476.104 56.828C476.018 57.2143 475.675 59.0164 475.675 59.188C475.675 59.3596 475.503 60.9473 475.46 61.2906C475.419 61.6338 475.202 63.522 475.202 63.522L475.031 64.6376L474.859 67.2122L474.558 70.1731L474.472 73.4343L474.301 77.2533V80.6003V87.466L474 93.9884V100.854V104.287L474.172 111.067V114.5L474.086 115.572L475.717 116.173L477.95 116.431L480.827 117.031L483.918 116.816L485.721 116.559L487.696 115.958C487.696 115.958 488.984 115.615 489.113 115.443C489.242 115.272 490.745 114.242 490.745 114.242L492.419 112.826L494.051 111.41L495.382 110.552L496.67 110.079L498.602 110.552L500.319 110.981L502.337 111.753L505.343 112.997L507.962 113.598C507.962 113.598 508.949 113.639 509.121 113.639C509.293 113.639 510.195 113.511 510.195 113.511L510.324 111.237L510.282 108.061L510.324 105.315V101.753C510.324 101.753 510.581 99.0929 510.581 98.8784C510.581 98.6636 509.594 95.6601 509.594 95.6601L509.25 92.9996L508.821 90.5538L508.907 88.2366L508.22 83.216L507.619 77.2944L507.49 75.1918L507.361 74.3336L505.644 76.3074L502.896 78.2384L500.363 79.9978L497.658 81.5854L495.425 82.8298L492.677 84.203L489.972 84.8467L487.525 85.4903H485.249L484.262 84.5463L483.575 82.5294L483.146 80.8989L482.931 79.9119L483.961 79.8708L485.507 80.1714L487.697 79.6564L490.273 78.7553L491.647 77.7684L493.149 76.996L493.579 76.2665L493.879 75.7516V74.7647L493.708 73.8635L496.499 72.8337L498.903 71.8039L500.706 70.774L502.252 69.5725L503.841 68.6284L505.257 67.427L506.245 66.6117L507.018 65.2385L507.361 64.037L507.662 61.9774L507.748 59.5744L507.232 56.7852L506.674 54.2535L505.816 52.3654L505.086 50.606L504.785 49.0613L504.356 47.5594L503.926 46.4437L502.08 45.3281L499.461 43.7833L497.789 43.2374L496.21 41.9629L493.88 40.6079L492.978 39.621L491.049 38.3218L490.017 37.5936L487.102 36.9868L486.556 36.3801Z" fill="#4380A4" stroke="black" stroke-width="0.366477"/>
<path d="M483.232 47.2591L483.447 49.1472C483.447 49.1472 482.931 50.649 482.931 50.9065C482.931 51.1639 483.275 52.7087 483.189 53.052C483.103 53.3952 482.845 54.3393 482.845 55.0259C482.845 55.7125 482.804 56.7423 482.804 57.0856C482.804 57.4288 482.719 58.8879 482.719 59.1024C482.719 59.3172 482.633 60.2181 482.633 60.3897C482.633 60.5613 482.633 61.5912 482.719 61.8916C482.804 62.1921 482.976 62.5782 482.976 63.0073C482.976 63.4363 482.804 64.08 482.804 64.2517C482.804 64.4233 482.547 65.3244 482.504 65.6248C482.463 65.9254 481.988 67.1696 481.988 67.5987C481.988 68.0277 482.03 68.6285 481.903 69.0576C481.774 69.4866 481.216 69.7442 481.044 69.9588C480.872 70.1735 480.615 70.6453 480.571 70.9886C480.53 71.3318 480.442 72.0185 480.7 72.4905C480.958 72.9626 481.001 73.1341 481.302 73.7778C481.602 74.4215 481.946 74.0352 482.074 74.8506C482.203 75.6658 482.246 75.8375 482.332 76.3953C482.418 76.9531 482.675 78.6267 482.675 78.8412C482.675 79.056 482.932 79.9118 482.932 79.9118L483.963 79.8708L486.84 79.9118L489.201 79.1824L491.648 77.7662L493.151 76.9938L493.881 75.7495L493.709 73.8614L494.139 72.4884L494.225 71.8447C494.225 71.8447 495.127 70.8577 495.255 70.6861C495.384 70.5145 495.856 67.5107 495.856 67.5107C495.856 67.5107 496.758 64.979 496.758 64.5499C496.758 64.1209 497.059 60.2589 497.059 60.2589C497.059 60.2589 497.316 58.1991 497.274 57.8129C497.233 57.4266 496.887 55.2383 496.887 54.938C496.887 54.6374 496.458 51.5051 496.458 51.5051L496.157 49.5312L496.243 48.8018" stroke="black" stroke-width="0.366477"/>
<path d="M506.245 66.6118L507.34 65.5175L507.908 65.3654L508.342 64.9313L508.796 64.6693L509.165 64.4663L510.195 64.3805L511.483 64.5953L511.698 64.9385L511.956 65.6679L512.772 66.0969L513.373 66.4401C513.373 66.4401 513.414 66.1827 513.459 66.7406C513.5 67.2985 513.545 67.8563 513.545 67.8563L513.503 68.9291L513.804 69.444L513.976 69.9589L513.935 70.3453L513.634 70.6458L513.291 71.2466L513.505 71.7615V72.4481L513.547 72.8771L513.632 73.4349L513.031 73.8213L511.958 74.0787H511.056L510.24 73.7781L509.296 73.3918L508.265 73.8208L507.364 74.3335L505.646 76.3073L504.272 77.3394L502.813 78.5409L500.365 79.9977L496.501 82.274L492.68 84.2029L487.527 85.4902H485.252L484.264 84.5462L482.933 79.9118L483.964 79.8708L485.509 80.1713L489.204 79.1824L491.649 77.7683L493.153 76.9938L493.883 75.7495L493.71 73.8634L496.973 72.705L500.709 70.7739L502.254 69.5724L503.843 68.6284L506.245 66.6118Z" fill="#CD7E57" stroke="black" stroke-width="0.366477"/>
<path d="M485.721 116.559L485.722 117.718C485.722 117.718 485.894 119.349 485.894 119.563C485.894 119.778 485.765 122.396 485.765 122.61C485.765 122.825 485.894 125.485 485.894 125.485C485.894 125.485 485.935 127.373 486.023 127.759C486.108 128.146 486.409 130.591 486.452 130.806C486.493 131.021 486.58 133.509 486.538 133.724C486.497 133.939 486.366 136.256 486.366 136.47C486.366 136.685 486.238 139.131 486.238 139.131L485.765 143.035V144.966L485.035 146.726L484.994 148.442L484.565 149.644L484.136 151.446L483.878 152.948L484.093 156.252L484.522 161.573L484.436 164.619L484.737 167.194V169.983L484.823 171.871L484.952 173.631L485.081 175.562V176.677L487.056 177.235L488.645 177.194L490.663 176.937L492.938 176.25L494.355 175.692L495.128 175.263L495.087 171.787L495.344 168.827L495.173 164.493L495.302 162.819L495.946 159.73L496.246 156.082V154.151L497.191 150.675L497.706 148.573L498.393 147.157L499.037 145.312L499.381 143.724L500.497 139.347L501.227 140.506L501.914 142.265L502.858 144.797L502.987 146.17L504.061 149.946L504.02 151.834L504.105 154.366L504.191 157.498C504.191 157.498 504.062 159.515 504.105 159.687C504.147 159.858 504.105 162.304 504.105 162.476C504.105 162.648 504.449 164.364 504.449 164.793C504.449 165.222 504.75 167.11 504.835 167.282C504.921 167.453 505.394 169.642 505.394 169.642L506.768 175.778L507.154 177.924L507.97 180.284L508.485 182.043C508.485 182.043 508.958 183.545 508.958 183.716C508.958 183.888 509.043 184.875 509.043 184.875L509.215 185.261H511.147L513.552 184.833L516.299 183.931L518.017 183.03L518.661 182.258L518.188 180.37L517.802 177.795L517.63 174.663L517.244 169.728L516.857 165.909L516.943 163.077L517.115 160.502L516.728 154.409L517.071 150.075L517.157 143.338L515.483 137.373L514.495 133.426L513.379 128.062L511.919 120.596L511.063 117.634L509.83 113.951L507.968 113.6L505.349 113L500.326 110.983L496.676 110.082L495.388 110.554L493.328 112.142L491.482 113.73L489.077 115.446L488.047 115.875L485.721 116.559Z" fill="#030406" stroke="black" stroke-width="1.93927"/>
<path d="M500.497 139.347L498.774 135.483C498.774 135.483 498.002 133.338 497.959 133.166C497.917 132.994 496.928 130.334 496.928 130.334L495.125 127.116L494.781 125.356L494.137 123.897L493.536 122.567" stroke="#363636" stroke-width="0.366477"/>
<g filter="url(#filter1_f)">
<path d="M502.089 30.6228L502.508 31.675L503.019 32.3969C503.345 33.893 503.034 34.4568 501.578 34.4983L500.917 34.168L500.196 34.0781L499.835 34.2882C498.933 34.8038 498.698 34.0693 498.362 33.4168V32.4556" stroke="#513535" stroke-width="0.366477"/>
</g>
<path d="M498.002 26.9432L498.458 26.4577V26.1844L497.911 26.0632L496.636 25.4867L495.452 25.2745L494.055 25.3053L493.053 25.6393L492.628 26.3371L493.448 26.1552L494.177 25.8213H495.027L496.089 25.8521L497.122 26.3073L498.002 26.9432Z" fill="#020504" stroke="black" stroke-width="0.366477"/>
<path d="M501.554 26.7917L502.313 25.8815L502.92 25.2139L503.71 24.8193L504.347 24.546L504.833 25.2742L504.894 25.7598C504.894 25.7598 504.226 25.9118 504.044 25.8507C503.862 25.7901 503.072 25.9719 503.072 25.9719L502.677 26.4877L501.554 26.7917Z" fill="#020504" stroke="black" stroke-width="0.366477"/>
<path d="M497.911 28.7336L497.516 29.0979L497.182 29.5834L496.666 29.7046L495.755 29.4621L495.118 29.3409L494.541 29.1893L494.267 28.7038L494.298 28.188C494.298 28.188 494.572 28.0971 494.693 28.0667C494.814 28.0359 495.877 27.9152 495.877 27.9152L496.727 27.9758L497.243 28.0364L497.911 28.7336Z" fill="white" stroke="black" stroke-width="0.366477"/>
<path d="M494.966 28.3391L495.189 28.0139L495.877 27.9152L496.413 28.1429L496.499 28.4002L496.391 28.8076L496.22 29.1508L495.755 29.4622L495.117 29.341L494.966 28.3391Z" fill="#020504" stroke="black" stroke-width="0.366477"/>
<path d="M501.941 28.7166L503.197 29.0223L503.712 28.8934L504.141 28.8076L504.27 28.2068L504.098 27.4344L503.969 27.2196L503.454 27.1338L503.068 27.3486L502.509 27.606L502.166 27.8634L502.037 28.2924L501.941 28.7166Z" fill="white" stroke="black" stroke-width="0.366477"/>
<path d="M502.86 27.6412L503.133 27.8837L503.209 28.2325L503.178 28.5814L502.966 28.7633H502.693L502.465 28.6569L502.374 28.4293L502.333 27.9921L502.86 27.6412Z" fill="black" stroke="black" stroke-width="0.366477"/>
<path d="M496.423 37.4418L497.759 38.3217C497.759 38.3217 498.579 38.7769 498.761 38.9589C498.943 39.1408 499.49 39.5657 499.49 39.5657C499.49 39.5657 500.552 39.8997 500.674 39.8694C500.795 39.8386 501.645 39.2626 501.645 39.2626L502.344 38.2309L503.042 36.9869L503.254 36.5923L503.042 36.3498L502.04 36.1679C502.04 36.1679 500.795 36.0164 500.643 36.0164C500.492 36.0164 499.034 36.1679 499.034 36.1679L497.881 36.5322H496.939H496.332L496.09 36.7747L496.423 37.4418Z" fill="#F672D6" stroke="black" stroke-width="0.366477"/>
<path d="M497.186 37.1545L498.045 37.8839L498.817 38.0987C499.975 38.8177 500.178 38.6382 501.329 38.2487C501.784 37.8921 501.785 37.9096 501.78 37.9055L502.166 37.3906L502.402 36.8327L502.596 36.5753L502.402 36.8327L500.792 36.4243L499.869 36.5317C499.256 36.5522 499.041 37.1528 498.052 37.0472L497.186 37.1545Z" fill="white" stroke="black" stroke-width="0.366477"/>
<path d="M502.402 36.8327L501.63 37.2396L501.028 37.497L500.213 37.626L499.161 37.5848L498.967 37.3917" stroke="black" stroke-width="0.366477"/>
<path d="M487.042 27.095L485.888 26.0027L484.856 25.7597H483.885V25.0315L484.249 24.0605L484.674 23.393L484.128 22.7255C484.128 22.7255 483.339 22.1793 483.339 22.5436C483.339 22.9078 483.339 24.1214 483.339 24.1214L483.096 24.6069L482.914 25.1531L482.489 23.8787L481.396 23.0291C481.396 23.0291 481.153 23.0897 481.153 23.5146C481.153 23.9395 481.213 24.9103 481.213 24.9103L480.12 24H479.453L478.42 23.6964L477.388 22.7862L476.538 20.7836L476.173 17.9921L475.93 15.2613L476.052 13.1373L476.72 11.2561V8.88936L477.387 7.37227L477.995 6.58339L480.423 4.5201L481.577 4.4595L482.549 4.15584L482.852 2.8815L483.095 1.97123L484.005 1.24302L486.191 1L486.556 1.60685L487.345 1.66749C487.345 1.66749 488.499 1.4856 488.802 1.78872C489.106 2.09236 489.592 2.21362 489.592 2.21362L490.867 2.51724L491.778 2.21362L493.478 2.09238L494.024 2.82063L494.935 2.21378L496.392 2.57804C496.392 2.57804 497.425 3.06354 497.485 3.30624C497.546 3.54874 497.485 3.85242 497.546 4.1558C497.607 4.45943 498.76 4.76265 498.76 4.76265L500.157 5.24818L500.4 6.64395L500.521 7.37215L501.736 7.43279L502.768 8.10032L502.586 9.55677L503.254 10.2243L503.8 10.5279L503.011 11.3775L503.254 11.863L503.861 12.5912L503.801 14.169L503.436 15.2006L502.526 14.5331L501.615 14.3512L500.947 14.8367L501.251 15.8077L501.858 16.8393L502.404 18.235L503.983 21.0263L502.586 19.7519L501.554 20.1768L500.461 18.7201L499.429 17.7492L498.275 17.6279L496.879 18.1741L496.271 17.871L494.511 18.1135L493.782 19.5699L491.475 20.9051L491.414 21.9975L489.471 21.3301L488.317 20.9052L488.014 21.4514L487.892 24.3035L489.228 30.1292L489.107 32.1319L488.682 31.6464L487.042 27.095Z" fill="#020504" stroke="black" stroke-width="0.366477"/>
<path d="M484.128 22.7255L485.743 19.0848C487.703 13.4784 493.351 11.3392 497.474 12.7978" stroke="#532F5A" stroke-width="1.46591"/>
<path d="M488.378 32.4351L487.042 27.0951L485.888 26.0028L483.885 25.7597L483.338 27.6412L483.52 28.248L483.702 29.1583L483.581 30.2507C483.581 30.2507 483.702 31.2823 484.067 31.4037C484.431 31.5249 484.067 31.7073 484.674 31.8892C485.281 32.0711 486.01 32.4354 486.01 32.4354L486.556 32.739C486.556 32.739 486.556 33.2851 486.556 33.5279C486.556 33.7704 486.556 34.6809 486.556 34.9236C486.556 35.1661 486.556 35.8339 486.556 35.8339V36.3801L487.103 36.9869L490.017 37.5937L491.049 38.322C491.049 38.322 491.293 38.9895 492.264 39.4143C493.235 39.8392 493.721 40.628 494.025 40.81C494.328 40.9919 496.211 41.963 496.211 41.963L496.515 42.3273L497.79 43.2376L497.729 41.8416L496.029 40.628L493.965 38.7467L490.382 36.1373L488.378 32.4351Z" fill="#CD7E57" stroke="black" stroke-width="0.366477"/>
<path d="M486.951 29.2191L487.103 30.4328L487.163 30.9486L486.253 31.5251L485.494 31.1306" stroke="black" stroke-width="0.366477"/>
<path d="M486.253 31.5251L485.069 30.1293L485.038 29.0067L485.493 28.6727L486.192 28.7035L486.951 30.0689L487.163 30.9488L486.253 31.5251Z" fill="#BB765B" stroke="black" stroke-width="0.366477"/>
<path d="M487.042 32.2837L487.467 31.9497L487.771 31.1305L487.953 30.9486" stroke="black" stroke-width="0.366477"/>
<path d="M556.208 63.5186L558.725 63.8983L557.258 69.4854L555.577 69.8892L556.208 63.5186Z" fill="#CD7E57"/>
<defs>
<filter id="filter0_f" x="509.088" y="32.4035" width="11.192" height="11.0917" filterUnits="userSpaceOnUse" color-interpolation-filters="sRGB">
<feFlood flood-opacity="0" result="BackgroundImageFix"/>
<feBlend mode="normal" in="SourceGraphic" in2="BackgroundImageFix" result="shape"/>
<feGaussianBlur stdDeviation="0.0452714" result="effect1_foregroundBlur"/>
</filter>
<filter id="filter1_f" x="498.117" y="30.4929" width="5.26531" height="4.25206" filterUnits="userSpaceOnUse" color-interpolation-filters="sRGB">
<feFlood flood-opacity="0" result="BackgroundImageFix"/>
<feBlend mode="normal" in="SourceGraphic" in2="BackgroundImageFix" result="shape"/>
<feGaussianBlur stdDeviation="0.031056" result="effect1_foregroundBlur"/>
</filter>
</defs>
</svg>
