<svg width="23" height="22" viewBox="0 0 23 22" fill="none" xmlns="http://www.w3.org/2000/svg">
<path d="M20.4375 0.5H2.5625C1.42383 0.5 0.5 1.50781 0.5 2.75V19.25C0.5 20.4922 1.42383 21.5 2.5625 21.5H20.4375C21.5762 21.5 22.5 20.4922 22.5 19.25V2.75C22.5 1.50781 21.5762 0.5 20.4375 0.5ZM16.8453 14.1172C17.0516 14.3422 17.0516 14.7078 16.8453 14.9328L15.1051 16.8312C14.8988 17.0562 14.5637 17.0562 14.3574 16.8312L11.5 13.6859L8.64258 16.8312C8.43633 17.0562 8.10117 17.0562 7.89492 16.8312L6.15469 14.9328C5.94844 14.7078 5.94844 14.3422 6.15469 14.1172L9.03789 11L6.15469 7.88281C5.94844 7.65781 5.94844 7.29219 6.15469 7.06719L7.89492 5.16875C8.10117 4.94375 8.43633 4.94375 8.64258 5.16875L11.5 8.31406L14.3574 5.16875C14.5637 4.94375 14.8988 4.94375 15.1051 5.16875L16.8453 7.06719C17.0516 7.29219 17.0516 7.65781 16.8453 7.88281L13.9621 11L16.8453 14.1172Z" fill="black"/>
</svg>
