<svg width="573" height="434" viewBox="0 0 573 434" fill="none" xmlns="http://www.w3.org/2000/svg">
<path d="M572.57 193.492V194.65C572.543 197.559 572.459 200.455 572.318 203.338C569.785 252.671 548.306 299.176 512.281 333.323C476.257 367.47 428.416 386.673 378.562 386.996C328.709 387.319 280.618 368.738 244.146 335.061C207.674 301.384 185.583 255.161 182.399 205.865C182.133 201.771 182 197.647 182 193.492C181.93 153.417 194.483 114.318 217.909 81.6487C219.782 79.0161 221.73 76.4319 223.754 73.8959C225.149 72.1321 226.584 70.4078 228.032 68.6966C260.998 30.0015 307.957 5.64979 358.836 0.866041C409.714 -3.9177 460.459 11.2476 500.182 43.1084C502.533 44.9906 504.845 46.9387 507.103 48.9262C508.91 50.519 510.686 52.1468 512.43 53.8096C546.792 86.3758 567.942 130.272 571.893 177.223C572.344 182.593 572.57 188.016 572.57 193.492Z" fill="#6C63FF"/>
<path d="M223.68 73.6494C223.776 73.6892 223.865 73.7422 223.945 73.807C224.993 74.6607 223.68 76.3023 223.839 77.6551C224.025 79.3887 226.359 79.7695 228.123 79.9402C229.886 80.1241 232.114 81.5294 231.279 83.0791C226.85 84.5894 222.367 83.1053 217.845 81.3849C194.461 113.981 181.93 152.992 182 192.978C182 197.128 182.133 201.243 182.398 205.323C182.769 205.591 183.175 205.807 183.605 205.966C184.931 206.465 186.469 206.373 187.689 207.083C188.657 207.647 189.307 208.646 190.275 209.171C193.047 210.668 196.893 207.792 199.479 209.578C200.147 210.181 200.78 210.821 201.375 211.495C203.762 213.544 207.687 212.165 210.445 213.702C212.222 214.687 213.138 216.657 214.092 218.443C216.466 222.908 220.312 227.295 225.391 227.649C226.993 227.576 228.598 227.629 230.191 227.807C231.756 228.161 233.295 229.514 233.043 231.077C232.605 233.769 233.944 236.711 233.586 239.403C232.937 244.328 225.895 246.482 225.298 251.407C225.296 252.491 225.234 253.574 225.112 254.651C224.794 255.938 223.813 256.989 223.468 258.276C222.805 260.706 224.569 263.135 226.492 264.764C228.428 266.405 230.735 267.824 231.796 270.109C232.91 272.539 232.366 275.362 232.724 278.002C233.52 283.767 238.546 288.036 243.718 290.794C245.375 291.48 246.847 292.541 248.014 293.893C249.341 295.797 249.208 298.306 249.659 300.578C250.746 306.133 255.467 310.717 255.6 316.377C255.693 320.409 253.438 324.06 252.086 327.855C250.694 331.834 250.281 336.084 250.879 340.253C258.44 346.604 266.477 352.378 274.921 357.523C275.381 356.851 275.717 356.104 275.916 355.317C276.076 354.446 275.966 353.548 275.599 352.741C275.232 351.934 274.625 351.257 273.861 350.799C275.286 350.266 276.582 349.443 277.667 348.383C278.199 347.84 278.551 347.149 278.674 346.402C278.798 345.655 278.687 344.889 278.356 344.206C280.69 344.495 283.462 344.64 285 342.867C286.233 341.448 286.154 339.321 285.663 337.521C285.172 335.709 284.35 333.962 284.337 332.084C289.744 332.345 295.164 332.165 300.542 331.546C299.764 328.948 297.994 326.753 295.609 325.426C298.049 325.019 300.264 322.129 301.033 319.805C301.698 317.433 301.734 314.932 301.139 312.542C300.954 311.928 300.927 311.278 301.059 310.651C301.452 309.818 302.141 309.158 302.995 308.799C307.027 306.501 311.058 304.207 315.09 301.917C315.809 301.558 316.463 301.083 317.026 300.512C318.286 299.028 318.1 296.809 317.45 294.983C316.8 293.158 315.766 291.437 315.514 289.52C314.771 283.78 320.978 279.657 323.073 274.246C323.785 272.086 324.17 269.833 324.213 267.561C324.386 265.118 324.399 262.295 322.516 260.732C320.699 259.221 317.874 259.563 315.978 258.158C314.241 256.871 313.644 254.388 311.748 253.351C310.024 252.405 307.876 253.009 305.953 252.563C302.584 251.788 300.463 247.94 297.015 247.585C295.078 247.375 292.877 248.321 291.286 247.205C289.88 246.206 289.827 244.223 289.562 242.542C289.091 239.924 287.822 237.511 285.925 235.628C284.029 233.745 281.596 232.482 278.953 232.009C276.95 231.694 274.776 231.812 273.065 230.722C271.341 229.619 270.559 227.557 269.193 226.021C267.018 223.565 263.57 222.685 260.347 221.936C255.971 220.925 251.599 219.909 247.232 218.889C244.911 218.338 241.914 218.049 240.655 220.071C240.282 220.84 240.023 221.659 239.885 222.501C239.412 224.017 238.467 225.346 237.186 226.298C235.905 227.251 234.353 227.779 232.751 227.807C231.654 225.952 229.878 224.588 227.791 223.998C226.428 223.772 225.081 223.456 223.76 223.053C223.07 222.718 222.456 222.247 221.956 221.669C221.456 221.092 221.08 220.419 220.852 219.692C220.623 218.966 220.547 218.201 220.628 217.444C220.708 216.687 220.944 215.954 221.32 215.291C222.072 213.958 222.361 212.418 222.143 210.906C221.925 209.395 221.212 207.996 220.113 206.925C217.885 204.942 214.663 204.456 211.666 204.653C210.883 202.959 212.196 201.055 213.602 199.82C215.021 198.599 216.731 197.39 217.036 195.552C217.527 192.662 213.801 190.469 210.976 191.323C208.151 192.19 206.348 194.908 205.154 197.587C204.575 199.168 203.786 200.666 202.807 202.04C202.305 202.719 201.624 203.248 200.837 203.568C200.051 203.888 199.191 203.986 198.351 203.852C196.017 203.261 195.129 200.516 194.612 198.205C193.783 195.115 193.364 191.932 193.365 188.736C193.385 185.508 194.68 182.415 196.972 180.12C200.831 176.601 206.772 176.942 211.984 177.507C211.426 176.769 211.158 175.856 211.231 174.937C211.304 174.018 211.713 173.158 212.382 172.516C213.079 171.903 213.917 171.467 214.823 171.248C215.729 171.028 216.675 171.031 217.58 171.255C219.151 171.578 220.567 172.415 221.598 173.632C223.083 175.419 223.508 177.848 224.622 179.871C225.749 181.906 228.269 183.64 230.324 182.55C232.114 181.604 232.393 179.161 231.955 177.205C231.504 175.261 230.563 173.357 230.722 171.36C231.027 167.565 235.019 165.267 238.533 163.704C242.047 162.141 246.065 160.026 246.622 156.244C246.648 155.509 246.791 154.782 247.046 154.09C247.435 153.473 247.979 152.966 248.624 152.619C258.875 145.908 269.312 139.105 281.035 135.441C281.645 135.244 281.711 135.454 282.334 135.31C283.21 134.811 282.626 133.432 281.791 132.88C280.955 132.329 279.841 131.895 279.629 130.923C279.483 130.214 279.908 129.505 280.014 128.783C280.041 128.346 279.961 127.91 279.779 127.512C279.596 127.114 279.318 126.766 278.969 126.499C278.619 126.232 278.209 126.054 277.774 125.98C277.339 125.907 276.892 125.94 276.473 126.077C275.531 124.843 277.388 123.411 278.9 122.991C283.426 121.763 288.072 121.014 292.758 120.758C293.299 120.67 293.854 120.762 294.336 121.021C294.68 121.35 294.885 121.798 294.907 122.271C294.929 122.745 294.768 123.209 294.455 123.569C293.817 124.271 293.111 124.908 292.347 125.473C291.586 126.205 291.042 127.13 290.776 128.146C290.509 129.163 290.53 130.233 290.835 131.239C293.288 132.473 295.94 133.747 298.659 133.314C301.364 132.88 303.765 129.86 302.491 127.456C301.311 125.21 297.744 124.698 297.134 122.242C296.418 119.366 300.529 116.805 299.6 113.995C299.203 112.76 297.956 112.025 297.001 111.145C295.878 110.049 295.113 108.644 294.808 107.111C294.503 105.579 294.671 103.992 295.291 102.556C293.738 102.824 292.143 102.721 290.639 102.255C289.135 101.789 287.765 100.974 286.644 99.8765C284.576 97.8145 282.931 94.5444 279.987 94.6494C277.295 94.7282 274.974 97.8408 272.455 96.8952C271.831 96.6588 271.182 96.186 270.585 96.4618C270.388 96.5872 270.223 96.7551 270.101 96.953C269.979 97.151 269.904 97.3737 269.882 97.6044C269.246 100.638 270.346 104.092 268.675 106.719C266.859 109.569 262.655 109.963 260.453 112.537C259.26 113.929 258.796 115.807 257.695 117.278C256.594 118.749 254.274 119.694 252.948 118.407C253.597 117.089 253.775 115.591 253.452 114.159C253.129 112.728 252.325 111.447 251.171 110.527C249.949 109.734 248.63 109.098 247.245 108.636C245.698 107.99 244.227 107.18 242.856 106.22C242.173 105.808 241.617 105.217 241.251 104.513C240.962 103.627 240.999 102.668 241.357 101.807C242.029 99.9103 243.21 98.2307 244.773 96.9487C246.336 95.6667 248.222 94.831 250.229 94.5313C251.98 94.2949 254.022 94.3737 255.189 93.0473C255.799 92.3512 256.117 91.2874 257.019 91.0117C257.587 90.8942 258.178 90.9633 258.703 91.2087C260.891 91.9704 263.066 92.7321 265.254 93.4938C265.984 93.8252 266.79 93.9567 267.588 93.8747C267.984 93.8241 268.345 93.6263 268.599 93.3214C268.852 93.0165 268.979 92.6273 268.954 92.233C268.742 91.1561 267.071 90.6439 267.23 89.5539C267.307 89.1977 267.498 88.8755 267.774 88.6345C270.139 86.1431 273.031 84.2001 276.243 82.9445C279.454 81.689 282.907 81.152 286.353 81.3719C287.175 82.7246 285.875 84.3137 284.774 85.4563C283.687 86.612 282.812 88.6608 284.138 89.5407C284.673 89.8185 285.271 89.9543 285.875 89.9347C287.488 90.1489 289.055 90.619 290.517 91.3268C292.784 92.2987 295.012 93.3756 297.187 94.5313C296.867 93.1232 296.922 91.6569 297.346 90.2762C297.586 89.5984 298.072 89.0333 298.709 88.6909C299.346 88.3486 300.09 88.2536 300.794 88.4244C302.094 88.9234 302.757 90.6307 304.149 90.7884C305.992 90.9985 306.722 88.293 305.953 86.612C305.183 84.9309 303.645 83.5388 303.526 81.6871C303.433 80.4525 303.91 78.916 302.916 78.1674C302.562 77.9353 302.157 77.7912 301.736 77.7471C293.408 76.2368 285.075 74.7221 276.738 73.203C275.253 72.9272 273.118 73.1373 273.052 74.6214C273.012 75.4619 273.768 76.2893 273.436 77.051C273.078 77.8653 271.911 77.7996 271.062 78.0886C270.425 78.375 269.899 78.8594 269.564 79.4684C269.229 80.0774 269.103 80.7778 269.206 81.4638C269.433 82.8294 269.967 84.1268 270.771 85.2593C269.14 84.5895 266.686 84.4713 265.055 83.7884C264.818 81.9179 264.336 80.0858 263.623 78.3381C263.582 78.0599 263.48 77.794 263.325 77.559C263.169 77.3241 262.963 77.1257 262.722 76.978C262.48 76.8303 262.209 76.7367 261.927 76.704C261.645 76.6712 261.359 76.7 261.09 76.7884C258.942 77.1167 256.793 77.4319 254.645 77.7602C254.106 77.7856 253.589 77.9838 253.173 78.325C252.338 79.2049 253.16 80.6101 253.133 81.8184C253.056 82.494 252.767 83.1289 252.309 83.6349C251.85 84.1409 251.244 84.4929 250.574 84.642C249.224 84.9134 247.831 84.8955 246.489 84.5895C243.479 84.1298 240.482 83.6701 237.472 83.2105C240.129 82.372 242.492 80.8056 244.288 78.6927C245.482 77.3006 246.118 74.7002 244.394 74.0436C243.885 73.9051 243.354 73.865 242.829 73.9254C238.745 73.9516 235.522 70.5764 231.703 69.1449C230.502 68.7012 229.232 68.47 227.95 68.4619L223.68 73.6494Z" fill="#3F3D56"/>
<path d="M572.318 203.24C571.849 203.863 571.232 204.363 570.523 204.695C569.814 205.028 569.033 205.184 568.248 205.148C564.086 204.793 562.331 198.858 558.209 198.187C557.844 198.095 557.458 198.132 557.118 198.292C556.507 198.621 556.4 199.437 556.36 200.122C556.187 203.517 556.041 207.043 557.384 210.175C559.339 214.754 564.405 218.596 563.342 223.452C557.624 220.833 554.645 214.478 553.302 208.385C551.945 202.293 551.733 195.898 549.312 190.134C547.464 192.463 543.608 190.542 541.932 188.094C540.337 185.779 539.353 183.094 537.81 180.739C536.268 178.396 533.901 176.291 531.081 176.159C528.116 176.028 525.536 178.041 523.276 179.949C521.309 181.387 519.658 183.204 518.422 185.292C516.84 188.45 517.252 192.161 517.172 195.674C517.092 199.464 516.281 203.477 513.661 206.267C511.042 209.043 506.215 210.017 503.329 207.504C501.934 206.064 500.94 204.292 500.444 202.359C497.306 193.312 494.696 184.094 492.624 174.751C492.146 176.883 490.244 179.633 488.436 178.383C488.031 178.043 487.705 177.621 487.478 177.146C484.101 171.501 477.864 168.106 471.548 166.067C465.244 164.04 458.609 163.093 452.372 160.856C448.875 159.599 445.533 157.952 442.412 155.948C441.62 157.103 441.157 158.449 441.072 159.843C440.988 161.237 441.286 162.628 441.934 163.869C442.635 165.083 443.721 166.034 445.024 166.574C446.328 167.115 447.775 167.214 449.141 166.856C450.524 166.409 451.694 165.461 453.064 164.988C454.433 164.527 456.282 164.751 456.88 166.067C457.465 167.317 456.588 168.83 457.027 170.146C457.678 172.133 460.723 172.291 461.787 174.107C462.1 174.826 462.172 175.625 461.992 176.387C461.813 177.15 461.391 177.835 460.79 178.344C459.566 179.331 458.216 180.154 456.774 180.791C452.306 183.252 449.128 187.45 445.218 190.713C441.309 193.99 435.79 196.371 431.136 194.279C432.24 188.713 425.551 184.634 424.314 179.094C423.902 177.265 424.115 175.33 423.543 173.554C422.705 170.975 420.391 169.212 418.503 167.264C416.209 164.873 414.421 162.053 413.245 158.968C412.069 155.883 411.528 152.597 411.655 149.302C411.761 147.013 412.187 144.684 411.655 142.447C411.136 140.223 409.261 138.065 406.947 138.157C401.668 138.394 395.006 138.788 392.24 134.328C391.243 132.735 390.817 130.406 392.253 129.183C393.264 128.327 394.753 128.406 396.07 128.538C400.046 128.919 404.009 129.314 407.985 129.696C410.764 129.959 413.769 130.183 416.163 128.748C418.556 127.314 419.593 123.485 417.373 121.787C415.764 120.55 412.865 120.616 412.386 118.656C412 117.011 413.836 115.155 412.838 113.774C412.133 112.8 410.538 113.063 409.567 113.8C408.72 114.67 407.799 115.467 406.814 116.182C404.913 117.155 402.652 116.221 400.604 115.59C398.557 114.958 395.817 114.905 394.833 116.787C393.716 118.879 395.804 121.643 394.714 123.748C393.251 126.525 388.331 124.945 386.283 127.34C383.942 130.077 387.878 134.183 387.094 137.683C386.084 138.179 384.961 138.407 383.835 138.345C382.709 138.282 381.619 137.932 380.671 137.328C379.741 136.702 378.999 135.837 378.526 134.827C378.053 133.816 377.866 132.698 377.985 131.591C378.171 130.012 379.009 128.393 378.45 126.906C377.848 125.758 376.854 124.858 375.645 124.367C371.788 122.248 367.932 120.138 364.075 118.037C362.998 120.011 364.355 122.445 366.057 123.932C367.746 125.406 369.873 126.525 370.99 128.472C371.698 129.822 371.857 131.388 371.437 132.85C371.017 134.313 370.049 135.561 368.73 136.341C368.563 136.455 368.373 136.531 368.173 136.565C367.973 136.599 367.769 136.59 367.573 136.538C367.388 136.431 367.228 136.289 367.1 136.119C366.972 135.95 366.88 135.757 366.828 135.551C364.794 130.38 361.722 125.288 356.828 122.59C351.921 119.879 344.887 120.445 341.669 124.985C340.911 126.064 340.392 127.301 339.727 128.446C336.204 134.512 328.624 137.381 321.549 137.196C320.857 137.24 320.168 137.08 319.568 136.736C318.424 135.959 318.478 134.301 318.651 132.933C318.903 130.999 319.143 129.077 319.395 127.143C319.401 125.962 319.863 124.828 320.685 123.972C322.002 122.945 323.89 123.59 325.565 123.564C326.83 123.508 328.046 123.067 329.048 122.302C330.05 121.537 330.789 120.484 331.164 119.287C331.501 118.08 331.498 116.804 331.156 115.598C330.814 114.392 330.145 113.302 329.222 112.445C328.464 111.734 327.44 110.839 327.839 109.879C328.001 109.614 328.22 109.388 328.479 109.215C328.739 109.042 329.033 108.927 329.342 108.879C332.334 108.023 335.512 107.8 338.451 106.773C341.403 105.76 344.262 103.681 344.967 100.668C345.179 99.7464 345.273 98.628 346.11 98.1674C346.533 97.9994 346.984 97.9102 347.44 97.9042C349.039 97.6774 350.494 96.8673 351.52 95.6328C352.546 94.3984 353.069 92.8289 352.985 91.2327C354.395 90.2589 356.376 90.9827 357.746 92.0222C359.102 93.0618 360.312 94.4303 361.974 94.8777C365.073 95.7198 368.065 92.996 371.283 92.9828C372.639 92.9828 374.035 93.4565 375.299 92.996C376.589 92.5354 377.36 91.2722 378.344 90.3379C379.341 89.3905 381.07 88.8247 381.987 89.8379C381.721 87.9298 381.469 86.035 381.203 84.1401C382.77 84.5305 384.403 84.5846 385.992 84.2986C387.582 84.0126 389.091 83.3932 390.418 82.4821C387.067 81.3636 383.73 80.2451 380.379 79.1266C380.026 79.0407 379.702 78.8688 379.434 78.6266C378.703 77.8502 379.434 76.6396 380.019 75.7579C381.442 73.6394 381.682 70.1523 379.341 69.0996C377.746 68.3759 375.924 69.2444 374.395 70.0865C371.948 71.4287 369.501 72.7841 367.054 74.1263C366.828 75.5079 368.53 76.2975 369.581 77.2186C370.221 77.7805 370.674 78.521 370.881 79.3428C371.087 80.1645 371.038 81.0289 370.738 81.8221C370.439 82.6154 369.904 83.3004 369.204 83.787C368.503 84.2735 367.671 84.5388 366.815 84.548C367.297 85.1706 367.632 85.892 367.795 86.6594C367.958 87.4267 367.946 88.2205 367.759 88.9825C366.123 89.101 364.474 89.2194 362.826 89.3378C362.552 89.3919 362.27 89.3918 361.996 89.3376C361.722 89.2834 361.462 89.1761 361.23 89.022C360.698 88.5615 360.778 87.7456 360.645 87.0614C360.426 86.2435 359.964 85.5093 359.319 84.9535C358.675 84.3976 357.876 84.0456 357.028 83.9427C355.334 83.7542 353.618 83.9109 351.988 84.4033C351.279 84.6504 350.503 84.6317 349.807 84.3506C349.412 84.0922 349.114 83.7133 348.956 83.2716C348.667 82.3693 348.617 81.4083 348.813 80.4817C349.009 79.555 349.443 78.694 350.073 77.9818C351.35 76.5786 352.757 75.2966 354.275 74.1526C357.716 71.1717 360.245 67.2972 361.576 62.9676C364.288 61.836 367.094 60.3096 369.82 59.1779C372.012 58.1729 374.308 57.4095 376.668 56.9014C378.89 56.5657 381.14 56.4599 383.384 56.5856C386.442 56.6382 389.514 56.6909 392.573 56.7567C395.303 56.6432 398.03 57.0313 400.618 57.9015C403.131 58.9279 405.352 61.1517 405.524 63.8361C405.577 64.142 405.549 64.4561 405.445 64.7486C405.34 65.041 405.161 65.3022 404.926 65.5073C404.573 65.7005 404.172 65.7917 403.769 65.7705C401.229 65.8494 400.152 66.481 397.612 66.5731C399.221 68.2706 401.03 70.0602 403.37 70.3629C407.493 70.8892 410.458 66.6653 412.359 62.994C412.427 63.9284 412.862 64.7996 413.57 65.4216C414.278 66.0436 415.204 66.3671 416.149 66.3231C417.168 66.1498 418.141 65.7738 419.008 65.2178C427.187 60.7945 436.349 58.4522 445.67 58.4015C445.579 57.7033 445.753 56.9963 446.158 56.4176C446.563 55.839 447.171 55.4299 447.864 55.2697C449.766 54.9013 451.468 56.5198 452.386 58.2042C453.29 59.8885 453.862 61.836 455.324 63.0992C456.774 64.3624 459.58 64.2967 460.151 62.4808C460.71 60.7306 458.862 59.2305 457.332 58.191C455.79 57.1646 454.181 55.2566 455.218 53.7301C463.037 52.0063 470.923 50.2957 478.941 49.9535C480.304 49.9944 481.661 49.7616 482.93 49.2693C483.559 49.0058 484.082 48.5445 484.419 47.9569C484.755 47.3692 484.887 46.688 484.792 46.0191C483.042 46.4231 481.211 46.3036 479.53 45.6758C477.849 45.0479 476.394 43.9399 475.351 42.4925C483.582 41.8214 492.199 41.2293 500.111 43.0583L507.039 48.8745C505.723 50.2299 503.967 51.5063 504.925 52.8616C505.241 53.1729 505.624 53.4092 506.045 53.5528C506.467 53.6964 506.916 53.7435 507.358 53.6906C509.034 53.7169 510.709 53.7564 512.371 53.7564C546.767 86.313 567.937 130.197 571.892 177.133C569.099 177.028 566.533 180.528 566.892 183.581C567.318 187.121 569.897 189.963 571.746 193.016C572.052 193.512 572.327 194.026 572.57 194.556L572.318 203.24Z" fill="#3F3D56"/>
<path d="M271.153 393.121L154.699 392.565L143.128 365.98L184.044 363.071L176.913 333.923L257.84 323.648L180.346 297.26L187.191 295.667L311.8 315.58L304.938 361.068L295.129 386.066L271.153 393.121Z" fill="#E86F6F"/>
<path d="M156.485 381.43C156.485 381.43 163.63 380.311 167.917 385.256C167.917 385.256 164.773 387.683 158.009 384.323L156.485 381.43Z" fill="#E86F6F"/>
<path d="M337.593 371.939C337.593 371.939 329.88 381.16 336.004 395.101L274.423 421.262L268.513 422.475L265.791 410.811L267.611 396.091V388.046L337.593 371.939Z" fill="#D5D6DB"/>
<path d="M143.128 365.98L228.362 350.76L341.301 368.383L271.153 393.121L143.128 365.98Z" fill="#E86F6F"/>
<path d="M143.128 365.98L228.362 350.76L341.301 368.383L271.153 393.121L143.128 365.98Z" fill="#E86F6F"/>
<path d="M143.128 365.977C143.128 365.977 135.156 380.771 144.342 394.435L270.738 421.263C270.738 421.263 262.892 409.478 271.142 393.121L143.128 365.977Z" fill="#E86F6F"/>
<path opacity="0.1" d="M143.128 365.977C143.128 365.977 135.156 380.771 144.342 394.435L270.738 421.263C270.738 421.263 262.892 409.478 271.142 393.121L143.128 365.977Z" fill="black"/>
<path opacity="0.1" d="M146.894 371.106C146.894 371.106 142.339 381.93 146.894 388.936Z" fill="black"/>
<path d="M270.738 421.262L341.302 391.768C341.302 391.768 345.248 392.601 342.696 395.434C340.145 398.267 272.099 424.095 272.099 424.095L144.343 394.434L270.738 421.262Z" fill="#E86F6F"/>
<path opacity="0.1" d="M270.738 421.262L341.302 391.768C341.302 391.768 345.248 392.601 342.696 395.434C340.145 398.267 272.099 424.095 272.099 424.095L144.343 394.434L270.738 421.262Z" fill="black"/>
<path opacity="0.1" d="M264.954 396.101C264.954 396.101 258.149 404.099 264.954 416.097Z" fill="black"/>
<path opacity="0.1" d="M297.897 395.966L267.375 405.94L267.483 406.256L298.004 396.282L297.897 395.966Z" fill="black"/>
<path opacity="0.1" d="M304.01 394.973L267.366 408.622L267.487 408.934L304.131 395.285L304.01 394.973Z" fill="black"/>
<path opacity="0.1" d="M309.625 394.925L267.57 411.786L267.699 412.095L309.754 395.234L309.625 394.925Z" fill="black"/>
<path opacity="0.1" d="M315.73 393.481L268.061 414.574L268.201 414.878L315.87 393.785L315.73 393.481Z" fill="black"/>
<path opacity="0.1" d="M320.86 393.488L268.439 415.932L268.575 416.238L320.996 393.793L320.86 393.488Z" fill="black"/>
<path opacity="0.1" d="M332.078 391.622L269.229 418.211L269.364 418.517L332.213 391.928L332.078 391.622Z" fill="black"/>
<path opacity="0.3" d="M174.793 367.606L234.673 355.275L271.153 362.107L222.085 377.604L174.793 367.606Z" fill="white"/>
<path d="M341.302 368.383C341.302 368.383 344.398 369.606 342.581 371.496C340.764 373.385 271.143 393.121 271.143 393.121L341.302 368.383Z" fill="#E86F6F"/>
<path d="M371.374 339.885C371.374 339.885 363.664 349.103 369.788 363.047L308.207 389.209L302.297 390.429L299.575 378.764L301.423 364.047V355.992L371.374 339.885Z" fill="#D5D6DB"/>
<path d="M176.913 333.923L262.144 318.706L375.086 336.329L304.938 361.068L176.913 333.923Z" fill="#3A3768"/>
<path d="M176.899 333.923C176.899 333.923 168.924 348.717 178.11 362.381L304.505 389.209C304.505 389.209 296.663 377.414 304.924 361.064L176.899 333.923Z" fill="#3A3768"/>
<path opacity="0.1" d="M176.899 333.923C176.899 333.923 168.924 348.717 178.11 362.381L304.505 389.209C304.505 389.209 296.663 377.414 304.924 361.064L264.954 352.589L176.899 333.923Z" fill="black"/>
<path opacity="0.1" d="M180.676 339.052C180.676 339.052 176.123 349.873 180.676 356.882Z" fill="black"/>
<path d="M304.519 389.209L375.086 359.715C375.086 359.715 379.029 360.548 376.477 363.381C373.926 366.213 305.88 392.042 305.88 392.042L178.124 362.381L304.519 389.209Z" fill="#3A3768"/>
<path opacity="0.1" d="M304.519 389.209L375.086 359.715C375.086 359.715 379.029 360.548 376.477 363.381C373.926 366.213 305.88 392.042 305.88 392.042L178.124 362.381L304.519 389.209Z" fill="black"/>
<path opacity="0.1" d="M298.735 364.047C298.735 364.047 291.93 372.046 298.735 384.043Z" fill="black"/>
<path opacity="0.1" d="M331.681 363.916L301.16 373.89L301.267 374.206L331.789 364.232L331.681 363.916Z" fill="black"/>
<path opacity="0.1" d="M337.799 362.921L301.154 376.571L301.275 376.882L337.92 363.233L337.799 362.921Z" fill="black"/>
<path opacity="0.1" d="M343.408 362.869L301.354 379.73L301.483 380.039L343.537 363.177L343.408 362.869Z" fill="black"/>
<path opacity="0.1" d="M349.518 361.426L301.849 382.519L301.989 382.822L349.658 361.729L349.518 361.426Z" fill="black"/>
<path opacity="0.1" d="M354.642 361.428L302.221 383.872L302.357 384.178L354.778 361.734L354.642 361.428Z" fill="black"/>
<path opacity="0.1" d="M365.863 359.562L303.014 386.152L303.149 386.458L365.998 359.868L365.863 359.562Z" fill="black"/>
<path opacity="0.45" d="M208.578 335.553L268.458 323.222L304.938 330.054L255.87 345.551L208.578 335.553Z" fill="white"/>
<path d="M375.086 336.329C375.086 336.329 378.178 337.552 376.365 339.439C374.552 341.325 304.937 361.064 304.937 361.064L375.086 336.329Z" fill="#3A3768"/>
<path d="M374.572 303.216C374.572 303.216 366.859 319.769 372.983 333.71L311.402 352.539L305.506 353.762L302.784 342.098L304.604 327.378V319.323L374.572 303.216Z" fill="#D5D6DB"/>
<path d="M180.121 297.257L265.355 282.037L378.298 299.66L308.146 324.398L180.121 297.257Z" fill="#E86F6F"/>
<path d="M180.121 297.254C180.121 297.254 172.136 312.047 181.322 325.711L307.717 352.539C307.717 352.539 299.872 340.745 308.132 324.398L180.121 297.254Z" fill="#E86F6F"/>
<path opacity="0.1" d="M180.121 297.254C180.121 297.254 172.136 312.047 181.322 325.711L307.717 352.539C307.717 352.539 299.872 340.745 308.132 324.398L180.121 297.254Z" fill="black"/>
<path opacity="0.1" d="M183.887 302.383C183.887 302.383 179.332 313.207 183.887 320.212Z" fill="black"/>
<path d="M307.731 352.539L378.294 330.377C378.294 330.377 382.241 331.21 379.689 334.043C377.138 336.876 309.092 355.372 309.092 355.372L181.336 325.711L307.731 352.539Z" fill="#E86F6F"/>
<path opacity="0.1" d="M307.731 352.539L378.294 330.377C378.294 330.377 382.241 331.21 379.689 334.043C377.138 336.876 309.092 355.372 309.092 355.372L181.336 325.711L307.731 352.539Z" fill="black"/>
<path opacity="0.1" d="M301.947 327.378C301.947 327.378 295.142 335.376 301.947 347.374Z" fill="black"/>
<path opacity="0.1" d="M334.894 327.245L304.372 337.22L304.48 337.536L335.002 327.561L334.894 327.245Z" fill="black"/>
<path opacity="0.1" d="M341.009 326.253L304.364 339.902L304.485 340.214L341.13 326.564L341.009 326.253Z" fill="black"/>
<path opacity="0.1" d="M346.616 326.202L304.561 343.063L304.69 343.372L346.744 326.511L346.616 326.202Z" fill="black"/>
<path opacity="0.1" d="M352.729 324.756L305.061 345.848L305.201 346.152L352.869 325.06L352.729 324.756Z" fill="black"/>
<path opacity="0.1" d="M357.855 324.762L305.435 347.206L305.571 347.511L357.992 325.067L357.855 324.762Z" fill="black"/>
<path opacity="0.1" d="M369.076 322.898L306.227 349.487L306.362 349.793L369.211 323.204L369.076 322.898Z" fill="black"/>
<path opacity="0.3" d="M211.786 298.883L271.666 286.552L308.146 293.384L259.078 308.881L211.786 298.883Z" fill="white"/>
<path d="M378.295 299.66C378.295 299.66 381.391 300.883 379.574 302.773C377.757 304.662 308.146 324.398 308.146 324.398L378.295 299.66Z" fill="#E86F6F"/>
<path d="M269.386 305.765C337.609 305.765 392.915 251.045 392.915 183.543C392.915 116.042 337.609 61.3207 269.386 61.3207C201.163 61.3207 145.857 116.042 145.857 183.543C145.857 251.045 201.163 305.765 269.386 305.765Z" fill="#3F3D56"/>
<path d="M269.386 295.648C331.961 295.648 382.689 245.457 382.689 183.543C382.689 121.629 331.961 71.4382 269.386 71.4382C206.81 71.4382 156.083 121.629 156.083 183.543C156.083 245.457 206.81 295.648 269.386 295.648Z" fill="white"/>
<path d="M268.977 198.922C277.335 198.922 284.111 192.218 284.111 183.948C284.111 175.677 277.335 168.973 268.977 168.973C260.618 168.973 253.842 175.677 253.842 183.948C253.842 192.218 260.618 198.922 268.977 198.922Z" fill="#3F3D56"/>
<path d="M272.249 77.1041H265.705V89.2453H272.249V77.1041Z" fill="#3F3D56"/>
<path d="M272.249 278.65H265.705V290.791H272.249V278.65Z" fill="#3F3D56"/>
<path d="M173.262 187.185V180.71H160.991V187.185H173.262Z" fill="#3F3D56"/>
<path d="M376.962 187.185V180.71H364.691V187.185H376.962Z" fill="#3F3D56"/>
<path d="M264.614 190.448L270.207 177.795L340.289 216.198L264.614 190.448Z" fill="#3F3D56"/>
<path d="M255.535 180.114L260.594 192.99L184 215.785L255.535 180.114Z" fill="#3F3D56"/>
<path d="M285.338 31.7765H253.434V68.2004H285.338V31.7765Z" fill="#3F3D56"/>
<path d="M269.385 41.8945C289.717 41.8945 306.199 37.3646 306.199 31.7767C306.199 26.1888 289.717 21.659 269.385 21.659C249.054 21.659 232.572 26.1888 232.572 31.7767C232.572 37.3646 249.054 41.8945 269.385 41.8945Z" fill="#3F3D56"/>
<ellipse cx="269.433" cy="187.5" rx="39.4333" ry="45.5" fill="#7DB833"/>
<circle cx="269.13" cy="173.85" r="17.29" fill="#C4C4C4"/>
<circle cx="269.13" cy="173.85" r="13.65" fill="white"/>
<circle cx="271.253" cy="175.973" r="6.67333" fill="#FEBE19"/>
<path d="M266.4 197.813H250.02L257.912 209.34L266.4 197.813Z" fill="white" stroke="white"/>
<path d="M277.927 197.813H261.547L269.439 209.34L277.927 197.813Z" fill="white" stroke="white"/>
<path d="M288.24 197.813H271.86L279.752 209.34L288.24 197.813Z" fill="white" stroke="white"/>
</svg>
