<svg width="39" height="37" viewBox="0 0 39 37" fill="none" xmlns="http://www.w3.org/2000/svg">
<path fill-rule="evenodd" clip-rule="evenodd" d="M34.5741 4.89543C31.9808 0.16039 10.5184 -0.265937 5.67558 3.66023C0.832758 7.58639 -1.30547 20.3716 4.49824 21.9823C6.89633 22.6479 11.8498 23.1244 17.1751 23.3053C17.562 24.6032 17.9078 25.9182 18.2345 27.1608C19.0045 30.089 19.6688 32.6154 20.5165 33.5707C21.699 34.903 23.1884 29.5832 24.7392 24.0442C24.8041 23.8123 24.8692 23.58 24.9343 23.3478C29.7721 23.2254 34.009 22.7993 35.8584 21.9823C40.6439 19.8682 37.1674 9.63046 34.5741 4.89543Z" fill="#E86F6F"/>
<path d="M5.67558 3.66023L5.3607 3.27183L5.3607 3.27183L5.67558 3.66023ZM34.5741 4.89543L34.1355 5.13561L34.1355 5.13561L34.5741 4.89543ZM4.49824 21.9823L4.36452 22.4641L4.36452 22.4641L4.49824 21.9823ZM17.1751 23.3053L17.6543 23.1624L17.5516 22.8178L17.1921 22.8055L17.1751 23.3053ZM18.2345 27.1608L17.751 27.2879L17.751 27.2879L18.2345 27.1608ZM20.5165 33.5707L20.1426 33.9025L20.1426 33.9025L20.5165 33.5707ZM24.7392 24.0442L24.2577 23.9094L24.2577 23.9094L24.7392 24.0442ZM24.9343 23.3478L24.9217 22.8479L24.5526 22.8573L24.4529 23.2127L24.9343 23.3478ZM35.8584 21.9823L35.6564 21.525L35.6564 21.525L35.8584 21.9823ZM5.99046 4.04862C7.0911 3.15632 9.22448 2.46133 11.9485 2.02471C14.645 1.5925 17.8302 1.42661 20.9519 1.52961C24.0754 1.63266 27.1132 2.00417 29.5186 2.6363C30.7218 2.9525 31.7508 3.3298 32.5484 3.76155C33.353 4.19711 33.8771 4.66382 34.1355 5.13561L35.0126 4.65525C34.6227 3.94327 33.9088 3.36087 33.0244 2.88213C32.133 2.3996 31.022 1.99742 29.7727 1.66914C27.2732 1.01229 24.1565 0.634789 20.9849 0.530149C17.8115 0.425451 14.561 0.593195 11.7902 1.03731C9.04695 1.47702 6.68148 2.20106 5.3607 3.27183L5.99046 4.04862ZM4.63195 21.5005C3.37939 21.1529 2.52456 20.2028 2.02269 18.8214C1.51718 17.4299 1.38934 15.6406 1.59165 13.7426C1.79338 11.8498 2.31982 9.88404 3.08917 8.15629C3.86095 6.42311 4.86177 4.96368 5.99046 4.04862L5.3607 3.27183C4.06799 4.31986 2.98547 5.93089 2.17565 7.7495C1.36341 9.57355 0.809985 11.6409 0.597277 13.6366C0.385135 15.6269 0.508258 17.5813 1.08279 19.1628C1.66096 20.7543 2.71523 22.0064 4.36452 22.4641L4.63195 21.5005ZM17.1921 22.8055C11.8651 22.6246 6.9662 22.1484 4.63195 21.5005L4.36452 22.4641C6.82645 23.1474 11.8346 23.6241 17.1582 23.805L17.1921 22.8055ZM18.7181 27.0336C18.3917 25.7922 18.0439 24.4694 17.6543 23.1624L16.696 23.4481C17.0802 24.7369 17.4239 26.0441 17.751 27.2879L18.7181 27.0336ZM20.8905 33.2388C20.543 32.8472 20.1908 32.0699 19.8212 30.949C19.4587 29.8496 19.1043 28.5024 18.7181 27.0336L17.751 27.2879C18.1347 28.7473 18.4974 30.1274 18.8715 31.2621C19.2385 32.3753 19.6423 33.3389 20.1426 33.9025L20.8905 33.2388ZM24.2577 23.9094C23.4796 26.6884 22.7266 29.3761 22.0231 31.2047C21.6665 32.1315 21.3451 32.7751 21.0723 33.1039C20.9316 33.2734 20.866 33.2825 20.8837 33.2792C20.9516 33.2668 20.963 33.3204 20.8905 33.2388L20.1426 33.9025C20.3657 34.154 20.6822 34.3328 21.064 34.2628C21.3956 34.2021 21.6524 33.9708 21.8419 33.7424C22.2294 33.2754 22.599 32.4927 22.9564 31.5637C23.6809 29.6807 24.448 26.939 25.2207 24.179L24.2577 23.9094ZM24.4529 23.2127C24.3877 23.4451 24.3227 23.6775 24.2577 23.9094L25.2207 24.179C25.2856 23.947 25.3506 23.7149 25.4157 23.4828L24.4529 23.2127ZM35.6564 21.525C34.8054 21.9009 33.3486 22.2056 31.4584 22.429C29.5835 22.6505 27.3313 22.787 24.9217 22.8479L24.9469 23.8476C27.3752 23.7862 29.6603 23.6484 31.5757 23.4221C33.4758 23.1976 35.0621 22.8807 36.0605 22.4397L35.6564 21.525ZM34.1355 5.13561C35.4123 7.46671 36.9071 11.1578 37.4907 14.5076C37.7829 16.1846 37.8393 17.7356 37.5541 18.9743C37.2721 20.199 36.6694 21.0774 35.6564 21.525L36.0605 22.4397C37.4402 21.8302 38.1976 20.6361 38.5286 19.1987C38.8564 17.7752 38.7788 16.0744 38.4759 14.3359C37.8693 10.8545 36.3292 7.05918 35.0126 4.65525L34.1355 5.13561Z" fill="black"/>
<path d="M25.148 5.88615C23.2672 4.67632 20.9263 5.38203 19.7553 7.32069L19.2966 8.07912L18.5999 7.5312C16.8234 6.12948 14.3811 6.29517 13.0477 8.09056C11.5202 10.1507 11.9873 13.2637 13.9761 14.8328L20.822 20.2277C21.2642 20.576 21.8595 20.4676 22.1505 19.9857L26.6541 12.5231C27.9646 10.3529 27.3039 7.27525 25.148 5.88615V5.88615Z" fill="#ECBD17"/>
<path d="M8.61502 35.3778C8.61502 35.551 8.55577 35.6786 8.43728 35.7606C8.32791 35.8518 8.20486 35.8974 8.06814 35.8974C7.93143 35.8974 7.80838 35.8518 7.699 35.7606C7.58963 35.6786 7.53494 35.551 7.53494 35.3778C7.53494 34.6669 7.61697 33.9833 7.78103 33.327C7.9451 32.6708 8.15018 32.0191 8.39627 31.372C8.33247 31.2535 8.31424 31.1213 8.34158 30.9755C8.39627 30.7841 8.51476 30.6656 8.69705 30.62C8.87934 30.1825 9.06619 29.7496 9.2576 29.3212C9.45812 28.8837 9.64952 28.4462 9.83182 28.0087C10.0141 27.5712 10.1827 27.1291 10.3377 26.6825C10.4926 26.2359 10.6202 25.7802 10.7205 25.3153C10.7478 25.1786 10.8025 25.0601 10.8846 24.9599C10.9757 24.8596 11.0987 24.8095 11.2537 24.8095C11.3995 24.8095 11.5317 24.8641 11.6502 24.9735C11.7687 25.0738 11.8188 25.2014 11.8006 25.3563C11.7732 25.885 11.7823 26.3726 11.8279 26.8192C11.8735 27.2567 11.9418 27.6942 12.033 28.1317C12.1241 28.5601 12.2244 28.9931 12.3338 29.4306C12.4523 29.8589 12.5616 30.2873 12.6619 30.7157C12.7622 31.1259 12.8533 31.536 12.9353 31.9462C13.0174 32.3563 13.1495 32.7528 13.3318 33.1356C13.423 33.327 13.5187 33.5139 13.6189 33.6962C13.7192 33.8694 13.8286 34.0471 13.9471 34.2294C14.0564 34.3934 14.1567 34.5666 14.2478 34.7489C14.339 34.9221 14.4028 35.1135 14.4392 35.3231C14.4575 35.469 14.4347 35.6057 14.3709 35.7333C14.3162 35.8609 14.2114 35.9475 14.0564 35.9931C13.9288 36.0295 13.7921 36.0113 13.6463 35.9384C13.5004 35.8655 13.4138 35.7561 13.3865 35.6102C13.35 35.4006 13.2771 35.2138 13.1678 35.0497C13.0675 34.8856 12.9627 34.717 12.8533 34.5438C12.7257 34.3433 12.6072 34.1428 12.4978 33.9423C12.3976 33.7326 12.3064 33.5184 12.2244 33.2997C12.1332 33.0718 12.0558 32.844 11.992 32.6161C11.9282 32.3791 11.8689 32.1421 11.8142 31.9052C11.4041 31.8778 10.9985 31.8596 10.5974 31.8505C10.2055 31.8322 9.80903 31.8003 9.40799 31.7548C9.18924 32.3381 9.00239 32.9306 8.84744 33.5321C8.70161 34.1337 8.62413 34.7489 8.61502 35.3778ZM9.90018 30.538C9.88195 30.5653 9.86827 30.5972 9.85916 30.6337C9.85916 30.661 9.85004 30.6884 9.83182 30.7157C10.1235 30.7431 10.4106 30.7613 10.6931 30.7704C10.9757 30.7704 11.2628 30.7795 11.5545 30.7977C11.4542 30.3602 11.3448 29.9273 11.2263 29.4989C11.117 29.0614 11.0167 28.6194 10.9256 28.1727C10.7615 28.5738 10.5929 28.9703 10.4197 29.3622C10.2465 29.745 10.0734 30.1369 9.90018 30.538ZM15.8015 34.5985C15.92 34.6714 16.0111 34.7808 16.0749 34.9266C16.1387 35.0725 16.1479 35.2092 16.1023 35.3368C16.0476 35.4918 15.9565 35.6057 15.8288 35.6786C15.7286 35.788 15.601 35.8381 15.446 35.829C15.2911 35.829 15.1635 35.7789 15.0632 35.6786C14.9265 35.5692 14.8399 35.4781 14.8035 35.4052C14.7305 35.2776 14.7078 35.15 14.7351 35.0224C14.7716 34.8947 14.8445 34.7854 14.9538 34.6942C14.9721 34.676 14.9949 34.6578 15.0222 34.6395C15.0496 34.6122 15.0769 34.5894 15.1042 34.5712C15.1863 34.5347 15.2318 34.5165 15.241 34.5165C15.2592 34.5165 15.3139 34.5074 15.405 34.4891C15.4779 34.4891 15.5326 34.4983 15.5691 34.5165C15.6602 34.5347 15.7377 34.5621 15.8015 34.5985Z" fill="black"/>
<path d="M30.2817 35.3778C30.2817 35.551 30.2224 35.6786 30.104 35.7606C29.9946 35.8518 29.8715 35.8974 29.7348 35.8974C29.5981 35.8974 29.475 35.8518 29.3657 35.7606C29.2563 35.6786 29.2016 35.551 29.2016 35.3778C29.2016 34.6669 29.2836 33.9833 29.4477 33.327C29.6118 32.6708 29.8168 32.0191 30.0629 31.372C29.9991 31.2535 29.9809 31.1213 30.0082 30.9755C30.0629 30.7841 30.1814 30.6656 30.3637 30.62C30.546 30.1825 30.7329 29.7496 30.9243 29.3212C31.1248 28.8837 31.3162 28.4462 31.4985 28.0087C31.6808 27.5712 31.8494 27.1291 32.0043 26.6825C32.1593 26.2359 32.2869 25.7802 32.3872 25.3153C32.4145 25.1786 32.4692 25.0601 32.5512 24.9599C32.6424 24.8596 32.7654 24.8095 32.9204 24.8095C33.0662 24.8095 33.1984 24.8641 33.3168 24.9735C33.4353 25.0738 33.4855 25.2014 33.4672 25.3563C33.4399 25.885 33.449 26.3726 33.4946 26.8192C33.5401 27.2567 33.6085 27.6942 33.6997 28.1317C33.7908 28.5601 33.8911 28.9931 34.0004 29.4306C34.1189 29.8589 34.2283 30.2873 34.3286 30.7157C34.4288 31.1259 34.52 31.536 34.602 31.9462C34.684 32.3563 34.8162 32.7528 34.9985 33.1356C35.0896 33.327 35.1853 33.5139 35.2856 33.6962C35.3859 33.8694 35.4952 34.0471 35.6137 34.2294C35.7231 34.3934 35.8234 34.5666 35.9145 34.7489C36.0056 34.9221 36.0694 35.1135 36.1059 35.3231C36.1241 35.469 36.1013 35.6057 36.0375 35.7333C35.9829 35.8609 35.878 35.9475 35.7231 35.9931C35.5955 36.0295 35.4588 36.0113 35.3129 35.9384C35.1671 35.8655 35.0805 35.7561 35.0532 35.6102C35.0167 35.4006 34.9438 35.2138 34.8344 35.0497C34.7342 34.8856 34.6293 34.717 34.52 34.5438C34.3924 34.3433 34.2739 34.1428 34.1645 33.9423C34.0642 33.7326 33.9731 33.5184 33.8911 33.2997C33.7999 33.0718 33.7224 32.844 33.6586 32.6161C33.5948 32.3791 33.5356 32.1421 33.4809 31.9052C33.0707 31.8778 32.6651 31.8596 32.2641 31.8505C31.8722 31.8322 31.4757 31.8003 31.0747 31.7548C30.8559 32.3381 30.6691 32.9306 30.5141 33.5321C30.3683 34.1337 30.2908 34.7489 30.2817 35.3778ZM31.5668 30.538C31.5486 30.5653 31.5349 30.5972 31.5258 30.6337C31.5258 30.661 31.5167 30.6884 31.4985 30.7157C31.7901 30.7431 32.0773 30.7613 32.3598 30.7704C32.6424 30.7704 32.9295 30.7795 33.2211 30.7977C33.1209 30.3602 33.0115 29.9273 32.893 29.4989C32.7836 29.0614 32.6834 28.6194 32.5922 28.1727C32.4282 28.5738 32.2595 28.9703 32.0864 29.3622C31.9132 29.745 31.74 30.1369 31.5668 30.538ZM37.4682 34.5985C37.5867 34.6714 37.6778 34.7808 37.7416 34.9266C37.8054 35.0725 37.8145 35.2092 37.769 35.3368C37.7143 35.4918 37.6231 35.6057 37.4955 35.6786C37.3953 35.788 37.2676 35.8381 37.1127 35.829C36.9578 35.829 36.8301 35.7789 36.7299 35.6786C36.5932 35.5692 36.5066 35.4781 36.4701 35.4052C36.3972 35.2776 36.3744 35.15 36.4018 35.0224C36.4382 34.8947 36.5111 34.7854 36.6205 34.6942C36.6387 34.676 36.6615 34.6578 36.6889 34.6395C36.7162 34.6122 36.7436 34.5894 36.7709 34.5712C36.8529 34.5347 36.8985 34.5165 36.9076 34.5165C36.9259 34.5165 36.9805 34.5074 37.0717 34.4891C37.1446 34.4891 37.1993 34.4983 37.2357 34.5165C37.3269 34.5347 37.4044 34.5621 37.4682 34.5985Z" fill="black"/>
</svg>
