<svg width="69" height="64" viewBox="0 0 69 64" fill="none" xmlns="http://www.w3.org/2000/svg">
<path fill-rule="evenodd" clip-rule="evenodd" d="M61.4333 8.01177C56.7654 -0.511298 18.1331 -1.27869 9.41605 5.78841C0.698965 12.8555 -3.14984 35.8689 7.29683 38.7682C11.6134 39.9662 20.5297 40.8239 30.1153 41.1495C30.8116 43.4858 31.434 45.8527 32.0221 48.0894C33.408 53.3601 34.6038 57.9077 36.1298 59.6272C38.2581 62.0254 40.9391 52.4498 43.7306 42.4795C43.8475 42.0621 43.9645 41.6439 44.0817 41.226C52.7898 41.0058 60.4163 40.2388 63.7452 38.7682C72.3591 34.9628 66.1013 16.5348 61.4333 8.01177Z" fill="#E86F6F"/>
<path d="M9.41605 5.78841L9.73093 6.17681L9.73093 6.17681L9.41605 5.78841ZM61.4333 8.01177L60.9948 8.25195L60.9948 8.25195L61.4333 8.01177ZM7.29683 38.7682L7.16312 39.25L7.16312 39.25L7.29683 38.7682ZM30.1153 41.1495L30.5944 41.0066L30.4917 40.662L30.1322 40.6498L30.1153 41.1495ZM32.0221 48.0894L32.5057 47.9623L32.5057 47.9623L32.0221 48.0894ZM36.1298 59.6272L36.5037 59.2953L36.5037 59.2953L36.1298 59.6272ZM43.7306 42.4795L43.2491 42.3447L43.2491 42.3447L43.7306 42.4795ZM44.0817 41.226L44.0691 40.7261L43.7 40.7355L43.6003 41.0909L44.0817 41.226ZM63.7452 38.7682L63.9473 39.2255L63.9473 39.2255L63.7452 38.7682ZM9.73093 6.17681C11.8001 4.49927 15.733 3.23667 20.644 2.44952C25.5274 1.66678 31.2869 1.36744 36.9266 1.55351C42.5681 1.73963 48.0677 2.41076 52.4351 3.55847C54.6193 4.13246 56.5043 4.82155 57.9775 5.61903C59.4577 6.42031 60.4771 7.30666 60.9948 8.25195L61.8719 7.77159C61.2226 6.58611 60.0136 5.58406 58.4536 4.73961C56.8865 3.89136 54.9195 3.17739 52.6893 2.59131C48.2278 1.41887 42.6493 0.741767 36.9596 0.55405C31.2682 0.366277 25.4434 0.667474 20.4857 1.46213C15.5555 2.25236 11.3905 3.54401 9.10117 5.40002L9.73093 6.17681ZM7.43054 38.2864C5.01724 37.6166 3.39876 35.7857 2.46488 33.215C1.52736 30.6344 1.29913 27.3476 1.66721 23.8942C2.03473 20.4461 2.9931 16.8671 4.3951 13.7186C5.79951 10.5647 7.63367 7.8771 9.73093 6.17681L9.10117 5.40002C6.83989 7.23328 4.92404 10.0725 3.48158 13.3118C2.0367 16.5566 1.05133 20.2372 0.672847 23.7882C0.294926 27.3339 0.518433 30.7858 1.52498 33.5565C2.53516 36.3371 4.35308 38.4701 7.16312 39.25L7.43054 38.2864ZM30.1322 40.6498C20.545 40.3241 11.6833 39.4667 7.43054 38.2864L7.16312 39.25C11.5435 40.4657 20.5144 41.3236 30.0983 41.6492L30.1322 40.6498ZM32.5057 47.9623C31.9179 45.7268 31.2935 43.352 30.5944 41.0066L29.6361 41.2923C30.3298 43.6195 30.9501 45.9786 31.5386 48.2166L32.5057 47.9623ZM36.5037 59.2953C35.8171 58.5216 35.1625 57.048 34.4983 55.0335C33.8412 53.0404 33.1999 50.6023 32.5057 47.9623L31.5386 48.2166C32.2303 50.8472 32.8798 53.3182 33.5486 55.3466C34.2102 57.3534 34.9164 59.0133 35.7558 59.9591L36.5037 59.2953ZM43.2491 42.3447C41.8507 47.3394 40.4896 52.1989 39.2149 55.512C38.5726 57.1812 37.9749 58.3953 37.4379 59.0424C37.1652 59.3711 36.9706 59.4763 36.8628 59.4961C36.8052 59.5066 36.6944 59.5102 36.5037 59.2953L35.7558 59.9591C36.0972 60.3438 36.5358 60.5727 37.0431 60.4797C37.5002 60.3959 37.886 60.0685 38.2075 59.681C38.8591 58.8956 39.5051 57.5423 40.1482 55.8711C41.4439 52.5034 42.819 47.5899 44.2121 42.6143L43.2491 42.3447ZM43.6003 41.0909C43.4831 41.509 43.366 41.9273 43.2491 42.3447L44.2121 42.6143C44.3289 42.1969 44.446 41.7788 44.5632 41.361L43.6003 41.0909ZM63.5432 38.3108C61.9524 39.0136 59.2783 39.5669 55.872 39.9694C52.4811 40.3701 48.4138 40.6163 44.0691 40.7261L44.0944 41.7258C48.4577 41.6155 52.5578 41.368 55.9893 40.9625C59.4055 40.5589 62.2091 39.9934 63.9473 39.2255L63.5432 38.3108ZM60.9948 8.25195C63.3088 12.4771 66.0177 19.1627 67.0774 25.2449C67.6076 28.2882 67.7176 31.1399 67.1872 33.4435C66.6599 35.733 65.5133 37.4405 63.5432 38.3108L63.9473 39.2255C66.2841 38.1932 67.5854 36.1702 68.1616 33.6679C68.7346 31.1795 68.6035 28.1781 68.0625 25.0733C66.9799 18.8594 64.2258 12.0695 61.8719 7.77159L60.9948 8.25195Z" fill="black"/>
<path d="M44.4664 9.79507C41.0809 7.61738 36.8673 8.88765 34.7596 12.3773L33.9339 13.7424L32.6797 12.7562C29.4821 10.2331 25.086 10.5313 22.6859 13.763C19.9363 17.4713 20.7772 23.0746 24.3569 25.8991L36.6796 35.6099C37.4755 36.2368 38.5471 36.0416 39.0709 35.1743L47.1773 21.7417C49.5363 17.8353 48.3471 12.2955 44.4664 9.79507V9.79507Z" fill="#ECBD17"/>
<path d="M14.6855 62.6826C14.6855 62.9919 14.5798 63.2197 14.3682 63.3662C14.1729 63.529 13.9531 63.6104 13.709 63.6104C13.4648 63.6104 13.2451 63.529 13.0498 63.3662C12.8545 63.2197 12.7568 62.9919 12.7568 62.6826C12.7568 61.4131 12.9033 60.1924 13.1963 59.0205C13.4893 57.8486 13.8555 56.6849 14.2949 55.5293C14.181 55.3177 14.1484 55.0817 14.1973 54.8213C14.2949 54.4795 14.5065 54.2679 14.832 54.1865C15.1576 53.4053 15.4912 52.6322 15.833 51.8672C16.1911 51.0859 16.5329 50.3047 16.8584 49.5234C17.1839 48.7422 17.485 47.9528 17.7617 47.1553C18.0384 46.3577 18.2663 45.5439 18.4453 44.7139C18.4941 44.4697 18.5918 44.2581 18.7383 44.0791C18.901 43.9001 19.1208 43.8105 19.3975 43.8105C19.6579 43.8105 19.8939 43.9082 20.1055 44.1035C20.3171 44.2826 20.4066 44.5104 20.374 44.7871C20.3252 45.7311 20.3415 46.6019 20.4229 47.3994C20.5042 48.1807 20.6263 48.9619 20.7891 49.7432C20.9518 50.5081 21.1309 51.2812 21.3262 52.0625C21.5378 52.8275 21.7331 53.5924 21.9121 54.3574C22.0911 55.0898 22.2539 55.8223 22.4004 56.5547C22.5469 57.2871 22.7829 57.9951 23.1084 58.6787C23.2712 59.0205 23.4421 59.3542 23.6211 59.6797C23.8001 59.9889 23.9954 60.3063 24.207 60.6318C24.4023 60.9248 24.5814 61.234 24.7441 61.5596C24.9069 61.8688 25.0208 62.2106 25.0859 62.585C25.1185 62.8454 25.0778 63.0895 24.9639 63.3174C24.8662 63.5452 24.679 63.6999 24.4023 63.7812C24.1745 63.8464 23.9303 63.8138 23.6699 63.6836C23.4095 63.5534 23.2549 63.3581 23.2061 63.0977C23.141 62.7233 23.0107 62.3896 22.8154 62.0967C22.6364 61.8037 22.4492 61.5026 22.2539 61.1934C22.026 60.8353 21.8145 60.4772 21.6191 60.1191C21.4401 59.7448 21.2773 59.3623 21.1309 58.9717C20.9681 58.5648 20.8298 58.1579 20.7158 57.751C20.6019 57.3278 20.4961 56.9046 20.3984 56.4814C19.666 56.4326 18.9417 56.4001 18.2256 56.3838C17.5257 56.3512 16.8177 56.2943 16.1016 56.2129C15.7109 57.2546 15.3773 58.3125 15.1006 59.3867C14.8402 60.4609 14.7018 61.5596 14.6855 62.6826ZM16.9805 54.04C16.9479 54.0889 16.9235 54.1458 16.9072 54.2109C16.9072 54.2598 16.891 54.3086 16.8584 54.3574C17.3792 54.4062 17.8919 54.4388 18.3965 54.4551C18.901 54.4551 19.4137 54.4714 19.9346 54.5039C19.7555 53.7227 19.5602 52.9495 19.3486 52.1846C19.1533 51.4033 18.9743 50.6139 18.8115 49.8164C18.5186 50.5326 18.2174 51.2406 17.9082 51.9404C17.599 52.624 17.2897 53.3239 16.9805 54.04ZM27.5186 61.291C27.7301 61.4212 27.8929 61.6165 28.0068 61.877C28.1208 62.1374 28.137 62.3815 28.0557 62.6094C27.958 62.8861 27.7952 63.0895 27.5674 63.2197C27.3883 63.415 27.1605 63.5046 26.8838 63.4883C26.6071 63.4883 26.3792 63.3988 26.2002 63.2197C25.9561 63.0244 25.8014 62.8617 25.7363 62.7314C25.6061 62.5036 25.5654 62.2757 25.6143 62.0479C25.6794 61.82 25.8096 61.6247 26.0049 61.4619C26.0374 61.4294 26.0781 61.3968 26.127 61.3643C26.1758 61.3154 26.2246 61.2747 26.2734 61.2422C26.4199 61.1771 26.5013 61.1445 26.5176 61.1445C26.5501 61.1445 26.6478 61.1283 26.8105 61.0957C26.9408 61.0957 27.0384 61.112 27.1035 61.1445C27.2663 61.1771 27.4046 61.2259 27.5186 61.291Z" fill="black"/>
<path d="M53.6855 62.6826C53.6855 62.9919 53.5798 63.2197 53.3682 63.3662C53.1729 63.529 52.9531 63.6104 52.709 63.6104C52.4648 63.6104 52.2451 63.529 52.0498 63.3662C51.8545 63.2197 51.7568 62.9919 51.7568 62.6826C51.7568 61.4131 51.9033 60.1924 52.1963 59.0205C52.4893 57.8486 52.8555 56.6849 53.2949 55.5293C53.181 55.3177 53.1484 55.0817 53.1973 54.8213C53.2949 54.4795 53.5065 54.2679 53.832 54.1865C54.1576 53.4053 54.4912 52.6322 54.833 51.8672C55.1911 51.0859 55.5329 50.3047 55.8584 49.5234C56.1839 48.7422 56.485 47.9528 56.7617 47.1553C57.0384 46.3577 57.2663 45.5439 57.4453 44.7139C57.4941 44.4697 57.5918 44.2581 57.7383 44.0791C57.901 43.9001 58.1208 43.8105 58.3975 43.8105C58.6579 43.8105 58.8939 43.9082 59.1055 44.1035C59.3171 44.2826 59.4066 44.5104 59.374 44.7871C59.3252 45.7311 59.3415 46.6019 59.4229 47.3994C59.5042 48.1807 59.6263 48.9619 59.7891 49.7432C59.9518 50.5081 60.1309 51.2812 60.3262 52.0625C60.5378 52.8275 60.7331 53.5924 60.9121 54.3574C61.0911 55.0898 61.2539 55.8223 61.4004 56.5547C61.5469 57.2871 61.7829 57.9951 62.1084 58.6787C62.2712 59.0205 62.4421 59.3542 62.6211 59.6797C62.8001 59.9889 62.9954 60.3063 63.207 60.6318C63.4023 60.9248 63.5814 61.234 63.7441 61.5596C63.9069 61.8688 64.0208 62.2106 64.0859 62.585C64.1185 62.8454 64.0778 63.0895 63.9639 63.3174C63.8662 63.5452 63.679 63.6999 63.4023 63.7812C63.1745 63.8464 62.9303 63.8138 62.6699 63.6836C62.4095 63.5534 62.2549 63.3581 62.2061 63.0977C62.141 62.7233 62.0107 62.3896 61.8154 62.0967C61.6364 61.8037 61.4492 61.5026 61.2539 61.1934C61.026 60.8353 60.8145 60.4772 60.6191 60.1191C60.4401 59.7448 60.2773 59.3623 60.1309 58.9717C59.9681 58.5648 59.8298 58.1579 59.7158 57.751C59.6019 57.3278 59.4961 56.9046 59.3984 56.4814C58.666 56.4326 57.9417 56.4001 57.2256 56.3838C56.5257 56.3512 55.8177 56.2943 55.1016 56.2129C54.7109 57.2546 54.3773 58.3125 54.1006 59.3867C53.8402 60.4609 53.7018 61.5596 53.6855 62.6826ZM55.9805 54.04C55.9479 54.0889 55.9235 54.1458 55.9072 54.2109C55.9072 54.2598 55.891 54.3086 55.8584 54.3574C56.3792 54.4062 56.8919 54.4388 57.3965 54.4551C57.901 54.4551 58.4137 54.4714 58.9346 54.5039C58.7555 53.7227 58.5602 52.9495 58.3486 52.1846C58.1533 51.4033 57.9743 50.6139 57.8115 49.8164C57.5186 50.5326 57.2174 51.2406 56.9082 51.9404C56.599 52.624 56.2897 53.3239 55.9805 54.04ZM66.5186 61.291C66.7301 61.4212 66.8929 61.6165 67.0068 61.877C67.1208 62.1374 67.137 62.3815 67.0557 62.6094C66.958 62.8861 66.7952 63.0895 66.5674 63.2197C66.3883 63.415 66.1605 63.5046 65.8838 63.4883C65.6071 63.4883 65.3792 63.3988 65.2002 63.2197C64.9561 63.0244 64.8014 62.8617 64.7363 62.7314C64.6061 62.5036 64.5654 62.2757 64.6143 62.0479C64.6794 61.82 64.8096 61.6247 65.0049 61.4619C65.0374 61.4294 65.0781 61.3968 65.127 61.3643C65.1758 61.3154 65.2246 61.2747 65.2734 61.2422C65.4199 61.1771 65.5013 61.1445 65.5176 61.1445C65.5501 61.1445 65.6478 61.1283 65.8105 61.0957C65.9408 61.0957 66.0384 61.112 66.1035 61.1445C66.2663 61.1771 66.4046 61.2259 66.5186 61.291Z" fill="black"/>
</svg>
