<svg width="23" height="21" viewBox="0 0 23 21" fill="none" xmlns="http://www.w3.org/2000/svg">
<path d="M20.4375 10.5H2.5625C2.01549 10.5 1.49089 10.7371 1.10409 11.159C0.717298 11.581 0.5 12.1533 0.5 12.75C0.5 13.3467 0.717298 13.919 1.10409 14.341C1.49089 14.7629 2.01549 15 2.5625 15H20.4375C20.9845 15 21.5091 14.7629 21.8959 14.341C22.2827 13.919 22.5 13.3467 22.5 12.75C22.5 12.1533 22.2827 11.581 21.8959 11.159C21.5091 10.7371 20.9845 10.5 20.4375 10.5V10.5ZM21.125 16.5H1.875C1.69266 16.5 1.5178 16.579 1.38886 16.7197C1.25993 16.8603 1.1875 17.0511 1.1875 17.25V18C1.1875 18.7956 1.47723 19.5587 1.99296 20.1213C2.50868 20.6839 3.20815 21 3.9375 21H19.0625C19.7918 21 20.4913 20.6839 21.007 20.1213C21.5228 19.5587 21.8125 18.7956 21.8125 18V17.25C21.8125 17.0511 21.7401 16.8603 21.6111 16.7197C21.4822 16.579 21.3073 16.5 21.125 16.5ZM3.01969 9H19.9803C21.4657 9 22.3273 6.94219 21.4765 5.44312C19.75 2.4 15.9494 0.0046875 11.5 0C7.05102 0.0046875 3.25 2.4 1.52352 5.44266C0.671875 6.94172 1.53426 9 3.01969 9ZM17 3.75C17.136 3.75 17.2689 3.79399 17.382 3.8764C17.495 3.95881 17.5831 4.07594 17.6352 4.21299C17.6872 4.35003 17.7008 4.50083 17.6743 4.64632C17.6478 4.7918 17.5823 4.92544 17.4861 5.03033C17.39 5.13522 17.2675 5.20665 17.1341 5.23559C17.0008 5.26453 16.8625 5.24968 16.7369 5.19291C16.6113 5.13614 16.5039 5.04001 16.4284 4.91668C16.3528 4.79334 16.3125 4.64834 16.3125 4.5C16.3125 4.30109 16.3849 4.11032 16.5139 3.96967C16.6428 3.82902 16.8177 3.75 17 3.75V3.75ZM11.5 2.25C11.636 2.25 11.7689 2.29399 11.882 2.3764C11.995 2.45881 12.0831 2.57594 12.1352 2.71299C12.1872 2.85003 12.2008 3.00083 12.1743 3.14632C12.1478 3.2918 12.0823 3.42544 11.9861 3.53033C11.89 3.63522 11.7675 3.70665 11.6341 3.73559C11.5008 3.76453 11.3625 3.74968 11.2369 3.69291C11.1113 3.63614 11.0039 3.54001 10.9284 3.41668C10.8528 3.29334 10.8125 3.14834 10.8125 3C10.8125 2.80109 10.8849 2.61032 11.0139 2.46967C11.1428 2.32902 11.3177 2.25 11.5 2.25V2.25ZM6 3.75C6.13597 3.75 6.2689 3.79399 6.38195 3.8764C6.49501 3.95881 6.58313 4.07594 6.63517 4.21299C6.6872 4.35003 6.70082 4.50083 6.67429 4.64632C6.64776 4.7918 6.58228 4.92544 6.48614 5.03033C6.38999 5.13522 6.26749 5.20665 6.13412 5.23559C6.00076 5.26453 5.86253 5.24968 5.73691 5.19291C5.61128 5.13614 5.50391 5.04001 5.42836 4.91668C5.35282 4.79334 5.3125 4.64834 5.3125 4.5C5.3125 4.30109 5.38493 4.11032 5.51386 3.96967C5.6428 3.82902 5.81766 3.75 6 3.75V3.75Z" fill="black"/>
</svg>
