<svg width="416" height="588" viewBox="0 0 416 588" fill="none" xmlns="http://www.w3.org/2000/svg">
<path d="M113.505 531.278L111.22 533.798L110.739 535.598L110.379 537.638L111.459 538.717L115.061 540.637L119.143 542.197L123.705 542.436L127.306 542.552L128.987 542.912L128.627 544.712L127.305 546.271L126.465 547.711L125.865 549.271L128.506 548.551L133.308 546.511L138.831 545.311L143.272 543.512L146.514 542.312L149.155 541.112L151.556 537.152L152.757 533.073V528.753V526.354L152.276 524.194L149.635 522.875L146.153 521.675H143.752L140.276 520.596L139.435 523.955L137.274 527.914L134.153 531.634L128.87 533.793L124.309 534.033L119.747 533.313L113.505 531.278Z" fill="#030406" stroke="black" stroke-width="0.366477"/>
<path d="M110.379 537.638L107.678 540.337L106.899 541.478L106.659 543.397L106.299 546.157V548.077L106.059 550.116L106.779 550.836L108.34 551.435L111.101 551.675H114.463L119.265 551.076L122.746 550.356L125.866 549.272L127.307 546.273L128.988 542.913L127.307 542.553L119.144 542.198L115.062 540.638L110.379 537.638Z" fill="white" stroke="black" stroke-width="0.366477"/>
<path d="M176.887 534.038L173.886 535.238L171.365 535.478L170.164 534.758L169.684 531.518V528.999L169.8 525.879V524.08L173.641 524.92H175.442L177.363 531.519V532.719L176.887 534.038Z" fill="white" stroke="black" stroke-width="0.366477"/>
<path d="M106.059 550.116L105.577 553.115L106.418 555.275L109.059 556.594L111.7 557.673L116.982 558.154L123.945 557.434L131.268 555.995L136.791 554.195L144.114 552.035L150.356 549.995L156.719 547.596L161.161 546.036L171.605 542.797L174.967 541.117L176.407 540.158L177.728 537.638L176.888 534.039L173.886 535.239L171.365 535.478L169.684 531.519L169.8 524.08L165.243 521.681L162.601 521.082L158.88 519.402L154.078 517.963H150.717L148.916 517.846L145.795 518.446L143.033 519.166L140.276 520.601L143.753 521.68H146.154L149.635 522.88L152.276 524.199L152.757 526.359V533.078L151.556 537.157L149.155 541.116L138.831 545.316L133.308 546.516L125.865 549.276L114.463 551.68L108.34 551.44L106.059 550.116Z" fill="#747369" stroke="black" stroke-width="0.366477"/>
<path d="M183.125 554.915L183.128 558.754L182.768 560.794L183.008 562.474L184.568 562.59L188.53 563.07H192.972C192.972 563.07 196.573 563.186 197.174 563.186C197.773 563.186 200.655 563.302 200.655 563.302L202.696 563.063L202.936 563.903L202.215 565.943L201.616 567.862L201.016 570.142L200.536 572.901L199.695 575.301L198.615 576.861L198.255 578.3L202.216 577.94L206.658 576.981L210.86 575.182L215.422 574.701L221.064 573.981L224.185 573.022L225.746 571.822L226.346 568.703L226.945 564.024L226.346 555.985V551.546L225.386 548.186L224.666 546.986L222.505 546.027L218.063 543.507L214.942 542.188L212.18 540.268L209.778 538.348L209.894 541.587L207.973 545.787L205.092 551.066L199.09 555.505L192.247 556.105L183.125 554.915Z" fill="#010101" stroke="black" stroke-width="0.366477"/>
<path d="M183.008 562.474L182.892 565.593L182.652 567.273L182.536 570.032C182.536 570.032 182.055 571.952 182.055 572.432C182.055 572.912 182.172 575.311 182.172 575.311C183.051 579.473 185.384 578.629 188.653 578.555H195.736L198.256 578.304L199.696 575.305L200.537 572.905L201.017 570.146L202.697 563.067L200.656 563.306L188.531 563.074L183.008 562.474Z" fill="white" stroke="black" stroke-width="0.366477"/>
<path d="M243.875 546.156L244.956 549.516C244.956 549.516 245.796 553.235 246.277 554.315C246.757 555.395 248.558 561.274 248.558 561.274L249.758 564.513L251.08 565.353L252.76 563.674L255.281 558.275L256.601 553.715V550.116L255.521 546.876L254.081 544.117L253.36 541.717L252.039 541.357L249.278 543.397L246.517 545.917L243.875 546.156Z" fill="white" stroke="black" stroke-width="0.366477"/>
<path d="M249.758 564.513L249.517 567.513L250.358 569.792L253.839 568.833L256.841 567.872L259.122 565.353L260.682 562.114L259.481 559.834L258.522 558.754L255.282 558.274L252.761 563.673L251.08 565.353L249.758 564.513Z" fill="#010101" stroke="black" stroke-width="0.366477"/>
<path d="M183.13 578.431C183.49 579.39 185.291 583.35 185.291 583.35L187.932 584.67L193.574 585.511L202.338 585.03L210.021 583.591L219.025 582.632L225.988 580.592L232.471 579.752L241.354 577.712L250.118 576.152L254.68 573.753L257.561 571.953L259.362 570.033L260.624 565.33L261.38 564.021L260.683 562.115L259.123 565.354L256.841 567.874L250.359 569.793L249.518 567.514L249.759 564.514L246.637 554.916L244.956 549.517L243.876 546.157L236.913 546.273H231.751L224.667 546.983L225.387 548.183L226.347 551.542V555.982L226.946 564.02L225.747 571.819L221.065 573.978L210.861 575.178L206.659 576.978L202.217 577.937L195.737 578.553L183.13 578.431Z" fill="#747369" stroke="black" stroke-width="0.366477"/>
<path d="M180.729 530.919L181.689 534.158L182.769 538.478V542.077V544.956L182.885 548.916V552.995L183.124 554.915L185.886 555.514L192.248 556.113L199.091 555.514L205.094 551.075L207.975 545.795L209.896 541.596L209.78 538.357L208.339 534.877L207.619 531.038L206.659 528.518L205.579 525.639V524.318L201.857 525.878L198.893 527.589L196.364 528.266L190.213 530.558L187.331 531.038L180.729 530.919Z" fill="#CD7E57" stroke="black" stroke-width="0.366477"/>
<path d="M114.221 508.123V512.082L113.981 516.161V519.281L114.221 522.4L113.861 525.52L113.621 528.759L113.505 531.279L115.546 532.119L119.748 533.319L124.31 534.039L128.872 533.799L134.154 531.64L137.275 527.92L139.436 523.961L140.277 520.601L140.037 517.002L139.196 512.923L138.356 509.203L138.24 505.604V503.564L136.92 504.644L130.557 506.563L125.035 507.882L118.672 508.842L114.221 508.123Z" fill="#CD7E57" stroke="black" stroke-width="0.366477"/>
<path d="M176.047 96.1105L175.687 104.989L175.926 109.308L176.407 118.547L176.888 125.386L176.771 138.223L177.011 143.503L176.771 147.822L176.655 152.741L176.771 155.98L176.532 158.86L183.615 159.459H189.858L200.062 159.343H210.506L222.391 159.943L231.275 160.303L234.876 160.186L235.357 147.588L235.117 131.511L235.233 119.153V105.835L234.634 97.3168L234.394 93.8374L231.153 94.3176H227.431L222.149 94.5571L217.227 94.7965L216.507 96.3563L209.904 96.2402L193.697 95.281L185.894 95.0416H180.251L176.05 95.1577L176.047 96.1105Z" fill="white" stroke="black" stroke-width="0.366477"/>
<g filter="url(#filter0_f)">
<path d="M179.408 98.8702L180.128 106.909L180.488 114.468L180.372 118.187L180.732 122.266L181.332 126.226C181.332 126.226 180.972 128.025 181.572 128.025C182.171 128.025 195.377 128.025 196.218 128.025C197.058 128.025 206.782 127.909 206.782 127.909L209.423 128.025L209.063 112.548L208.223 102.23L207.623 98.5101L198.019 98.9905L187.334 98.5101L181.692 98.2707L179.408 98.8702Z" fill="#C6C7BF"/>
<path d="M179.408 98.8702L180.128 106.909L180.488 114.468L180.372 118.187L180.732 122.266L181.332 126.226C181.332 126.226 180.972 128.025 181.572 128.025C182.171 128.025 195.377 128.025 196.218 128.025C197.058 128.025 206.782 127.909 206.782 127.909L209.423 128.025L209.063 112.548L208.223 102.23L207.623 98.5101L198.019 98.9905L187.334 98.5101L181.692 98.2707L179.408 98.8702Z" stroke="black" stroke-width="0.366477"/>
</g>
<path d="M181.569 121.066L186.011 121.183H196.936L203.298 120.943L204.739 120.463V114.104L204.978 107.025L204.018 100.906L203.658 99.587L198.019 98.9877L190.213 99.587L183.97 99.4709L179.408 98.8716L180.729 104.871L180.846 111.229L180.485 114.469L181.569 121.066Z" fill="white" stroke="black" stroke-width="0.366477"/>
<path d="M170.765 94.5508V100.31L171.004 104.149L170.765 109.068L171.364 116.147L171.604 121.186C171.604 121.186 171.488 125.386 171.604 126.225C171.72 127.066 171.964 130.305 171.964 130.785V135.584L172.08 141.343L172.32 148.302V153.221L172.465 158.615L176.531 158.861L176.887 154.782V145.604L177.067 136.785L176.887 130.906L175.977 111.386L176.049 96.1119L185.996 95.9449L200.767 95.7752L210.953 95.9449L216.509 96.3571L217.229 94.7973L208.407 94.4171L197.371 94.2473L186.166 93.7381L170.765 94.5508Z" fill="#C6C7BF" stroke="black" stroke-width="0.366477"/>
<path d="M176.532 158.86C176.532 158.86 183.37 169.058 183.85 169.538C184.331 170.019 187.332 172.778 188.052 173.858C188.772 174.937 192.494 178.057 192.494 178.057C192.494 178.057 196.455 180.577 197.176 181.536C197.896 182.496 201.618 184.416 203.058 185.496C204.498 186.575 206.179 188.975 208.34 190.055C210.501 191.135 217.824 196.054 219.385 197.014C220.946 197.973 224.907 201.453 226.108 202.053C227.309 202.652 230.91 205.412 231.87 206.252C232.83 207.093 237.152 210.092 237.513 210.572C237.873 211.052 241.354 215.131 241.954 215.971C242.554 216.811 244.956 220.65 244.956 220.65L247.957 226.649L250.958 229.768C250.958 229.768 252.999 232.288 253.839 233.368C254.68 234.448 256.361 237.327 256.961 238.167C257.56 239.007 261.162 242.246 262.843 243.086C264.524 243.926 266.565 245.606 267.285 246.086C268.005 246.566 271.367 247.286 271.367 247.286L274.728 246.206L277.489 245.247L281.331 245.607L282.532 242.847L281.691 237.088L280.731 232.529L279.41 228.33V226.65L280.731 224.49L281.451 222.451L282.051 220.771C278.144 220.505 275.923 215.866 275.952 212.083C275.941 212.156 275.569 210.335 275.923 208.656V206.736L275.807 204.936L274.606 202.897L274.411 200.752C274.411 200.752 273.47 198.408 273.47 197.808C273.47 197.209 273.162 195.218 273.162 195.218L273.642 193.058L274.843 190.18V190.179V188.739V186.58L273.283 189.339L272.442 191.979C272.442 191.979 271.601 194.498 271.481 194.978C271.365 195.459 270.28 197.138 270.28 197.138V198.578V198.937V199.897L271.36 202.176L272.44 204.456L272.68 205.895L271.96 206.855L270.159 206.971L268.719 207.69C268.719 207.69 268.603 209.49 268.603 209.97C268.603 210.45 268.486 211.291 268.486 211.291C268.486 211.291 268.967 212.131 269.086 212.61C269.202 213.09 269.326 213.93 269.202 214.409C269.086 214.89 268.603 215.609 268.603 215.609L268.242 217.889V220.409L268.359 222.808V225.328V227.847C268.359 227.847 268.958 229.767 268.958 230.247C268.958 230.727 268.958 232.766 269.198 233.246C269.437 233.727 269.558 235.166 269.918 235.886C270.278 236.606 270.638 238.046 270.638 238.046L271.479 239.605L274 241.645L274.841 242.005L274.48 243.085L274.12 244.404L272.44 245.244L270.399 245.724C270.399 245.724 271.6 245.244 269.918 243.564C268.237 241.885 266.917 240.445 266.917 240.445C266.917 240.445 265.957 239.965 265.477 238.885C264.996 237.805 260.194 234.926 260.194 234.926L258.874 231.806L255.153 227.007L251.672 223.767L250.111 221.848C250.111 221.848 249.151 219.808 248.31 218.968C247.469 218.128 246.029 215.009 245.549 214.289C245.068 213.569 242.548 209.73 242.188 209.25C241.828 208.77 238.346 206.25 238.346 206.25L234.144 203.732L228.261 199.412L222.979 194.253L216.976 191.133L213.375 187.414L208.933 184.775L204.731 181.775L200.049 178.176L196.328 175.776C196.328 175.776 192.966 173.377 192.726 172.897C192.487 172.416 188.525 169.417 188.525 169.417L186.004 166.058L182.522 162.818L181.202 161.019L179.642 159.219L176.532 158.86Z" fill="white" stroke="black" stroke-width="0.366477"/>
<path d="M274.849 190.18L273.168 195.219L274.612 202.897L275.813 204.937L275.929 208.657C274.837 215.591 276.812 218.568 279.173 219.868C280.649 220.681 281.984 220.724 283.492 221.01L287.234 220.008L289.753 218.554C289.753 218.554 291.155 217.289 291.945 217.289H295.017L298.781 215.117L301.992 213.264L304.766 211.663L309.063 206.012L309.903 203.372L312.904 198.213L313.504 195.574L315.305 191.735L316.385 188.855L317.465 187.295L318.787 186.455L316.746 184.655L315.786 182.256L316.146 180.456L315.547 178.776L311.345 177.816C311.345 177.816 309.664 177.216 309.784 176.497C309.9 175.777 310.625 172.297 310.625 172.297L308.464 170.618L305.343 169.898L301.141 166.538L298.62 163.419L293.698 162.939L289.496 162.823L286.975 162.223L284.574 162.339L282.533 164.979L279.892 167.378L278.691 169.538C278.691 169.538 277.611 170.978 277.37 171.698C277.13 172.418 276.41 173.737 276.41 173.737L275.93 175.657L276.046 177.457V178.896C276.046 178.896 275.086 177.937 274.845 178.78C274.606 179.62 274.125 180.82 274.125 180.82L274.241 182.5L274.842 186.584L274.849 190.18Z" fill="#CD7E57" stroke="black" stroke-width="0.366477"/>
<path d="M288.114 184.77L290.406 185.363L292.613 185.109L295.16 185.279C295.16 185.279 296.518 185.279 296.943 185.449C297.367 185.619 301.102 186.722 301.102 186.722L303.819 188.588L301.017 185.11C301.017 185.11 297.197 183.413 296.858 183.413C296.518 183.413 293.038 181.801 291.849 182.056C290.662 182.31 288.624 182.735 288.624 182.735L288.114 184.77Z" fill="#0A0A08" stroke="black" stroke-width="0.366477"/>
<path d="M275.449 188.135L277.069 188.975C277.069 188.975 278.45 189.215 278.69 189.276C278.93 189.334 281.031 189.392 281.031 189.392L282.291 188.852L282.111 186.752L280.55 185.253L278.269 184.592L276.289 184.772L274.842 186.576L275.507 187.832L275.449 188.135Z" fill="#FFFFFE" stroke="black" stroke-width="0.366477"/>
<path d="M280.55 185.253L278.81 186.515C278.81 186.515 278.27 187.175 278.27 187.474C278.27 187.775 279.23 189.094 279.23 189.094L281.03 189.391C281.807 188.772 281.958 187.762 282.111 186.752C281.502 186.099 280.85 185.369 280.55 185.253V185.253Z" fill="#0A0A08" stroke="black" stroke-width="0.366477"/>
<path d="M290.406 191.302L292.274 192.575L294.141 192.999L296.518 192.659L299.15 192.32H300.932C300.932 192.32 300.678 191.131 300.339 190.538C299.999 189.944 298.556 188.926 298.556 188.926L296.349 187.993L293.293 187.653L291.001 188.163C291.001 188.163 290.067 187.909 290.067 188.502C290.067 189.096 290.407 191.302 290.407 191.302L290.406 191.302Z" fill="#FFFFFE" stroke="black" stroke-width="0.366477"/>
<path d="M295.257 188.915L295.373 190.775L296.093 191.975L299.146 192.32H300.928L300.175 190.296L298.552 188.927C296.97 188.937 295.545 187.571 295.257 188.915V188.915Z" fill="#0A0A08" stroke="black" stroke-width="0.366477"/>
<path d="M282.051 192.095L280.491 194.974C276.274 197.8 278.113 201.443 280.846 201.089C281.327 201.089 283.607 200.249 283.607 200.249C289.069 201.124 288.099 198.856 286.969 196.889" stroke="#513535" stroke-width="0.366477"/>
<path d="M275.93 175.656L275.929 169.178L277.009 166.779L280.971 161.38L284.692 158.86L289.734 152.381H292.135C292.135 152.381 296.697 151.662 297.778 151.662H306.541C306.541 151.662 310.863 151.545 312.664 151.778C314.465 152.017 319.867 153.337 319.867 153.337L326.11 155.857C326.11 155.857 329.951 158.977 330.311 160.056C330.671 161.136 333.433 165.215 333.673 165.815C333.912 166.415 335.473 169.415 335.473 169.895C335.473 170.375 336.194 173.854 336.194 173.854L337.754 175.654C337.754 175.654 338.595 177.093 338.714 177.573C338.83 178.054 339.314 181.293 339.314 181.293C339.314 181.293 339.43 184.172 339.197 184.892C338.958 185.612 337.517 186.452 337.517 187.772C337.517 189.092 337.997 190.051 337.997 190.891C337.997 191.731 337.637 193.891 337.398 194.371C337.158 194.851 335.597 194.97 335.477 196.41C335.361 197.85 335.361 200.13 334.996 200.61C334.636 201.09 333.195 204.449 333.195 204.929C333.195 205.409 332.715 207.808 332.475 208.408C332.236 209.008 331.395 210.808 331.395 210.808L329.968 213.696L328.779 215.902L327.929 219.635L326.062 222.18L323.006 223.622L322.496 226.168L322.072 226.761H320.205L318.592 227.101L315.96 229.391L315.366 231.173L314.433 232.106L312.141 233.718L310.103 234.737L308.746 236.433C308.746 236.433 307.897 237.452 307.642 237.79C307.388 238.13 306.283 239.402 306.283 239.402L302.294 243.135L299.238 246.189L297.116 246.443L294.823 250.685L293.89 252.467L292.616 255.351L291.683 257.133L290.664 258.915L288.626 261.884L287.947 263.835L287.437 265.956L287.267 267.568L286.758 269.859L285.994 271.725L286.164 274.44L287.013 279.7L285.994 280.973L284.551 281.822L283.787 284.452L283.533 286.403L283.109 287.252L282.939 281.483L282.345 279.447L282.005 277.495L282.855 275.714L283.958 274.695L284.552 270.792L285.486 266.975L285.995 263.666L287.184 260.357L288.034 255.776L289.137 252.722C289.137 252.722 290.835 250.516 291.005 250.177L293.127 245.935L294.74 242.965L296.777 239.996L299.069 236.687L300.767 233.718L306.539 228.034L309.595 225.573L312.142 223.113L316.981 216.75L319.103 212.678L320.292 209.708L321.481 207.503L322.585 202.921L324.792 200.207L326.66 198.001L327.509 195.795L327.849 191.807L326.915 187.99L325.812 185.444L324.708 184.172L323.775 183.409L322.077 184.511L318.794 186.45L315.793 182.251L315.553 178.772L311.352 177.811L309.937 176.707L310.631 172.293L308.471 170.614L305.349 169.894C302.974 171.503 302.044 167.62 298.561 164.79C294.766 166.348 292.309 163.565 289.503 162.818C286.741 166.577 285.631 164.561 284.581 162.335C282.289 165.698 281.318 166.021 279.899 167.374L275.93 175.656Z" fill="#0A0A08" stroke="black" stroke-width="0.366477"/>
<path d="M274.193 246.702L271.646 250.011L271.816 252.302C271.816 252.302 271.903 255.356 272.07 255.78C272.24 256.204 272.75 259.852 272.75 260.276C272.75 260.7 272.41 266.045 272.41 266.045L271.816 269.693L271.306 272.323C271.306 272.323 270.882 273.596 270.797 274.02C270.71 274.444 270.71 276.82 270.71 276.82L270.456 279.874H271.389L271.813 276.141L273.256 274.19L274.274 270.202L274.784 266.979L275.717 262.567L275.63 259.513L276.988 255.949L277.667 253.913L279.45 251.538L280.893 249.332L281.233 247.381L282.527 242.847L284.969 237.624L285.732 235.928L286.156 233.043L286.75 230.837L287.09 227.868L287.939 224.983L288.619 222.438L290.571 220.487L291.76 217.772L289.751 218.554L287.232 220.007C285.505 220.261 281.536 222.176 282.109 222.09L280.73 224.49L279.408 226.65L280.73 232.529L282.53 242.847L281.329 245.607L277.488 245.247L274.193 246.702Z" fill="#0A0A08" stroke="black" stroke-width="0.366477"/>
<path d="M274.241 182.499L274.125 180.819L274.198 179.086L276.051 178.895L279.206 180.782L281.498 182.564L280.055 182.734L277.848 182.14L276.49 181.971L274.241 182.499Z" fill="#0A0A08" stroke="black" stroke-width="0.366477"/>
<path d="M291.76 217.772L292.274 220.996L291.087 222.862L289.897 225.068C289.897 225.068 289.473 227.274 289.473 227.613C289.473 227.953 289.897 230.074 289.897 230.413C289.897 230.753 289.81 233.382 289.81 233.382L289.64 235.588C289.64 235.588 289.98 237.285 290.828 237.115C291.677 236.945 296.091 236.692 296.431 236.522C296.77 236.352 299.067 236.687 299.067 236.687L300.764 233.718L306.537 228.034L312.139 223.113L317.653 214.718L316.549 211.324L317.483 206.658L318.417 204.877L322.582 202.921L326.657 198.001L327.846 191.807L326.912 187.99L324.705 184.172L323.772 183.409L318.784 186.454C315.631 188.209 315.086 192.371 313.501 195.573C313.845 196.509 312.851 198.888 309.903 203.372L309.062 206.011L304.763 211.663L295.014 217.288L291.76 217.772Z" fill="#CD7E57" stroke="black" stroke-width="0.366477"/>
<path d="M317.231 198.005L319.523 197.918L322.155 197.664L323.682 196.731L324.872 193.083L324.448 190.622L324.535 189.265" stroke="#363636" stroke-width="0.366477"/>
<path d="M319.863 197.75L318.843 196.223L318.756 194.441L318.586 192.914L319.096 192.066L320.879 191.812L324.445 190.622L324.869 193.082L323.68 196.73L319.863 197.75Z" fill="#BB765B" stroke="black" stroke-width="0.366477"/>
<path d="M289.64 235.588L289.812 231.261L289.132 227.613L289.896 225.068L291.085 222.862L292.273 220.996L290.57 220.487L288.617 222.438L287.088 227.868L286.155 233.043L285.731 235.927L282.53 242.847L280.892 249.332L277.666 253.913L275.629 259.513L275.716 262.567L275.379 266.809L274.271 270.202L273.253 274.19L271.81 276.141L271.386 279.874H270.453L271.303 272.323L272.407 266.045L272.662 260.276L270.37 264.518L269.181 268.59C269.181 268.59 267.568 272.323 267.568 272.747C267.568 273.171 266.381 276.904 266.295 277.583C266.208 278.262 264.936 281.91 264.852 282.928C264.765 283.947 264.088 287.764 264.088 287.764C264.088 287.764 263.408 290.309 263.408 290.733C263.408 291.157 262.985 296.248 262.985 296.248L262.305 302.695L262.392 308.634L261.798 317.797L260.949 324.414L260.862 328.996L260.692 333.492L261.286 336.801L262.389 340.194L264.766 343.079L267.567 341.806L272.236 341.382C272.236 341.382 277.499 341.043 278.009 340.789C278.518 340.535 283.187 339.092 283.187 339.092L286.073 336.971L290.487 335.783L294.477 334.426L297.024 333.407L298.297 331.371L299.231 328.062C299.231 328.062 299.57 326.706 299.824 326.281C300.079 325.857 301.098 324.584 301.098 324.584L302.287 322.803C302.287 322.803 302.966 321.021 302.966 320.512C302.966 320.002 303.73 317.712 303.73 317.712L304.41 314.828L304.018 307.756L303.778 303.076L303.538 298.637L303.178 294.318L302.818 289.639L302.935 284.239V280.4L303.295 276.321L305.816 273.921L312.058 272.602H317.7L321.782 272.962L324.423 274.522L324.307 278.241L324.067 284.72L323.347 293.239V298.878L323.108 303.317L322.748 307.636L322.388 313.395L321.307 318.434L319.987 323.594L318.907 326.953H321.668L325.87 325.393L327.31 323.954L328.991 322.633C328.991 322.633 330.071 318.314 330.071 317.834C330.071 317.354 329.351 311.595 329.351 310.995V301.157L329.112 295.998L328.752 289.399L328.635 283.16L328.752 277.401V271.642L329.472 265.523L329.232 255.444L329.472 248.126L329.356 243.447L329.472 237.927L328.512 224.849L326.063 222.18L323.007 223.623L322.498 226.168L318.593 227.101L315.368 231.173L310.105 234.737L299.239 246.189L297.117 246.443L292.618 255.352L288.628 261.884L287.269 267.568L286.165 274.44L287.014 279.7L284.552 281.822L283.11 287.252L282.347 279.447L282.007 277.495L282.856 275.714L283.96 274.695L285.487 266.975L288.035 255.776L289.139 252.722L294.741 242.965L299.068 236.687C298.178 236.978 296.497 236.731 294.866 236.925C292.064 237.271 289.244 237.713 289.64 235.589V235.588Z" fill="#9D6679" stroke="black" stroke-width="0.366477"/>
<path d="M318.907 326.953L322.388 313.395L323.513 300.914L323.683 291.158L324.276 280.129L324.423 274.522L321.782 272.962L317.7 272.602H312.058L305.816 273.921L303.295 276.321L302.818 289.638L304.41 314.828L302.287 322.803L299.829 326.026L298.297 331.371L297.024 333.407L295.415 340.873L293.887 346.388L292.529 351.393C292.529 351.393 291.426 355.55 291.34 355.974C291.253 356.398 289.727 360.216 289.727 360.216L288.538 363.016L287.181 365.985L285.568 368.616L284.125 371.755L281.917 374.554L279.71 376.93L278.013 379.22L276.485 381.341L274.872 383.293L273.004 387.28L272.494 389.655L271.985 391.182L271.731 393.049L271.901 394.916L271.814 396.358L271.22 397.8L271.133 399.412L271.642 400.431L271.388 402.552L271.475 404.588L271.815 405.861L272.834 406.794L274.787 407.133L276.569 404.927V405.946L276.739 407.643L278.607 408.746L280.984 408.833L282.257 407.56L283.191 405.609L283.7 407.984C283.7 407.984 285.313 407.897 285.992 407.897C286.672 407.897 288.709 407.134 288.709 407.134L289.388 404.589V402.722L290.238 404.334L292.529 404.422L294.737 403.828L296.519 398.229L296.179 394.156V389.405L296.519 383.976L297.283 380.752L298.132 376.17L302.122 366.838L304.669 360.56L306.876 355.47L309.762 350.38L312.393 343.168L315.365 334.43L317.572 328.746L318.907 326.953Z" fill="#CD7E57" stroke="black" stroke-width="0.366477"/>
<path d="M272.155 257.561L267.317 260.022L261.544 262.567L252.971 263.586C252.971 263.586 248.981 263.162 248.132 262.906C247.283 262.653 244.142 260.955 244.142 260.955C244.142 260.955 241.85 256.968 241.765 256.374C241.678 255.78 241.426 251.453 241.426 250.35C241.426 249.248 242.699 240.424 242.699 240.424L243.888 234.91L246.265 229.226L247.958 226.649L250.959 229.769L253.565 233.043L255.688 236.607L257.979 239.576L260.526 243.309L262.479 242.546L264.176 243.818L267.232 246.109L271.367 247.287L274.193 246.704L271.647 250.012L272.155 257.561Z" fill="#CD7E57" stroke="black" stroke-width="0.366477"/>
<path d="M260.526 243.309L260.356 246.193L259.253 250.011L258.234 253.574L255.772 256.458" stroke="#363636" stroke-width="0.366477"/>
<path d="M268.125 241.287L271.485 239.606L274.006 241.646L274.846 242.005L274.126 244.404C273.075 244.462 271.188 245.548 271.067 244.462L268.125 241.287Z" fill="#CD7E57" stroke="black" stroke-width="0.366477"/>
<path d="M250.117 221.849L251.442 217.602C251.442 217.602 252.122 215.227 252.376 214.718C252.63 214.209 254.498 210.73 254.498 210.73L256.281 207.422L259.082 204.792L260.525 203.349L262.478 202.67L265.024 201.143L266.214 199.362L268.336 199.022L270.286 199.897L272.447 204.456L272.686 205.896L271.966 206.855L270.165 206.971L268.725 207.691L268.493 211.291L269.27 213.869L268.609 215.61L268.249 217.889L268.082 220.996L266.978 223.032L265.365 224.474L263.838 225.493L262.055 225.747L261.375 226.934L260.612 229.14L258.881 231.806L255.16 227.007L250.117 221.849Z" fill="#CD7E57" stroke="black" stroke-width="0.366477"/>
<path d="M264.766 343.079L264.431 351.987L261.714 357.077C261.714 357.077 261.714 361.829 261.714 363.356C261.714 364.883 261.035 370.991 261.035 370.991L260.695 378.626L259.506 388.128L260.525 394.746L259.846 405.266V409.338L258.826 417.992L257.639 429.021L255.941 441.916V450.57L253.225 458.545L252.205 464.314L251.356 472.628L250.337 486.032L249.147 494.516L248.298 501.303L248.468 508.26L249.317 511.654L255.09 515.726L260.693 517.253L265.446 517.593L271.219 508.6L272.576 500.795L275.462 490.444L277.16 482.469L279.198 472.967L280.895 463.466L281.575 457.527L283.103 453.285L284.97 448.194L287.517 440.729L289.894 447.685L293.12 454.642L293.799 459.563L295.158 467.198L294.649 475.682L295.498 481.451L296.178 495.195L295.668 501.473V507.921L294.65 516.066L294.48 519.459L296.348 520.476L300.252 519.459L305.346 519.968H311.288H316.381L318.419 510.636L320.116 497.741L321.644 472.119C321.644 472.119 321.475 458.715 321.475 458.036C321.475 457.357 318.758 445.989 318.758 445.989C318.758 445.989 317.909 432.415 317.909 431.566C317.909 430.718 318.758 418.331 318.758 418.331L320.456 405.266L322.663 394.577L323.512 388.299L324.192 384.057L329.455 376.251L333.02 367.937L334.208 360.472L334.887 353.854L335.227 349.103L335.057 342.316L334.378 337.735L330.643 329.081L327.31 323.954L321.668 326.954H318.906L317.571 328.746L314.174 338.922L309.761 350.38L303.818 362.847L299.743 372.349L298.131 376.171L296.518 383.976L296.179 394.157L296.518 398.229L294.736 403.828L290.237 404.335L289.387 402.723V404.589L288.708 407.134L283.699 407.985L283.19 405.609L282.256 407.56L278.606 408.746L276.738 407.643L276.568 404.928L274.786 407.134L271.814 405.861L271.387 402.552L271.641 400.431L271.9 394.916L273.003 387.28L276.484 381.342L281.917 374.554L284.124 371.755L287.18 365.986L291.424 356.569L293.801 347.576L296.348 338.074L297.023 333.408L286.072 336.972L283.186 339.093L278.351 340.11L273.767 341.298L267.567 341.808L264.766 343.079Z" fill="#0A3E7D" stroke="black" stroke-width="0.366477"/>
<path d="M287.517 440.729L287.813 434.935C287.813 434.935 287.813 430.855 287.93 429.655C288.046 428.455 288.77 425.336 288.889 424.256C289.005 423.177 289.97 420.057 290.33 419.337C290.69 418.617 293.931 409.379 293.931 409.379L297.052 403.02L299.934 395.581L302.575 391.382L305.696 385.983L310.138 382.143L313.739 380.344L319.502 380.104" stroke="#363636" stroke-width="0.366477"/>
<path d="M294.48 519.459L293.802 524.21L288.369 525.059H284.974L280.729 526.415L279.201 527.943L279.541 533.033L279.711 537.445L281.748 537.954L287.011 539.481L294.142 541.687L301.273 544.911L308.064 546.947H312.308L316.553 545.25L318.42 541.517L319.439 539.99L317.742 537.275L316.384 535.748L315.535 531.845V526.925L316.044 523.701L316.383 519.969H305.347L300.254 519.459L296.349 520.476L294.48 519.459Z" fill="#CD7E57" stroke="black" stroke-width="0.366477"/>
<path d="M249.318 511.654L242.869 510.805L238.794 511.144L236.417 512.333L233.022 514.199L230.645 516.066L227.08 520.308L225.212 523.022L224.533 525.228L226.23 529.131L228.607 534.221C228.607 534.221 231.833 535.748 232.512 536.597C233.192 537.445 239.303 540.839 239.303 540.839L249.278 543.397L252.039 541.358L253.359 541.718L254.08 544.117L256.601 550.116L262.053 549.492L265.788 547.117L268.844 543.553L270.033 539.82L269.184 533.033L265.787 527.604L265.448 531.677L266.127 538.294L263.581 541.179L259.845 543.724L254.08 544.117L252.039 541.358L254.08 544.117L253.36 541.718L252.037 541.358L247.281 539.651L244.904 536.427L239.472 531.846L240.831 526.246L245.075 518.441L249.318 511.654Z" fill="#9D6679" stroke="black" stroke-width="0.366477"/>
<path d="M294.48 519.459C292.919 521.026 291.267 521.776 289.388 520.476L283.785 519.627H279.71L276.654 520.646C273.703 520.954 272.9 521.705 271.83 522.5C269.244 523.187 267.791 526.189 265.788 527.604L269.184 533.033L270.033 539.82L274.447 544.231L279.201 546.098L283.445 547.625L290.237 549.831C290.237 549.831 294.99 551.867 296.858 552.546C298.725 553.225 305.686 554.073 305.686 554.073L313.156 554.582C317.73 555.526 320.644 552.028 320.966 548.644L321.306 544.741C321.277 540.344 318.479 539.006 319.44 539.99L316.553 545.25L312.308 546.947H308.064L301.273 544.911L294.142 541.687L279.711 537.445L279.202 527.943L284.974 525.059H288.369L293.802 524.21L294.48 519.459Z" fill="#9D6679" stroke="black" stroke-width="0.366477"/>
<path d="M249.318 511.654L247.113 515.556L245.076 518.441L242.869 522.174L240.832 526.246L239.982 529.979L239.473 531.845L241.34 534.221L244.905 536.427L247.282 539.651L252.038 541.357L253.36 541.717L254.08 544.117L259.846 543.723L263.581 541.178L266.127 538.294L265.448 531.676L265.788 527.604L265.618 522.344L265.445 517.593L260.691 517.254L255.089 515.727L249.318 511.654Z" fill="#CD7E57" stroke="black" stroke-width="0.366477"/>
<path d="M116.331 82.5013L118.903 89.0145L120.961 95.3563L122.162 96.7275L122.505 91.0714L120.104 82.3299L119.418 79.2448L118.731 74.6169V70.6747L119.074 66.561L119.932 65.0184L123.191 66.2185L126.278 67.5898L128.679 68.1034L128.85 66.2181V65.018L131.079 63.818L135.367 61.2468L135.71 59.3614L137.425 57.1333L142.398 56.4483L144.113 57.3046L148.058 55.762L151.316 56.1045L154.232 58.8469L155.947 62.1034L157.319 62.9611L160.234 61.761L162.292 62.9611L164.179 65.3607V67.7602L164.007 70.3314L164.865 72.7309L165.208 75.3019L166.58 77.3587L166.752 78.73L166.409 80.7868L166.58 86.1001V89.6995C166.58 89.6995 167.267 90.3846 167.267 91.5851C167.267 92.7851 168.468 98.9551 168.468 98.9551L167.954 103.412L165.553 109.068L164.009 112.153L161.951 116.095L160.751 121.409L159.378 124.494L152.861 126.208L146.516 124.151L141.714 120.723L135.883 115.41L125.764 108.039L121.991 102.383L120.105 97.584L116.331 82.5013Z" fill="#CD7E57" stroke="black" stroke-width="0.366477"/>
<path d="M114.958 108.726L109.449 108.668L108.964 109.395L108.479 112.304L108.114 117.758L108.357 119.333L106.174 121.757L103.385 122.849C103.385 122.849 98.8979 124.06 98.6554 124.788C98.4129 125.515 93.8046 132.423 93.8046 132.423L90.4091 137.029C90.4091 137.029 88.7113 140.665 88.5901 141.15C88.4739 141.634 87.6202 144.301 87.6202 145.149C87.6202 145.998 86.7708 153.754 86.7708 153.754C86.7708 153.754 86.4078 160.056 86.1639 160.541C85.9214 161.026 85.6789 165.389 85.4364 166.48C85.194 167.571 84.2241 172.661 84.2241 173.146C84.2241 173.631 83.7391 178.115 83.6172 179.085C83.501 180.054 82.8897 185.387 82.8897 185.387L82.4049 188.538L81.9199 195.81L81.0705 204.173L80.828 213.384L80.343 224.17V233.624V253.016L79.4937 271.438V290.829V300.525L79.9786 319.675V329.37L79.7362 332.4L84.3445 334.097L90.6504 334.824L98.7755 336.521L107.507 335.914L112.6 335.187L118.178 333.491C118.178 333.491 121.817 332.521 122.18 332.036C122.543 331.552 126.789 328.643 126.789 328.643L131.518 324.643L136.126 320.644L139.886 318.22L143.524 316.886L148.981 318.22L153.832 319.431L159.531 321.613L168.02 325.128L175.417 326.824C175.417 326.824 178.207 326.941 178.692 326.941C179.177 326.941 181.723 326.578 181.723 326.578L182.088 320.154L181.972 311.185L182.088 303.429V293.369C182.088 293.369 182.815 285.855 182.815 285.249C182.815 284.643 180.026 276.159 180.026 276.159L179.056 268.645L177.844 261.737L178.086 255.192L176.146 241.012L174.448 224.286L174.084 218.348L173.721 215.924L168.87 221.499L161.109 226.953L153.954 231.922L146.314 236.406L140.008 239.921L132.247 243.799L124.607 245.617L117.694 247.435H111.267L108.478 244.769L106.538 239.072L105.325 234.467L104.718 231.679L107.629 231.563L111.994 232.412L118.179 230.958L125.455 228.413L129.336 225.625L133.58 223.444L134.793 221.383L135.642 219.929V217.141L135.157 214.596L143.04 211.687L149.831 208.779L154.924 205.87L159.29 202.476L163.777 199.81L167.778 196.417L170.568 194.114L172.751 190.235L173.72 186.842L174.57 181.024L174.812 174.237L173.357 166.359L171.781 159.209L169.355 153.876L167.294 148.907L166.444 144.544L165.232 140.302L164.019 137.15L158.805 133.999L151.407 129.636L146.685 128.094L142.226 124.495L135.642 120.668L133.096 117.88L127.648 114.211L124.733 112.154L116.501 110.44L114.958 108.726Z" fill="#4380A4" stroke="black" stroke-width="0.366477"/>
<path d="M105.568 139.454L106.175 144.786C106.175 144.786 104.72 149.028 104.72 149.756C104.72 150.483 105.69 154.846 105.447 155.815C105.205 156.785 104.477 159.451 104.477 161.39C104.477 163.33 104.361 166.238 104.361 167.208C104.361 168.177 104.119 172.298 104.119 172.904C104.119 173.511 103.876 176.056 103.876 176.54C103.876 177.025 103.876 179.934 104.119 180.782C104.361 181.631 104.846 182.722 104.846 183.933C104.846 185.145 104.361 186.963 104.361 187.448C104.361 187.933 103.634 190.478 103.512 191.327C103.396 192.175 102.056 195.69 102.056 196.902C102.056 198.113 102.173 199.81 101.814 201.022C101.45 202.234 99.8736 202.962 99.3885 203.568C98.9035 204.174 98.1761 205.507 98.0542 206.476C97.938 207.446 97.6898 209.385 98.4186 210.718C99.1461 212.052 99.268 212.536 100.116 214.354C100.966 216.172 101.935 215.081 102.299 217.384C102.662 219.687 102.784 220.172 103.027 221.747C103.269 223.323 103.996 228.05 103.996 228.656C103.996 229.262 104.722 231.68 104.722 231.68L107.633 231.563L115.759 231.68L122.429 229.619L129.34 225.619L133.585 223.438L135.646 219.923L135.161 214.59L136.375 210.712L136.618 208.894C136.618 208.894 139.164 206.107 139.528 205.622C139.891 205.137 141.226 196.653 141.226 196.653C141.226 196.653 143.773 189.503 143.773 188.291C143.773 187.079 144.622 176.171 144.622 176.171C144.622 176.171 145.349 170.353 145.229 169.262C145.113 168.171 144.137 161.991 144.137 161.142C144.137 160.293 142.925 151.446 142.925 151.446L142.075 145.871L142.318 143.811" stroke="black" stroke-width="0.366477"/>
<path d="M170.568 194.114L173.66 191.023L175.264 190.594L176.491 189.367L177.774 188.627L178.815 188.054L181.726 187.812L185.364 188.418L185.971 189.388L186.698 191.448L189.002 192.66L190.7 193.629C190.7 193.629 190.816 192.902 190.942 194.478C191.059 196.053 191.185 197.629 191.185 197.629L191.069 200.659L191.918 202.113L192.403 203.568L192.287 204.659L191.437 205.508L190.468 207.205L191.075 208.659V210.598L191.191 211.81L191.433 213.385L189.735 214.477L186.704 215.204H184.157L181.853 214.355L179.185 213.264L176.275 214.475L173.727 215.923L168.876 221.498L164.996 224.413L160.873 227.807L153.96 231.922L143.047 238.351L132.253 243.799L117.701 247.435H111.274L108.485 244.769L104.725 231.679L107.635 231.563L112.001 232.412L122.435 229.619L129.342 225.625L133.591 223.437L135.653 219.923L135.164 214.596L144.381 211.324L154.93 205.87L159.296 202.476L163.783 199.81L170.568 194.114Z" fill="#CD7E57" stroke="black" stroke-width="0.366477"/>
<path d="M112.6 335.188L112.602 338.461C112.602 338.461 113.087 343.067 113.087 343.673C113.087 344.279 112.722 351.672 112.722 352.278C112.722 352.884 113.087 360.398 113.087 360.398C113.087 360.398 113.203 365.731 113.451 366.822C113.694 367.913 114.543 374.821 114.663 375.427C114.78 376.033 115.026 383.062 114.906 383.668C114.79 384.275 114.421 390.819 114.421 391.425C114.421 392.032 114.058 398.939 114.058 398.939L112.724 409.968V415.422L110.662 420.392L110.546 425.239L109.334 428.633L108.121 433.723L107.394 437.965L108.001 447.297L109.213 462.326L108.971 470.931L109.82 478.203V486.081L110.063 491.414L110.427 496.383L110.791 501.837V504.988L116.37 506.563L120.857 506.447L126.556 505.72L132.984 503.781L136.986 502.205L139.168 500.994L139.052 491.177L139.78 482.814L139.295 470.573L139.659 465.846L141.478 457.12L142.328 446.818V441.364L144.995 431.547L146.451 425.608L148.391 421.609L150.21 416.397L151.18 411.913L154.333 399.551L156.394 402.823L158.335 407.792L161.003 414.943L161.367 418.821L164.399 429.487L164.283 434.82L164.525 441.97L164.768 450.818C164.768 450.818 164.403 456.514 164.525 456.999C164.641 457.483 164.525 464.392 164.525 464.877C164.525 465.362 165.495 470.209 165.495 471.421C165.495 472.633 166.344 477.966 166.587 478.451C166.829 478.936 168.163 485.117 168.163 485.117L172.044 502.448L173.136 508.508L175.44 515.174L176.895 520.143C176.895 520.143 178.23 524.385 178.23 524.87C178.23 525.354 178.472 528.142 178.472 528.142L178.957 529.234H184.414L191.205 528.022L198.966 525.476L203.817 522.931L205.636 520.75L204.302 515.417L203.21 508.145L202.725 499.298L201.633 485.36L200.541 474.573L200.784 466.574L201.269 459.302L200.177 442.092L201.147 429.851L201.389 410.823L196.659 393.976L193.87 382.826L190.717 367.676L186.594 346.588L184.176 338.223L180.693 327.82L175.436 326.83L168.038 325.134L153.85 319.437L143.542 316.892L139.904 318.226L134.084 322.711L128.87 327.196L122.079 332.044L119.168 333.255L112.6 335.188Z" fill="#030406" stroke="black" stroke-width="1.93927"/>
<path d="M154.333 399.551L149.467 388.637C149.467 388.637 147.285 382.577 147.163 382.093C147.047 381.608 144.253 374.094 144.253 374.094L139.16 365.004L138.19 360.035L136.371 355.914L134.673 352.157" stroke="#363636" stroke-width="0.366477"/>
<g filter="url(#filter1_f)">
<path d="M158.829 92.465L160.013 95.437L161.456 97.4759C162.377 101.702 161.5 103.294 157.387 103.411L155.519 102.478L153.482 102.224L152.463 102.818C149.915 104.274 149.251 102.2 148.303 100.357V97.6418" stroke="#513535" stroke-width="0.366477"/>
</g>
<path d="M147.286 82.0727L148.573 80.7014V79.9294L147.029 79.587L143.428 77.9587L140.084 77.3594L136.139 77.4464L133.309 78.3897L132.109 80.3606L134.424 79.8469L136.482 78.9038H138.883L141.884 78.9908L144.8 80.2765L147.286 82.0727Z" fill="#020504" stroke="black" stroke-width="0.366477"/>
<path d="M157.319 81.6442L159.463 79.0733L161.178 77.1878L163.407 76.0734L165.208 75.3014L166.58 77.3582L166.752 78.7296C166.752 78.7296 164.865 79.1591 164.351 78.9864C163.837 78.8152 161.607 79.3288 161.607 79.3288L160.491 80.7857L157.319 81.6442Z" fill="#020504" stroke="black" stroke-width="0.366477"/>
<path d="M147.029 87.1291L145.914 88.1579L144.97 89.5293L143.512 89.8717L140.94 89.1868L139.139 88.8443L137.51 88.4162L136.738 87.045L136.825 85.588C136.825 85.588 137.597 85.3312 137.94 85.2456C138.282 85.1585 141.284 84.8175 141.284 84.8175L143.685 84.9887L145.143 85.16L147.029 87.1291Z" fill="white" stroke="black" stroke-width="0.366477"/>
<path d="M138.711 86.0149L139.341 85.0964L141.284 84.8177L142.798 85.4606L143.04 86.1875L142.737 87.3383L142.252 88.3076L140.939 89.187L139.138 88.8446L138.711 86.0149Z" fill="#020504" stroke="black" stroke-width="0.366477"/>
<path d="M158.412 87.0813L161.958 87.9448L163.413 87.5805L164.626 87.3382L164.99 85.6412L164.505 83.4597L164.141 82.8531L162.685 82.6107L161.594 83.2173L160.017 83.9444L159.047 84.6714L158.683 85.883L158.412 87.0813Z" fill="white" stroke="black" stroke-width="0.366477"/>
<path d="M161.006 84.0439L161.779 84.7288L161.994 85.7141L161.907 86.6994L161.307 87.2131H160.535L159.891 86.9127L159.634 86.2698L159.518 85.035L161.006 84.0439Z" fill="black" stroke="black" stroke-width="0.366477"/>
<path d="M142.827 111.725L146.6 114.21C146.6 114.21 148.915 115.496 149.43 116.01C149.944 116.524 151.488 117.724 151.488 117.724C151.488 117.724 154.489 118.667 154.832 118.582C155.175 118.495 157.576 116.868 157.576 116.868L159.549 113.954L161.521 110.44L162.12 109.326L161.521 108.641L158.691 108.127C158.691 108.127 155.175 107.699 154.747 107.699C154.318 107.699 150.202 108.127 150.202 108.127L146.943 109.156H144.285H142.57L141.885 109.841L142.827 111.725Z" fill="#F672D6" stroke="black" stroke-width="0.366477"/>
<path d="M144.981 110.914L147.406 112.974L149.589 113.58C152.858 115.611 153.431 115.104 156.683 114.004C157.968 112.997 157.97 113.047 157.957 113.035L159.048 111.58L159.715 110.005L160.261 109.278L159.715 110.005L155.167 108.851L152.56 109.155C150.827 109.213 150.221 110.909 147.429 110.611L144.981 110.914Z" fill="white" stroke="black" stroke-width="0.366477"/>
<path d="M159.715 110.005L157.532 111.154L155.834 111.881L153.53 112.245L150.559 112.129L150.013 111.584" stroke="black" stroke-width="0.366477"/>
<path d="M116.331 82.5011L113.072 79.4159L110.157 78.7296H107.413V76.6728L108.442 73.9304L109.643 72.0451L108.099 70.1596C108.099 70.1596 105.87 68.617 105.87 69.6459C105.87 70.6747 105.87 74.1023 105.87 74.1023L105.184 75.4737L104.671 77.0163L103.47 73.4168L100.383 71.0171C100.383 71.0171 99.696 71.1883 99.696 72.3884C99.696 73.5884 99.8673 76.3307 99.8673 76.3307L96.7803 73.7595H94.894L91.9784 72.902L89.0629 70.3311L86.6619 64.6748L85.6325 56.7904L84.9457 49.0774L85.2883 43.0784L87.1748 37.7649V31.0802L89.0612 26.7953L90.7762 24.5672L97.6362 18.7395L100.895 18.5683L103.639 17.7107L104.496 14.1114L105.181 11.5404L107.753 9.48358L113.927 8.79718L114.957 10.5112L117.186 10.6825C117.186 10.6825 120.445 10.1687 121.302 11.0249C122.16 11.8825 123.532 12.225 123.532 12.225L127.133 13.0825L129.706 12.225L134.508 11.8826L136.051 13.9394L138.624 12.2254L142.74 13.2543C142.74 13.2543 145.655 14.6255 145.827 15.311C145.998 15.9959 145.827 16.8537 145.998 17.7106C146.17 18.5682 149.428 19.4246 149.428 19.4246L153.373 20.7959L154.059 24.7382L154.402 26.795L157.832 26.9663L160.748 28.8516L160.234 32.9653L162.12 34.8507L163.663 35.7083L161.434 38.1078L162.121 39.4791L163.836 41.5359L163.664 45.9922L162.635 48.906L160.063 47.0206L157.49 46.5069L155.604 47.8782L156.462 50.6207L158.177 53.5345L159.72 57.4766L164.179 65.3605L160.234 61.7609L157.319 62.961L154.232 58.8468L151.316 56.1044L148.058 55.7618L144.113 57.3046L142.398 56.4483L137.425 57.1333L135.367 61.2469L128.85 65.018L128.679 68.1035L123.191 66.2185L119.932 65.0184L119.074 66.561L118.731 74.6168L122.505 91.0712L122.162 96.7274L120.961 95.3562L116.331 82.5011Z" fill="#020504" stroke="black" stroke-width="0.366477"/>
<path d="M108.099 70.1595L112.66 59.8765C118.197 44.0416 134.151 37.9995 145.794 42.1193" stroke="#532F5A" stroke-width="1.46591"/>
<path d="M120.105 97.584L116.331 82.5013L113.072 79.4161L107.413 78.7297L105.869 84.0439L106.383 85.7578L106.897 88.3288L106.554 91.4141C106.554 91.4141 106.897 94.3278 107.926 94.6707C108.956 95.0132 107.927 95.5283 109.642 96.042C111.356 96.5557 113.414 97.5847 113.414 97.5847L114.958 98.4423C114.958 98.4423 114.958 99.9848 114.958 100.67C114.958 101.355 114.958 103.927 114.958 104.613C114.958 105.298 114.958 107.184 114.958 107.184V108.726L116.501 110.44L124.733 112.154L127.649 114.211C127.649 114.211 128.336 116.096 131.079 117.296C133.823 118.496 135.195 120.724 136.053 121.239C136.909 121.752 142.226 124.495 142.226 124.495L143.085 125.524L146.686 128.095L146.516 124.152L141.714 120.724L135.883 115.411L125.765 108.041L120.105 97.584Z" fill="#CD7E57" stroke="black" stroke-width="0.366477"/>
<path d="M116.073 88.5002L116.502 91.9284L116.673 93.3852L114.101 95.0135L111.957 93.8991" stroke="black" stroke-width="0.366477"/>
<path d="M114.101 95.0135L110.757 91.0714L110.67 87.9004L111.956 86.9572L113.928 87.0442L116.072 90.9006L116.672 93.386L114.101 95.0135Z" fill="#BB765B" stroke="black" stroke-width="0.366477"/>
<path d="M116.331 97.1561L117.531 96.2129L118.39 93.8989L118.903 93.3852" stroke="black" stroke-width="0.366477"/>
<path d="M311.686 185.378L318.794 186.45L314.651 202.231L309.903 203.371L311.686 185.378Z" fill="#CD7E57"/>
<path d="M277.336 205.564L280.516 204.269L283.485 206.12L287.443 205.38C287.443 205.38 291.543 205.566 291.189 206.12C290.836 206.676 285.464 210.658 284.828 211.399C284.192 212.14 282.566 214.084 281.294 213.066C280.022 212.047 278.184 210.75 278.043 210.38C277.902 210.01 275.923 206.736 275.923 206.736L277.336 205.564Z" fill="#E448BE" stroke="black" stroke-width="0.23109"/>
<path d="M288.009 207.139L284.121 207.787L280.375 206.398H279.456L278.325 207.51L277.231 207.466L279.385 209.636L280.87 211.396L282.142 211.308H283.132L288.009 207.139Z" fill="white" stroke="black" stroke-width="0.23109"/>
<defs>
<filter id="filter0_f" x="179.121" y="97.9959" width="30.5802" height="30.3117" filterUnits="userSpaceOnUse" color-interpolation-filters="sRGB">
<feFlood flood-opacity="0" result="BackgroundImageFix"/>
<feBlend mode="normal" in="SourceGraphic" in2="BackgroundImageFix" result="shape"/>
<feGaussianBlur stdDeviation="0.0452714" result="effect1_foregroundBlur"/>
</filter>
<filter id="filter1_f" x="148.058" y="92.3351" width="13.9763" height="11.3228" filterUnits="userSpaceOnUse" color-interpolation-filters="sRGB">
<feFlood flood-opacity="0" result="BackgroundImageFix"/>
<feBlend mode="normal" in="SourceGraphic" in2="BackgroundImageFix" result="shape"/>
<feGaussianBlur stdDeviation="0.031056" result="effect1_foregroundBlur"/>
</filter>
</defs>
</svg>
