<svg width="49" height="45" viewBox="0 0 49 45" fill="none" xmlns="http://www.w3.org/2000/svg">
<path fill-rule="evenodd" clip-rule="evenodd" d="M43.2074 5.89711C39.9472 -0.0555101 12.966 -0.591463 6.87788 4.34429C0.789753 9.28004 -1.8983 25.3529 5.39779 27.3778C8.41253 28.2145 14.6398 28.8135 21.3345 29.0409C21.8208 30.6726 22.2555 32.3257 22.6663 33.8879C23.6342 37.569 24.4693 40.7451 25.5351 41.946C27.0216 43.6209 28.894 36.9332 30.8436 29.9698C30.9252 29.6783 31.007 29.3862 31.0888 29.0943C37.1707 28.9405 42.4971 28.4049 44.8221 27.3778C50.8381 24.7201 46.4676 11.8497 43.2074 5.89711Z" fill="#E86F6F"/>
<path d="M6.87788 4.34429L6.563 3.95589L6.563 3.95589L6.87788 4.34429ZM43.2074 5.89711L42.7689 6.13729L42.7689 6.13729L43.2074 5.89711ZM5.39779 27.3778L5.5315 26.896L5.39779 27.3778ZM21.3345 29.0409L21.8136 28.8981L21.7109 28.5534L21.3514 28.5412L21.3345 29.0409ZM22.6663 33.8879L22.1827 34.015L22.1827 34.015L22.6663 33.8879ZM25.5351 41.946L25.1611 42.2779L25.1611 42.2779L25.5351 41.946ZM30.8436 29.9698L31.3251 30.1046L31.3251 30.1046L30.8436 29.9698ZM31.0888 29.0943L31.0762 28.5945L30.7071 28.6038L30.6074 28.9593L31.0888 29.0943ZM44.8221 27.3778L44.62 26.9204L44.62 26.9204L44.8221 27.3778ZM7.19275 4.73268C8.60472 3.58798 11.3165 2.71055 14.7435 2.16126C18.1429 1.61638 22.1555 1.40759 26.0866 1.53729C30.0195 1.66704 33.8486 2.13486 36.8846 2.93271C38.4031 3.33177 39.7073 3.80929 40.722 4.3586C41.7438 4.91171 42.4271 5.5133 42.7689 6.13729L43.6459 5.65693C43.1727 4.79276 42.2996 4.07547 41.1981 3.47918C40.0895 2.87909 38.7033 2.3767 37.1388 1.96555C34.0086 1.14298 30.1006 0.669175 26.1196 0.537832C22.1369 0.406431 18.0589 0.61707 14.5852 1.17386C11.139 1.72624 8.19509 2.63272 6.563 3.95589L7.19275 4.73268ZM5.5315 26.896C3.90584 26.4448 2.80555 25.2116 2.16482 23.4479C1.52045 21.6742 1.36035 19.4036 1.61594 17.0056C1.87096 14.6129 2.53623 12.1286 3.50893 9.94418C4.48406 7.75434 5.75273 5.90013 7.19275 4.73268L6.563 3.95589C4.95896 5.25632 3.60858 7.26212 2.59541 9.53739C1.57982 11.8181 0.887561 14.404 0.621568 16.8996C0.35614 19.3899 0.511529 21.8257 1.22492 23.7894C1.94195 25.7631 3.24169 27.2983 5.26407 27.8596L5.5315 26.896ZM21.3514 28.5412C14.6551 28.3137 8.4824 27.715 5.5315 26.896L5.26407 27.8596C8.34265 28.714 14.6245 29.3133 21.3175 29.5406L21.3514 28.5412ZM23.1498 33.7607C22.7394 32.1998 22.3027 30.5388 21.8136 28.8981L20.8553 29.1837C21.339 30.8063 21.7716 32.4516 22.1827 34.015L23.1498 33.7607ZM25.909 41.6141C25.4525 41.0997 25.0031 40.0986 24.5388 38.6904C24.0817 37.3038 23.635 35.606 23.1498 33.7607L22.1827 34.015C22.6654 35.8509 23.1203 37.5816 23.5891 39.0036C24.0508 40.404 24.5518 41.5914 25.1611 42.2779L25.909 41.6141ZM30.3621 29.835C29.3846 33.3262 28.4361 36.712 27.549 39.0177C27.1006 40.1832 26.6904 41.0102 26.3327 41.4413C26.1496 41.662 26.0425 41.7019 26.0198 41.7061C26.0191 41.7062 26.022 41.7074 26.0162 41.7049C26.0046 41.6999 25.9673 41.6798 25.909 41.6141L25.1611 42.2779C25.4222 42.5721 25.778 42.7671 26.2002 42.6897C26.5721 42.6215 26.8703 42.3594 27.1023 42.0798C27.5747 41.5105 28.0331 40.5444 28.4823 39.3768C29.3904 37.0166 30.3529 33.5768 31.3251 30.1046L30.3621 29.835ZM30.6074 28.9593C30.5255 29.2513 30.4437 29.5435 30.3621 29.835L31.3251 30.1046C31.4067 29.8131 31.4884 29.5211 31.5703 29.2294L30.6074 28.9593ZM44.62 26.9204C43.5312 27.4014 41.6831 27.7861 39.3056 28.067C36.9435 28.3461 34.1078 28.5178 31.0762 28.5945L31.1015 29.5942C34.1517 29.517 37.0202 29.344 39.4229 29.0601C41.8103 28.778 43.7879 28.3812 45.0241 27.8351L44.62 26.9204ZM42.7689 6.13729C44.379 9.07718 46.2641 13.7308 47.0007 17.9589C47.3695 20.0751 47.4431 22.0441 47.079 23.6251C46.7182 25.1921 45.9407 26.337 44.62 26.9204L45.0241 27.8351C46.7114 27.0897 47.6437 25.6292 48.0535 23.8495C48.4601 22.0837 48.3653 19.9649 47.9859 17.7872C47.2263 13.4275 45.296 8.66965 43.6459 5.65693L42.7689 6.13729Z" fill="black"/>
<path d="M31.3575 7.14259C28.993 5.62166 26.0501 6.50884 24.5781 8.94602L24.0014 9.89946L23.1255 9.21065C20.8923 7.44849 17.822 7.65678 16.1457 9.91385C14.2254 12.5037 14.8126 16.4172 17.3127 18.3898L25.9191 25.172C26.475 25.6098 27.2234 25.4735 27.5892 24.8677L33.2508 15.4862C34.8984 12.758 34.0678 8.88889 31.3575 7.14259V7.14259Z" fill="#ECBD17"/>
<path d="M10.2939 41.6508C10.2939 41.8364 10.2304 41.9731 10.1034 42.061C9.98625 42.1587 9.85442 42.2075 9.70793 42.2075C9.56145 42.2075 9.42961 42.1587 9.31242 42.061C9.19524 41.9731 9.13664 41.8364 9.13664 41.6508C9.13664 40.8891 9.22453 40.1567 9.40031 39.4536C9.5761 38.7505 9.79582 38.0522 10.0595 37.3588C9.99113 37.2319 9.9716 37.0903 10.0009 36.934C10.0595 36.729 10.1864 36.602 10.3818 36.5532C10.5771 36.0844 10.7773 35.6206 10.9823 35.1616C11.1972 34.6928 11.4023 34.2241 11.5976 33.7553C11.7929 33.2866 11.9736 32.813 12.1396 32.3344C12.3056 31.8559 12.4423 31.3676 12.5497 30.8696C12.579 30.7231 12.6376 30.5962 12.7255 30.4887C12.8232 30.3813 12.955 30.3276 13.121 30.3276C13.2773 30.3276 13.4189 30.3862 13.5458 30.5034C13.6728 30.6108 13.7265 30.7475 13.707 30.9135C13.6777 31.4799 13.6874 32.0024 13.7363 32.4809C13.7851 32.9497 13.8583 33.4184 13.956 33.8872C14.0536 34.3462 14.1611 34.81 14.2782 35.2788C14.4052 35.7378 14.5224 36.1967 14.6298 36.6557C14.7372 37.0952 14.8349 37.5346 14.9228 37.9741C15.0107 38.4135 15.1523 38.8383 15.3476 39.2485C15.4452 39.4536 15.5478 39.6538 15.6552 39.8491C15.7626 40.0346 15.8798 40.2251 16.0068 40.4204C16.1239 40.5962 16.2314 40.7817 16.329 40.977C16.4267 41.1626 16.495 41.3676 16.5341 41.5922C16.5536 41.7485 16.5292 41.895 16.4609 42.0317C16.4023 42.1684 16.29 42.2612 16.1239 42.31C15.9872 42.3491 15.8407 42.3296 15.6845 42.2514C15.5282 42.1733 15.4355 42.0561 15.4062 41.8999C15.3671 41.6753 15.289 41.4751 15.1718 41.2993C15.0644 41.1235 14.9521 40.9428 14.8349 40.7573C14.6982 40.5424 14.5712 40.3276 14.454 40.1128C14.3466 39.8881 14.2489 39.6587 14.1611 39.4243C14.0634 39.1801 13.9804 38.936 13.912 38.6919C13.8437 38.438 13.7802 38.184 13.7216 37.9301C13.2822 37.9008 12.8476 37.8813 12.4179 37.8715C11.998 37.852 11.5732 37.8178 11.1435 37.769C10.9091 38.394 10.7089 39.0288 10.5429 39.6733C10.3866 40.3178 10.3036 40.977 10.2939 41.6508ZM11.6708 36.4653C11.6513 36.4946 11.6366 36.5288 11.6269 36.5678C11.6269 36.5971 11.6171 36.6264 11.5976 36.6557C11.9101 36.685 12.2177 36.7046 12.5204 36.7143C12.8232 36.7143 13.1308 36.7241 13.4433 36.7436C13.3359 36.2749 13.2187 35.811 13.0917 35.352C12.9745 34.8833 12.8671 34.4096 12.7695 33.9311C12.5937 34.3608 12.413 34.7856 12.2275 35.2055C12.0419 35.6157 11.8564 36.0356 11.6708 36.4653ZM17.9937 40.8159C18.1206 40.894 18.2183 41.0112 18.2866 41.1674C18.355 41.3237 18.3648 41.4702 18.3159 41.6069C18.2573 41.7729 18.1597 41.895 18.023 41.9731C17.9155 42.0903 17.7788 42.144 17.6128 42.1342C17.4468 42.1342 17.3101 42.0805 17.2027 41.9731C17.0562 41.8559 16.9634 41.7583 16.9243 41.6801C16.8462 41.5434 16.8218 41.4067 16.8511 41.27C16.8902 41.1333 16.9683 41.0161 17.0855 40.9184C17.105 40.8989 17.1294 40.8794 17.1587 40.8598C17.188 40.8305 17.2173 40.8061 17.2466 40.7866C17.3345 40.7475 17.3833 40.728 17.3931 40.728C17.4126 40.728 17.4712 40.7182 17.5689 40.6987C17.647 40.6987 17.7056 40.7085 17.7447 40.728C17.8423 40.7475 17.9253 40.7768 17.9937 40.8159Z" fill="black"/>
<path d="M37.532 41.6508C37.532 41.8364 37.4685 41.9731 37.3415 42.061C37.2243 42.1587 37.0925 42.2075 36.946 42.2075C36.7995 42.2075 36.6677 42.1587 36.5505 42.061C36.4333 41.9731 36.3747 41.8364 36.3747 41.6508C36.3747 40.8891 36.4626 40.1567 36.6384 39.4536C36.8142 38.7505 37.0339 38.0522 37.2976 37.3588C37.2292 37.2319 37.2097 37.0903 37.239 36.934C37.2976 36.729 37.4245 36.602 37.6199 36.5532C37.8152 36.0844 38.0154 35.6206 38.2204 35.1616C38.4353 34.6928 38.6404 34.2241 38.8357 33.7553C39.031 33.2866 39.2117 32.813 39.3777 32.3344C39.5437 31.8559 39.6804 31.3676 39.7878 30.8696C39.8171 30.7231 39.8757 30.5962 39.9636 30.4887C40.0613 30.3813 40.1931 30.3276 40.3591 30.3276C40.5154 30.3276 40.657 30.3862 40.7839 30.5034C40.9109 30.6108 40.9646 30.7475 40.945 30.9135C40.9158 31.4799 40.9255 32.0024 40.9743 32.4809C41.0232 32.9497 41.0964 33.4184 41.1941 33.8872C41.2917 34.3462 41.3992 34.81 41.5163 35.2788C41.6433 35.7378 41.7605 36.1967 41.8679 36.6557C41.9753 37.0952 42.073 37.5346 42.1609 37.9741C42.2488 38.4135 42.3904 38.8383 42.5857 39.2485C42.6833 39.4536 42.7859 39.6538 42.8933 39.8491C43.0007 40.0346 43.1179 40.2251 43.2449 40.4204C43.362 40.5962 43.4695 40.7817 43.5671 40.977C43.6648 41.1626 43.7331 41.3676 43.7722 41.5922C43.7917 41.7485 43.7673 41.895 43.699 42.0317C43.6404 42.1684 43.5281 42.2612 43.362 42.31C43.2253 42.3491 43.0788 42.3296 42.9226 42.2514C42.7663 42.1733 42.6736 42.0561 42.6443 41.8999C42.6052 41.6753 42.5271 41.4751 42.4099 41.2993C42.3025 41.1235 42.1902 40.9428 42.073 40.7573C41.9363 40.5424 41.8093 40.3276 41.6921 40.1128C41.5847 39.8881 41.487 39.6587 41.3992 39.4243C41.3015 39.1801 41.2185 38.936 41.1501 38.6919C41.0818 38.438 41.0183 38.184 40.9597 37.9301C40.5202 37.9008 40.0857 37.8813 39.656 37.8715C39.2361 37.852 38.8113 37.8178 38.3816 37.769C38.1472 38.394 37.947 39.0288 37.781 39.6733C37.6247 40.3178 37.5417 40.977 37.532 41.6508ZM38.9089 36.4653C38.8894 36.4946 38.8747 36.5288 38.865 36.5678C38.865 36.5971 38.8552 36.6264 38.8357 36.6557C39.1482 36.685 39.4558 36.7046 39.7585 36.7143C40.0613 36.7143 40.3689 36.7241 40.6814 36.7436C40.574 36.2749 40.4568 35.811 40.3298 35.352C40.2126 34.8833 40.1052 34.4096 40.0075 33.9311C39.8318 34.3608 39.6511 34.7856 39.4656 35.2055C39.28 35.6157 39.0945 36.0356 38.9089 36.4653ZM45.2318 40.8159C45.3587 40.894 45.4564 41.0112 45.5247 41.1674C45.5931 41.3237 45.6029 41.4702 45.554 41.6069C45.4954 41.7729 45.3978 41.895 45.2611 41.9731C45.1536 42.0903 45.0169 42.144 44.8509 42.1342C44.6849 42.1342 44.5482 42.0805 44.4408 41.9731C44.2943 41.8559 44.2015 41.7583 44.1624 41.6801C44.0843 41.5434 44.0599 41.4067 44.0892 41.27C44.1283 41.1333 44.2064 41.0161 44.3236 40.9184C44.3431 40.8989 44.3675 40.8794 44.3968 40.8598C44.4261 40.8305 44.4554 40.8061 44.4847 40.7866C44.5726 40.7475 44.6214 40.728 44.6312 40.728C44.6507 40.728 44.7093 40.7182 44.807 40.6987C44.8851 40.6987 44.9437 40.7085 44.9827 40.728C45.0804 40.7475 45.1634 40.7768 45.2318 40.8159Z" fill="black"/>
</svg>
