<?xml version="1.0" standalone="no"?><svg xmlns="http://www.w3.org/2000/svg" viewBox="0 0 1440 320"><path fill="#fbe196" fill-opacity="1" d="M0,64L20,85.3C40,107,80,149,120,144C160,139,200,85,240,96C280,107,320,181,360,208C400,235,440,213,480,218.7C520,224,560,256,600,256C640,256,680,224,720,197.3C760,171,800,149,840,133.3C880,117,920,107,960,122.7C1000,139,1040,181,1080,176C1120,171,1160,117,1200,117.3C1240,117,1280,171,1320,202.7C1360,235,1400,245,1420,250.7L1440,256L1440,320L1420,320C1400,320,1360,320,1320,320C1280,320,1240,320,1200,320C1160,320,1120,320,1080,320C1040,320,1000,320,960,320C920,320,880,320,840,320C800,320,760,320,720,320C680,320,640,320,600,320C560,320,520,320,480,320C440,320,400,320,360,320C320,320,280,320,240,320C200,320,160,320,120,320C80,320,40,320,20,320L0,320Z"></path></svg>